<?xml version="1.0" standalone="no"?>
<!DOCTYPE svg PUBLIC "-//W3C//DTD SVG 1.1//EN" "http://www.w3.org/Graphics/SVG/1.1/DTD/svg11.dtd" >
<svg xmlns="http://www.w3.org/2000/svg">
<metadata></metadata>
<defs>
<font id="pf_agora_sans_proregular" horiz-adv-x="3723" >
<font-face units-per-em="2048" ascent="1536" descent="-512" />
<missing-glyph horiz-adv-x="557" />
<glyph unicode="fj" horiz-adv-x="1134" d="M55 877v90q35 10 71 18t71 19v161q0 92 29.5 154.5t81.5 100.5t125 54.5t157 16.5q72 -2 154.5 -11.5t150.5 -25.5l-25 -129q-66 10 -132 18.5t-122 8.5q-68 0 -115.5 -9.5t-79.5 -35t-47.5 -69.5t-15.5 -114v-125h615v-884q0 -102 -6 -184.5t-41 -149t-109 -121.5 t-207 -104q-10 29 -21 55.5t-24 52.5q76 43 123 79t73.5 76t36 89t9.5 115v854h-449q0 -219 -1 -438.5t-1 -438.5h-161v877h-140z" />
<glyph unicode="ffj" horiz-adv-x="1716" d="M55 877v90q35 10 71 18t71 19v118q0 168 104.5 256t296.5 88q70 0 136.5 -8t144.5 -31q47 47 122.5 68t167.5 21q76 0 159 -10.5t155 -26.5l-25 -127q-72 12 -136.5 19t-121.5 7q-129 0 -187.5 -47t-58.5 -182v-150h598v-909q0 -117 -15 -198.5t-55 -143t-111 -106.5 t-181 -86l-45 108q76 43 123 79t73.5 76t35.5 89t9 115v854h-432v-877h-163v877h-433q0 -219 -1 -438.5t-1 -438.5h-161v877h-140zM358 999h437l-2 177q0 76 18 131q-53 14 -100 19t-84 5q-78 0 -129.5 -14t-82 -45t-44 -78t-13.5 -113v-82z" />
<glyph unicode="ff" horiz-adv-x="1318" d="M55 877v90q35 10 71 18t71 19v133q4 160 108.5 244.5t292.5 84.5q68 0 133.5 -7t138.5 -29q84 84 244 83q45 0 100.5 -6t108.5 -20l-25 -123q-37 6 -76.5 10t-72.5 4q-92 0 -143.5 -37.5t-51.5 -136.5v-205h293v-122h-293v-877h-163v877h-433q0 -219 -1 -438.5t-1 -438.5 h-161v877h-140zM358 999h435v205q0 29 2 54.5t8 48.5q-49 12 -95 18t-81 6q-78 0 -129.5 -14t-82 -45t-44 -78t-13.5 -113v-82z" />
<glyph unicode="fi" horiz-adv-x="1114" d="M55 877v90q35 10 71 18t71 19v126q0 102 26.5 172t75.5 112t122 59.5t165 17.5q72 -2 155.5 -11.5t153.5 -25.5l-25 -129q-70 10 -139 18.5t-127 8.5q-129 0 -187.5 -46t-58.5 -182v-125h592v-999h-166v877h-426q0 -219 -1 -438.5t-1 -438.5h-161v877h-140z" />
<glyph unicode="fl" horiz-adv-x="1138" d="M55 877v90q35 10 71 18t71 19v106q0 104 26.5 175t77.5 112t128 58.5t175 17.5q63 -4 132 -9.5t128 -15.5l111 18q0 -369 -1 -733t-1 -733h-162v1315q-53 8 -107.5 14t-99.5 6q-129 0 -187.5 -47t-58.5 -182v-107h295v-122h-295q0 -219 -1 -438.5t-1 -438.5h-161v877 h-140z" />
<glyph unicode="ffi" horiz-adv-x="1712" d="M55 877v90q35 10 71 18t71 19v133q0 86 30.5 148.5t85 103.5t129 60t164.5 19q66 0 132.5 -9t140.5 -32q51 47 128.5 66.5t178.5 19.5q72 0 154.5 -10t152.5 -26l-25 -129q-66 12 -133 20t-121 8q-68 0 -116.5 -9t-80.5 -34.5t-47.5 -69.5t-15.5 -114v-148h594v-1001 h-166v877h-428v-877h-163v877h-433q0 -219 -1 -438.5t-1 -438.5h-161v877h-140zM358 1001h435v187q0 35 5 63.5t15 55.5q-53 14 -101 19t-85 5q-78 0 -129.5 -14t-82 -45t-44 -78t-13.5 -113v-80z" />
<glyph unicode="ffl" horiz-adv-x="1738" d="M55 877v90q35 10 71 18t71 19v88q-8 182 95 278t306 96q70 0 136.5 -8t144.5 -31q102 86 278 86q72 0 161 -6t165 -16l92 18v-1509h-166v1356q-53 8 -107.5 14t-99.5 6q-129 0 -187.5 -47t-58.5 -180q0 -39 -1 -76t-1 -74h297v-122h-297v-877h-163v877h-433 q0 -219 -1 -438.5t-1 -438.5h-161v877h-140zM358 999h435q0 39 -1 81t1 82t6 76t14 60v9q-53 14 -101 19t-85 5q-78 0 -129.5 -14t-82 -45t-44 -78t-13.5 -113v-82z" />
<glyph unicode="ft" horiz-adv-x="1380" d="M55 879v90l142 37v168q0 150 81.5 228.5t239.5 78.5q45 0 113.5 -5.5t122.5 -19.5l-25 -123q-37 6 -90 10.5t-84 4.5q-98 0 -147.5 -38t-49.5 -136v-173h459l55 234l103 18v-254h303v-120h-303v-592q0 -72 26.5 -118t110.5 -46q72 0 188 35l27 -113q-55 -27 -121.5 -41 t-128.5 -14q-268 0 -268 246v643h-451v-879h-163v879h-140z" />
<glyph unicode=" "  horiz-adv-x="557" />
<glyph unicode="&#x09;" horiz-adv-x="557" />
<glyph unicode="&#xa0;" horiz-adv-x="557" />
<glyph unicode="!" horiz-adv-x="460" d="M121 86q0 43 31.5 73.5t78.5 30.5t78 -30.5t31 -73.5q0 -45 -32 -77t-77 -32q-47 0 -78.5 32t-31.5 77zM150 1425h163l-4 -608l-18 -469h-113l-20 469z" />
<glyph unicode="&#x22;" horiz-adv-x="557" d="M94 1403h152l-31 -416h-92zM317 1403h150l-27 -416h-94z" />
<glyph unicode="#" horiz-adv-x="1091" d="M94 399l19 97h155l76 344h-164l19 94h166l79 352h105l-78 -352h301l78 352h106l-77 -352h141l-19 -94h-145l-76 -344h154l-19 -97h-155l-86 -399h-107l86 399h-299l-88 -399h-106l88 399h-154zM375 496h301l74 344h-299z" />
<glyph unicode="$" horiz-adv-x="1142" d="M139 106l51 119q96 -49 157 -63.5t106 -20.5v533q-61 20 -116.5 49t-97.5 67.5t-65.5 92t-23.5 127.5q0 150 86 236.5t217 113.5v137h75v-1651h-75v164q-82 8 -162 30.5t-152 65.5zM291 1022q0 -92 45 -135t117 -72v416q-68 -18 -115 -67.5t-47 -141.5zM598 -154v1651h78 v-131q63 -4 130.5 -21.5t125.5 -52.5l-41 -114q-78 35 -125 47t-90 16v-493q66 -25 128 -52.5t111.5 -68.5t79 -99.5t29.5 -144.5q0 -84 -26.5 -146.5t-72.5 -107.5t-109.5 -72.5t-139.5 -40.5v-170h-78zM676 145q98 16 151.5 73.5t53.5 166.5q0 90 -58.5 139t-146.5 82 v-461z" />
<glyph unicode="%" horiz-adv-x="1679" d="M41 946q0 70 13.5 144.5t50 137t103 102.5t173.5 40q109 0 173 -41t98 -104.5t44.5 -137t10.5 -139.5q0 -74 -15.5 -147.5t-54.5 -132t-102.5 -95t-157.5 -36.5q-104 0 -170 34.5t-102.5 93t-50 131t-13.5 150.5zM180 944q0 -63 7.5 -118.5t29 -96.5t61 -64.5 t103.5 -23.5q57 0 94 27.5t57.5 71.5t27.5 98.5t7 107.5q0 43 -4 98.5t-22.5 103.5t-56.5 81t-103 33q-68 0 -108 -32t-60 -79t-26.5 -102.5t-6.5 -104.5zM483 -45l602 1481h111l-598 -1481h-115zM973 403q0 70 13 145t50 137.5t103.5 102t173.5 39.5q109 0 173 -41 t98 -104.5t44 -136.5t10 -139q0 -74 -15 -148t-54 -132t-102.5 -95t-157.5 -37q-104 0 -170 34.5t-103 93t-50 131.5t-13 150zM1112 401q0 -63 7 -118.5t28.5 -96.5t61.5 -64.5t104 -23.5q57 0 94 28t57.5 72t27.5 98t7 107q0 43 -4 98.5t-22.5 103.5t-56.5 81t-103 33 q-68 0 -108 -32t-60.5 -79t-26.5 -102t-6 -105z" />
<glyph unicode="&#x26;" horiz-adv-x="1486" d="M70 375q0 137 88 245.5t252 198.5q-61 86 -86 150.5t-25 128.5q0 57 18.5 110.5t55.5 94t92 65.5t131 25q80 0 136 -23.5t92 -61.5t53.5 -86t17.5 -100q0 -57 -20.5 -105t-57.5 -89t-89 -79t-116 -75q47 -70 104.5 -144.5t117.5 -150.5q37 -43 74.5 -87t78.5 -87 q43 41 81 90t67.5 112.5t50 143.5t28.5 183h138q-6 -111 -29 -202t-57.5 -166t-80.5 -136.5t-104 -114.5q74 -72 153 -125t155 -86l-64 -115q-35 14 -80 40t-92 57.5t-95 68.5t-87 74q-100 -74 -217 -113t-234 -39q-94 0 -176 25t-143.5 74t-96 123.5t-34.5 175.5zM221 383 q0 -72 23.5 -125t64.5 -88t96.5 -52.5t116.5 -17.5q86 0 177.5 31t177.5 88q-53 53 -98.5 108.5t-86.5 108.5q-55 72 -109.5 141.5t-99.5 133.5q-113 -61 -187.5 -139t-74.5 -189zM449 1108q0 -51 25.5 -105.5t70.5 -117.5q43 23 81 46t67.5 52t46 62.5t16.5 76.5 q0 68 -43 110t-121 42q-41 0 -67.5 -16.5t-44 -42t-24.5 -54t-7 -53.5z" />
<glyph unicode="'" horiz-adv-x="395" d="M123 1403h153l-30 -416h-94z" />
<glyph unicode="(" horiz-adv-x="583" d="M123 584q0 170 33.5 311t82 251.5t99.5 189.5t88 124l72 -45q-23 -35 -61 -105.5t-73.5 -175t-61.5 -242.5t-26 -306q0 -188 26 -336t61.5 -257.5t73.5 -181t63 -110.5l-74 -51q-35 43 -86 124t-99 197.5t-83 269.5t-35 343z" />
<glyph unicode=")" horiz-adv-x="587" d="M66 -299q25 39 62.5 110.5t73.5 181t61.5 257t25.5 336.5q0 168 -25.5 306t-61.5 242.5t-74 175t-60 105.5l71 45q37 -45 88.5 -124t99.5 -189.5t81.5 -251.5t33.5 -311q0 -190 -34.5 -343t-83 -269.5t-100.5 -197.5t-87 -124z" />
<glyph unicode="*" horiz-adv-x="796" d="M100 1135q4 49 16.5 88t37.5 75l206 -116q-10 57 -23 115.5t-24 115.5q23 6 45.5 8t44.5 2q23 0 43.5 -2t40.5 -8l-47 -231q51 27 102.5 54.5t104.5 55.5q35 -39 43 -76.5t12 -85.5q-61 -6 -120.5 -14t-120.5 -14l172 -162q-53 -68 -133 -100l-103 217l-100 -215 q-41 16 -72.5 37.5t-64.5 60.5l172 164z" />
<glyph unicode="+" horiz-adv-x="1142" d="M182 553v119h336v332h123v-332h334v-119h-334v-344h-123v344h-336z" />
<glyph unicode="," horiz-adv-x="430" d="M82 -201q82 80 92 191q-35 10 -55.5 36.5t-20.5 63.5q0 43 33 76t80 33q53 0 86 -38t33 -93q0 -43 -15.5 -90.5t-43 -91.5t-65.5 -80.5t-83 -59.5z" />
<glyph unicode="-" horiz-adv-x="749" d="M111 471v139h528v-139h-528z" />
<glyph unicode="." horiz-adv-x="425" d="M96 90q0 45 32 77t77 32q47 0 78.5 -32t31.5 -77q0 -47 -32.5 -78.5t-75.5 -31.5q-47 0 -79 31.5t-32 78.5z" />
<glyph unicode="/" horiz-adv-x="681" d="M31 -57l524 1493h111l-525 -1493h-110z" />
<glyph unicode="0" horiz-adv-x="1142" d="M70 670q0 115 20.5 240.5t75.5 230t154.5 172t259.5 67.5q109 0 186.5 -32.5t132.5 -87t89 -126t52.5 -150.5t24.5 -158.5t6 -151.5q0 -123 -24.5 -246t-81 -221t-151.5 -159.5t-236 -61.5q-160 0 -259.5 59t-154.5 155.5t-74.5 219.5t-19.5 250zM238 666 q0 -115 13 -215.5t50 -174t103.5 -116.5t175.5 -43q98 0 161.5 49t99.5 128t49 178.5t13 197.5q0 80 -7 180t-40 188t-97.5 148.5t-178.5 60.5q-115 0 -183.5 -57t-103.5 -144.5t-45 -189.5t-10 -190z" />
<glyph unicode="1" horiz-adv-x="1142" d="M201 1178v114l317 68h152v-1360h-164v1198z" />
<glyph unicode="2" horiz-adv-x="1142" d="M78 1233q61 45 122.5 73.5t118 45t105.5 22.5t88 6q92 0 170 -22.5t133 -69.5t87 -117.5t32 -164.5q0 -123 -67.5 -246t-164 -236.5t-204 -213t-187.5 -175.5l4 -10h672v-125h-903v113q55 53 127 118.5t147.5 139t148.5 152.5t130 159t92 158t35 149q0 131 -78 191.5 t-203 60.5q-51 0 -140 -17.5t-208 -88.5z" />
<glyph unicode="3" horiz-adv-x="1142" d="M90 61l41 119q113 -33 194 -47t142 -14q168 0 267.5 73.5t99.5 233.5q0 135 -99.5 202.5t-283.5 67.5q-29 0 -55.5 -2t-57.5 -6l-31 98l422 424l-8 15l-580 2v133h799q8 -27 14.5 -52.5t12.5 -50.5l-424 -421l6 -15h31q90 0 167.5 -23.5t134 -71.5t88 -122t31.5 -176 q0 -113 -40.5 -197t-109.5 -139t-160 -82.5t-191 -27.5q-117 2 -218.5 20t-191.5 59z" />
<glyph unicode="4" horiz-adv-x="1142" d="M66 377v119l639 864h174v-860h198v-123h-198v-377h-160q0 94 1 188.5t1 188.5h-655zM223 500h500v663h-12q-123 -166 -242 -331.5t-246 -331.5z" />
<glyph unicode="5" horiz-adv-x="1142" d="M100 63l39 119q115 -35 196 -48t144 -13q166 0 265.5 73.5t99.5 235.5q0 74 -26.5 129t-72 92t-105.5 55.5t-126 18.5q-59 0 -118.5 -14.5t-114.5 -40.5l-99 65l41 625h727v-133h-590l-26 -414q29 8 83 24.5t146 16.5q84 0 165 -23.5t143.5 -74.5t101.5 -132t39 -194 q0 -115 -41 -199t-108.5 -139t-157 -82.5t-185.5 -27.5q-113 0 -220 18t-200 63z" />
<glyph unicode="6" horiz-adv-x="1142" d="M106 621q0 166 33 305t99.5 240.5t168 157.5t240.5 56q109 0 185.5 -22.5t111.5 -40.5q-10 -29 -18 -58.5t-19 -58.5q-76 29 -141.5 39t-114.5 10q-115 0 -186.5 -55t-114.5 -134t-60.5 -163t-19.5 -141l11 -6q78 41 159.5 70.5t186.5 29.5q80 0 154.5 -23.5t132 -75 t91 -131t33.5 -192.5q0 -104 -33.5 -186t-94 -138.5t-145.5 -87t-187 -30.5q-139 0 -230.5 50t-144.5 136t-75 201.5t-22 247.5zM272 573q0 -66 9.5 -145.5t42 -149t93 -116.5t165.5 -47q145 0 220 86t75 219q0 66 -14.5 121t-47.5 95t-86 62.5t-133 22.5 q-76 0 -135.5 -15.5t-100.5 -35t-63.5 -36t-24.5 -18.5v-43z" />
<glyph unicode="7" horiz-adv-x="1142" d="M160 1227v133h829v-121l-559 -1239h-158l555 1227h-667z" />
<glyph unicode="8" horiz-adv-x="1142" d="M98 338q0 51 12.5 108.5t41 112.5t78 106.5t120.5 92.5q-98 57 -143 119.5t-45 162.5q0 74 31.5 136.5t88 108.5t134.5 72.5t170 26.5q72 0 144.5 -18t132 -58t97 -103.5t37.5 -151.5q0 -37 -8 -78t-30.5 -83t-61.5 -87t-102 -90q47 -25 91 -58.5t76.5 -79t52 -99.5 t19.5 -118q0 -80 -32.5 -148.5t-94 -119.5t-149.5 -79.5t-197 -28.5q-225 0 -344 98t-119 256zM266 358q0 -51 18.5 -97t56.5 -80t94 -53t132 -19q147 0 227 74.5t80 187.5q0 59 -28.5 103t-80.5 81t-127 70.5t-167 72.5q-61 -37 -100 -81t-62.5 -88t-33 -88t-9.5 -83z M332 1040q0 -51 24.5 -88t67.5 -65.5t100.5 -55t124.5 -57.5q106 72 148.5 132.5t42.5 123.5q0 35 -14.5 74t-45 71.5t-81 54t-119.5 21.5q-70 0 -117 -22.5t-77 -55t-42 -69.5t-12 -64z" />
<glyph unicode="9" horiz-adv-x="1142" d="M88 936q0 104 34 186t94 139.5t145 88t188 30.5q137 0 228 -50t145.5 -137t76 -203t21.5 -247q0 -166 -33 -304t-99.5 -238.5t-169 -156.5t-239.5 -56q-111 0 -195.5 21.5t-119.5 39.5q10 29 18 58.5t19 58.5q76 -29 150.5 -39t123.5 -10q113 0 185.5 55t114.5 134 t59.5 163t21.5 141l-10 6q-76 -45 -159 -73.5t-187 -28.5q-82 0 -157 23.5t-131 75t-90 131t-34 192.5zM250 944q0 -66 14.5 -121t47 -95t85.5 -62.5t133 -22.5q76 0 135.5 15.5t100.5 35t62.5 35.5t25.5 19v45q0 63 -9 141t-42 146.5t-93.5 115.5t-164.5 47 q-147 0 -221 -83t-74 -216z" />
<glyph unicode=":" horiz-adv-x="419" d="M104 94q0 45 32 77t77 32q47 0 79 -32t32 -77t-30 -77.5t-79 -32.5q-47 0 -79 32.5t-32 77.5zM104 737q0 47 32 78t77 31q47 0 79 -31t32 -78t-33 -78.5t-76 -31.5q-45 0 -78 32.5t-33 77.5z" />
<glyph unicode=";" horiz-adv-x="419" d="M82 -197q84 76 92 187q-35 10 -55.5 36.5t-20.5 63.5q0 43 33 76t80 33q53 0 86 -38t33 -93q0 -43 -15.5 -89.5t-43 -90.5t-65.5 -80.5t-83 -59.5zM104 737q0 47 32 78t77 31q47 0 79 -31t32 -78t-33 -78.5t-76 -31.5q-45 0 -78 32.5t-33 77.5z" />
<glyph unicode="&#x3c;" horiz-adv-x="1142" d="M172 557v102l815 410v-139l-665 -320l665 -327v-138z" />
<glyph unicode="=" horiz-adv-x="1142" d="M158 410v116h825v-116h-825zM158 707v118h825v-118h-825z" />
<glyph unicode="&#x3e;" horiz-adv-x="1142" d="M172 145v138l666 327l-666 320v139l815 -410v-102z" />
<glyph unicode="?" horiz-adv-x="903" d="M86 1376q98 35 195.5 50.5t175.5 15.5q197 0 294 -77t97 -214q0 -76 -33 -138.5t-82 -115.5t-106.5 -100t-106.5 -94.5t-81.5 -95.5t-32.5 -103q0 -35 6 -69t12 -79l-135 -18q-14 59 -19.5 106.5t-5.5 79.5q0 57 17.5 104.5t50.5 91.5t81 90t109 99q68 59 108 114.5 t40 123.5q0 43 -17.5 72.5t-47.5 48t-70.5 28t-88.5 9.5q-61 0 -138 -10.5t-183 -45.5q-10 33 -19.5 63.5t-19.5 63.5zM283 84q0 43 30.5 73.5t75.5 30.5q47 0 78 -30.5t31 -73.5q0 -45 -32 -74.5t-75 -29.5q-45 0 -76.5 30.5t-31.5 73.5z" />
<glyph unicode="@" horiz-adv-x="1896" d="M164 662q0 166 64.5 306t177 242.5t262 159.5t319.5 57q174 0 312.5 -51t234.5 -143t147.5 -222t51.5 -288q-2 -109 -34 -190.5t-84 -136t-118.5 -82t-136.5 -27.5q-66 0 -133.5 28.5t-98.5 90.5q-49 -49 -123.5 -81t-158.5 -32q-72 0 -117 23.5t-71.5 59.5t-36 76 t-9.5 74q0 102 66.5 163t189.5 73l234 20v45q0 96 -33 132t-125 36q-53 0 -115.5 -11t-130.5 -34l-16 54q-4 10 -8 25t-10 26q72 31 152.5 48t158.5 17q123 0 193.5 -59.5t70.5 -208.5v-326q0 -59 34 -93t105 -34q41 0 82 18.5t75 57.5t55.5 99.5t21.5 144.5 q0 139 -44 250.5t-126 188.5t-197 118t-258 41t-271 -49t-223.5 -137.5t-151.5 -207t-56 -257.5q0 -141 49 -260t136 -207t205 -137.5t255 -49.5q57 0 122.5 8.5t143.5 36.5l35 -100q-59 -27 -139 -42t-158 -15q-172 0 -314.5 57t-244 158.5t-156.5 241t-55 305.5zM764 539 q0 -63 31.5 -97t103.5 -34q96 0 203 88v186l-191 -16q-61 -6 -104 -39t-43 -88z" />
<glyph unicode="A" horiz-adv-x="1185" d="M20 0q125 381 242 731t221 672h222l458 -1403h-182q-29 92 -57.5 183t-57.5 184h-553q-29 -92 -57.5 -183.5t-56.5 -183.5h-179zM356 500h469q-47 156 -94 312.5t-96 309.5l-41 138h-6l-41 -140q-23 -76 -45.5 -148.5t-45 -147t-47 -154.5t-53.5 -170z" />
<glyph unicode="B" horiz-adv-x="1247" d="M164 0v1401h504q102 0 180 -26.5t129 -75t76.5 -114t25.5 -143.5q0 -86 -42 -170t-150 -139q70 -23 113.5 -64.5t70.5 -92t37 -102.5t10 -93q0 -86 -31.5 -156.5t-86 -121t-126 -77t-151.5 -26.5h-559zM336 133h330q76 0 129 21.5t86.5 57.5t49 84t15.5 101 q0 51 -17.5 99.5t-52 85t-88 58.5t-122.5 22h-330v-529zM336 793h293q135 0 205.5 63t70.5 172q0 104 -64.5 172t-211.5 68h-293v-475z" />
<glyph unicode="C" horiz-adv-x="1214" d="M123 692q0 76 11 159t39 165t74 155.5t113.5 130t160.5 90t216 33.5q115 0 203 -17t152 -40l-37 -129q-84 29 -160 38t-141 9q-115 0 -200 -41t-140.5 -117.5t-83 -187.5t-27.5 -248q0 -121 19.5 -224t70.5 -180t139.5 -121t225.5 -44q27 0 67.5 3t85.5 9t92.5 15.5 t88.5 21.5l32 -123q-37 -14 -85 -26.5t-101 -20.5t-107.5 -13t-103.5 -5q-168 0 -282.5 51t-186.5 144t-103.5 224.5t-31.5 288.5z" />
<glyph unicode="D" horiz-adv-x="1318" d="M164 0v1403h457q170 0 281.5 -56.5t177 -152.5t91 -222t25.5 -267q0 -143 -28.5 -271.5t-97.5 -224.5t-182.5 -152.5t-285.5 -56.5h-438zM342 135h240q31 0 75.5 4t93 20.5t95.5 51.5t85 96.5t61.5 154.5t23.5 228q0 137 -21.5 233.5t-56.5 161t-80 101.5t-92 55.5 t-92 23.5t-82 5h-250v-1135z" />
<glyph unicode="E" horiz-adv-x="1155" d="M164 0v1401h854v-131h-680v-465h573v-127h-573v-545h713v-133h-887z" />
<glyph unicode="F" horiz-adv-x="1093" d="M164 0v1401h848v-133h-674v-473h557v-131h-557v-664h-174z" />
<glyph unicode="G" horiz-adv-x="1288" d="M123 694q0 74 11 158t39 165t76 154.5t119.5 130t170 90t229.5 33.5q113 0 204 -17t154 -40l-34 -129q-88 29 -166 38t-144 9q-123 0 -214 -42t-149.5 -119.5t-87 -188.5t-28.5 -250q0 -117 19.5 -219t68.5 -177t133 -119t213 -44q27 0 59.5 2t66.5 6t66 9.5t56 13.5v563 h162v-672q-104 -35 -212 -50t-212 -15q-166 0 -279.5 52t-185.5 145t-103.5 224.5t-31.5 288.5z" />
<glyph unicode="H" horiz-adv-x="1337" d="M164 0v1401h178q0 -150 -1 -295t-1 -295h655v590h179v-1401h-179v670h-655q0 -168 1 -335t1 -335h-178z" />
<glyph unicode="I" horiz-adv-x="540" d="M184 0v1403h172v-1403h-172z" />
<glyph unicode="J" horiz-adv-x="632" d="M-96 -244q98 55 164.5 106.5t107.5 109t58.5 126t17.5 160.5l2 1145h174l-2 -1135q0 -133 -30.5 -233.5t-90 -176t-147.5 -131t-205 -96.5z" />
<glyph unicode="K" horiz-adv-x="1187" d="M164 0v1403h172v-637l612 637h197l-543 -559l563 -844h-194l-482 727l-153 -158v-569h-172z" />
<glyph unicode="L" horiz-adv-x="1099" d="M164 0v1401h174v-1272h741v-129h-915z" />
<glyph unicode="M" horiz-adv-x="1681" d="M164 0v1401h196l209 -475l267 -600h12q66 150 134.5 299t133.5 301l213 475h189v-1401h-168v1096h-4l-123 -281q-37 -80 -73 -161t-75 -162q-39 -90 -78 -176.5t-79 -176.5h-162l-133 303q-45 102 -90.5 201.5t-92.5 202.5q-27 63 -53.5 124.5t-52.5 123.5h-4 q0 -274 -1 -547t-1 -547h-164z" />
<glyph unicode="N" horiz-adv-x="1396" d="M164 0v1401h174q131 -201 257 -397.5t255 -397.5l205 -321h10v1116h168v-1401h-170l-541 846l-184 295q-2 0 -3 -1t-5 -1v-1139h-166z" />
<glyph unicode="O" horiz-adv-x="1429" d="M123 690q0 145 31.5 278.5t102.5 235t186.5 160.5t281.5 59q168 0 280.5 -60t179 -160.5t94.5 -232t28 -274.5q0 -152 -37 -282.5t-110 -226t-182.5 -149.5t-252.5 -54q-164 0 -277.5 50t-186.5 142t-105.5 222t-32.5 292zM303 688q0 -281 98.5 -426t323.5 -145 q102 0 178 45t125 122.5t72.5 182t23.5 223.5q0 104 -15 211t-58 194t-121 142t-205 55t-209 -51t-129 -136t-65.5 -193.5t-18.5 -223.5z" />
<glyph unicode="P" horiz-adv-x="1136" d="M164 0v1403h459q96 0 176 -25.5t138 -77t90 -128.5t32 -177q0 -63 -19.5 -137t-67.5 -136.5t-129 -104.5t-202 -42h-303l2 -575h-176zM338 707h278q49 0 96.5 13t85.5 46t60.5 87t22.5 136q0 72 -20.5 125t-57.5 88t-87 51.5t-108 16.5h-270v-563z" />
<glyph unicode="Q" horiz-adv-x="1431" d="M123 690q0 145 31.5 278.5t102.5 235t185.5 160.5t280.5 59q168 0 280.5 -60t179 -161.5t94.5 -233t28 -274.5q0 -113 -20.5 -214t-60.5 -185t-99.5 -148.5t-139.5 -103.5l315 -84q-16 -35 -28 -73t-27 -72q-117 39 -230.5 76.5t-230.5 78.5l-61 8q-162 10 -275.5 60.5 t-186.5 139.5t-105.5 218t-32.5 295zM301 686q0 -281 99.5 -426t322.5 -145q104 0 180 45t125 122.5t72.5 182t23.5 225.5q0 102 -15 209t-58 194t-122 142t-206 55t-209 -51t-129 -136t-65.5 -193.5t-18.5 -223.5z" />
<glyph unicode="R" horiz-adv-x="1202" d="M164 0v1403h481q207 0 312.5 -106.5t105.5 -280.5q0 -125 -62.5 -226.5t-185.5 -136.5q82 -25 119 -93t61 -154l115 -406h-174l-111 385q-20 68 -45.5 112t-57.5 69.5t-73 34.5t-92 9h-221v-610h-172zM336 743h282q41 0 88.5 10.5t87.5 40t65.5 81t25.5 133.5 q0 70 -20.5 120t-57.5 80.5t-86 45t-107 14.5h-278v-525z" />
<glyph unicode="S" horiz-adv-x="1173" d="M102 92l60 127q125 -59 221 -77.5t174 -18.5q160 0 249 56.5t89 205.5q0 63 -22.5 105t-63.5 70t-96.5 47.5t-118.5 35.5q-92 25 -176 51.5t-148.5 67.5t-102.5 104.5t-38 161.5q0 94 35 168t96.5 125t146.5 77.5t187 26.5q88 0 191.5 -17t193.5 -71l-55 -123 q-100 45 -184.5 58.5t-153.5 13.5q-123 0 -201 -62.5t-78 -191.5q0 -57 26.5 -96t72 -64.5t100.5 -43t115 -31.5q76 -18 155.5 -42t145 -68t107.5 -115.5t42 -186.5q0 -104 -38 -180t-106.5 -125t-163.5 -72.5t-208 -23.5q-111 0 -229.5 24.5t-223.5 83.5z" />
<glyph unicode="T" horiz-adv-x="1153" d="M41 1266v137h1071v-137h-448l-2 -1266h-170v1266h-451z" />
<glyph unicode="U" horiz-adv-x="1361" d="M147 504v899h172v-901q0 -193 94.5 -289t268.5 -96t269.5 95t95.5 290l-3 901h173v-899q0 -117 -33 -213t-99.5 -165t-167 -105.5t-237.5 -36.5q-281 0 -407 138t-126 382z" />
<glyph unicode="V" horiz-adv-x="1134" d="M20 1403h185l280 -938l80 -285h10l82 287l277 936h180l-444 -1403h-205z" />
<glyph unicode="W" horiz-adv-x="1714" d="M20 1401h181q47 -209 94 -417t96 -417q18 -88 38 -178t40 -178h10l74 334q25 115 49.5 221t48 210.5l47 209t47.5 215.5h185l225 -846q4 -12 16.5 -57t26.5 -100.5t28.5 -107.5t20.5 -77h13q20 92 40.5 186.5t38.5 186.5q45 205 90.5 407.5t92.5 407.5h172 q-88 -379 -175 -730.5t-165 -670.5h-205q-55 215 -110.5 416.5t-112.5 423.5q-20 78 -39 153.5t-41 153.5l-15 2q-16 -78 -33.5 -156t-33.5 -155q-4 -23 -52 -232t-137 -606h-210z" />
<glyph unicode="X" horiz-adv-x="1140" d="M16 0l449 729q-104 168 -208.5 336t-211.5 336h197q84 -141 165.5 -280.5t167.5 -280.5l338 561h195q-111 -172 -218.5 -340t-215.5 -340l448 -721h-192q-92 152 -183.5 302.5t-183.5 303.5l-356 -606h-191z" />
<glyph unicode="Y" horiz-adv-x="1097" d="M20 1403h183l192 -369l144 -284h8l155 297l195 356h178l-442 -789v-614h-182v606z" />
<glyph unicode="Z" horiz-adv-x="1089" d="M45 0v131l750 1133h-699v139h914v-131l-752 -1131l789 -2v-139h-1002z" />
<glyph unicode="[" horiz-adv-x="532" d="M111 -328v1755h350v-110h-199v-1532h199v-113h-350z" />
<glyph unicode="\" horiz-adv-x="681" d="M31 1436h108l527 -1493h-113z" />
<glyph unicode="]" horiz-adv-x="532" d="M68 -215h198v1532h-198v110h348v-1755h-348v113z" />
<glyph unicode="^" horiz-adv-x="907" d="M43 780q92 154 179 307.5t179 307.5h99l352 -615h-127l-276 486q-66 -119 -139.5 -244t-139.5 -242h-127z" />
<glyph unicode="_" horiz-adv-x="1024" d="M0 -174h1024v-96h-1024v96z" />
<glyph unicode="`" horiz-adv-x="997" d="M270 1380l123 117l252 -332l-78 -69z" />
<glyph unicode="a" horiz-adv-x="1085" d="M86 270q0 131 93 210t286 91l256 17v63q0 125 -45 176.5t-170 51.5q-74 0 -154 -14.5t-155 -41.5l-37 113q86 39 188.5 59.5t196.5 20.5q158 0 248 -74t90 -258v-559h135l10 -98q-37 -18 -85 -29.5t-89 -11.5q-59 0 -92 24.5t-37 102.5l-2 2q-57 -49 -110.5 -76 t-97.5 -39t-80 -14t-58 -2q-86 0 -142.5 28.5t-89 71.5t-46 93t-13.5 93zM264 287q0 -88 43 -131t142 -43q66 0 134 33.5t138 97.5v233l-256 -16q-102 -4 -151.5 -51.5t-49.5 -122.5z" />
<glyph unicode="b" horiz-adv-x="1067" d="M119 76v1380h168v-293l-6 -219l10 -8q88 49 162.5 68.5t138.5 19.5q109 0 181.5 -40t115.5 -110.5t61.5 -168t18.5 -209.5q0 -104 -21.5 -197.5t-72 -162t-133.5 -109.5t-205 -41q-102 0 -211 22.5t-207 67.5zM287 164q63 -29 124.5 -38t114.5 -9q63 0 113.5 18.5 t85.5 62.5t53.5 115.5t18.5 178.5q0 119 -17.5 195.5t-49.5 120.5t-76 60.5t-95 16.5q-72 0 -144.5 -25.5t-127.5 -58.5v-637z" />
<glyph unicode="c" horiz-adv-x="933" d="M98 487q0 80 18.5 173.5t69 174t139.5 134t230 53.5q68 0 139.5 -9t149.5 -42l-39 -121q-72 25 -129.5 31t-106.5 6q-145 0 -222 -104.5t-77 -278.5q0 -84 14.5 -153.5t47.5 -122t88 -81t139 -28.5q78 0 145.5 16.5t143.5 46.5l45 -110q-66 -35 -157 -59.5t-191 -24.5 q-125 0 -211 37.5t-138.5 105.5t-75 159t-22.5 197z" />
<glyph unicode="d" horiz-adv-x="1069" d="M98 481q0 115 21.5 213.5t70 171t126 114.5t188.5 42q29 0 64.5 -4t72.5 -13.5t73 -22.5t66 -34v508h168v-1456h-164v94l-4 4q-61 -51 -144 -80.5t-163 -29.5q-109 0 -180.5 40t-114.5 107.5t-61.5 156.5t-18.5 189zM270 479q0 -104 18.5 -173.5t50.5 -111.5t78 -59.5 t101 -17.5q31 0 69 9t74.5 24.5t68.5 33t50 35.5v598q-16 12 -44.5 24.5t-63.5 24t-73 17.5t-71 6q-53 0 -99 -19.5t-82 -66.5t-56.5 -126t-20.5 -198z" />
<glyph unicode="e" horiz-adv-x="1034" d="M98 498q0 45 6.5 101t23.5 113.5t48 114t80 99.5t118 69.5t163 26.5q100 0 168.5 -26.5t113.5 -69.5t69.5 -96.5t36 -106.5t13.5 -100.5t2 -77.5v-80h-670q0 -70 12.5 -133.5t45 -111.5t88 -76.5t139.5 -28.5q88 0 160.5 18.5t158.5 52.5l41 -106q-90 -47 -181 -69.5 t-191 -22.5q-133 0 -219 41t-136.5 109.5t-70 161.5t-19.5 198zM272 573h510q0 72 -12 132.5t-40 103.5t-73.5 66.5t-115.5 23.5q-72 0 -121 -26.5t-81 -71.5t-47.5 -104.5t-19.5 -123.5z" />
<glyph unicode="f" horiz-adv-x="747" d="M78 879v90l141 37v161q0 150 81 229t241 79q43 0 99 -5.5t110 -19.5l-23 -121q-37 6 -78 10t-74 4q-96 0 -145 -37.5t-49 -136.5v-168h293v-122h-293l-2 -879h-162v879h-139z" />
<glyph unicode="g" horiz-adv-x="1124" d="M90 -150q0 86 44 147.5t89 86.5q-59 12 -91 49t-32 96q0 45 14.5 75t38 50.5t51 30.5t52.5 16l4 7q-51 29 -91 89t-40 167q0 96 35 164.5t92 111.5t129 63.5t143 20.5q51 0 99.5 -5t91.5 -20h323v-106h-155l-4 -10q35 -37 52 -93.5t17 -117.5q0 -82 -31.5 -145.5 t-87 -107.5t-132 -66.5t-169.5 -22.5h-110q-74 0 -118 -14.5t-44 -61.5q0 -33 28.5 -50.5t76.5 -17.5h262q184 0 282.5 -77.5t98.5 -225.5q0 -74 -34 -134t-97.5 -103t-154.5 -65.5t-204 -22.5q-129 0 -212 24.5t-131 65.5t-66.5 93t-18.5 109zM254 -121q0 -39 11 -74.5 t44 -63.5t88.5 -44t145.5 -16q143 0 220 54t77 144q0 31 -8.5 63.5t-34 59.5t-72.5 43t-123 16h-227q-20 -6 -42 -24.5t-39.5 -44t-28.5 -55t-11 -58.5zM299 672q0 -102 59.5 -162.5t159.5 -60.5q57 0 105.5 13t83 40.5t55 70t20.5 99.5q0 39 -11 80t-40 73.5t-76 53 t-116 20.5q-119 0 -179.5 -59.5t-60.5 -167.5z" />
<glyph unicode="h" horiz-adv-x="1052" d="M119 0v1456h166v-323l-6 -213l16 -9q92 47 187.5 79t162.5 32q102 0 159.5 -29.5t86.5 -76t35 -103.5t6 -113v-700h-166v659q0 51 -5 93.5t-22.5 72t-52.5 45t-94 15.5q-72 0 -156 -31t-149 -68v-786h-168z" />
<glyph unicode="i" horiz-adv-x="520" d="M150 1262q0 47 32.5 78.5t75.5 31.5q47 0 80 -31.5t33 -78.5q0 -43 -33 -76t-80 -33q-43 0 -75.5 33t-32.5 76zM174 0v999h166v-999h-166z" />
<glyph unicode="j" horiz-adv-x="542" d="M-49 -332q74 43 121 79t73.5 76t37 89t10.5 115v972h165v-373.5v-260v-169v-100.5t-1 -55t-1 -33q-4 -92 -22.5 -160.5t-60.5 -121t-108.5 -93.5t-164.5 -77q-14 29 -25.5 56.5t-23.5 55.5zM170 1262q0 47 31.5 78.5t77.5 31.5q45 0 77.5 -31.5t32.5 -78.5 q0 -45 -32.5 -77t-77.5 -32t-77 32t-32 77z" />
<glyph unicode="k" horiz-adv-x="927" d="M119 0v1454h168v-635l-8 -227l14 -6q100 104 202.5 206.5t202.5 206.5h189q-94 -98 -192.5 -196t-194.5 -197q16 -23 33.5 -42t33.5 -42l351 -522h-185q-86 127 -168 253t-166 253l-112 -113v-393h-168z" />
<glyph unicode="l" horiz-adv-x="466" d="M150 0v1456h165l-2 -1456h-163z" />
<glyph unicode="m" horiz-adv-x="1656" d="M119 0v999h162l2 -90l8 -6q84 55 172 85t166 30q80 0 141 -28.5t100 -92.5q37 25 81 47.5t92.5 39.5t96.5 26.5t91 9.5q106 0 166.5 -32t91.5 -80t39 -107.5t8 -114.5v-686h-168v659q0 53 -7 95.5t-26.5 71t-55.5 43t-93 14.5q-33 0 -72 -7.5t-78 -18.5t-74.5 -27.5 t-64.5 -34.5q8 -35 10 -72t2 -64v-659h-166v692q0 98 -44 143.5t-117 45.5q-74 0 -153 -28t-144 -69v-784h-166z" />
<glyph unicode="n" horiz-adv-x="1052" d="M119 0v999h164l2 -86l6 -4q84 53 180 83t168 30q102 0 160.5 -29.5t88.5 -76t37 -103.5t7 -113v-700h-166v659q0 51 -5 93.5t-22.5 72t-52.5 45t-94 15.5q-72 0 -156 -31t-149 -68v-786h-168z" />
<glyph unicode="o" horiz-adv-x="1081" d="M98 494q0 100 24.5 194t78 168t139.5 119t209 45q125 0 209 -45t134 -118t70.5 -167t20.5 -192q0 -96 -21.5 -188.5t-73.5 -165t-140.5 -116.5t-219.5 -44q-123 0 -205.5 42t-132 111.5t-71 161.5t-21.5 195zM272 494q0 -74 10.5 -143.5t40 -122t84 -84t142.5 -31.5 q82 0 132 33.5t78.5 89t39 123t10.5 135.5t-9 137t-38 127.5t-80 95.5t-133 37q-84 0 -137.5 -36t-84 -92t-43 -128t-12.5 -141z" />
<glyph unicode="p" horiz-adv-x="1067" d="M119 -426v1425h162l2 -88l10 -8q61 49 140 79t159 30q106 0 179 -40t116 -108.5t61.5 -160t18.5 -191.5q0 -111 -21.5 -207t-69 -167.5t-124 -113.5t-187.5 -42q-29 0 -64.5 3t-73.5 10t-75 20.5t-67 35.5v-477h-166zM287 178q16 -12 44.5 -24.5t62.5 -23.5t71 -17.5 t72 -6.5q53 0 100 19.5t83 68t56.5 127t20.5 195.5q0 104 -18.5 173t-51.5 110t-79 58t-101 17q-31 0 -69 -9t-74.5 -24.5t-67.5 -32.5t-49 -36v-594z" />
<glyph unicode="q" horiz-adv-x="1069" d="M100 463q0 111 21.5 211t72 176t135.5 120t214 44q109 0 212 -23.5t193 -64.5q0 -340 -1 -677t-1 -675h-164v262v107.5t2 107.5l-16 8q-86 -47 -155.5 -64.5t-129.5 -17.5q-109 0 -181.5 36t-117.5 100.5t-64.5 153.5t-19.5 196zM270 496q0 -113 17.5 -186.5t48.5 -118 t75 -61.5t97 -17q72 0 144.5 25.5t127.5 56.5v645q-59 27 -117.5 36t-111.5 9q-125 0 -201 -91.5t-80 -297.5z" />
<glyph unicode="r" horiz-adv-x="718" d="M141 0v999h164l-6 -133l12 -8q37 33 82 62.5t92 52t92.5 37t84.5 14.5q23 0 37 -10t14 -41q0 -12 -5.5 -32.5t-12.5 -42t-17 -42t-23 -35.5q-86 -10 -173 -21.5t-173 -21.5v-778h-168z" />
<glyph unicode="s" horiz-adv-x="913" d="M80 66l53 114q96 -43 176 -55t133 -12q47 0 89 8t73 26.5t48.5 49t17.5 75.5q0 39 -17.5 67t-47.5 47.5t-68.5 33.5t-81.5 29q-66 23 -126.5 45t-107.5 54t-75.5 77t-28.5 114q0 72 28.5 125.5t77.5 88t114.5 51t141.5 16.5q31 0 70 -4t79 -12.5t78.5 -21.5t71.5 -34 l-51 -117q-78 31 -137.5 42.5t-112.5 11.5q-39 0 -75.5 -7.5t-64.5 -24.5t-45.5 -46t-17.5 -70q0 -33 21.5 -56.5t54.5 -41.5t70 -30.5t67 -22.5q63 -20 125 -42t111 -55.5t78.5 -84t29.5 -130.5q0 -76 -29.5 -130t-81.5 -89t-125 -51t-159 -16q-45 0 -93 5t-95 14t-91 24.5 t-77 34.5z" />
<glyph unicode="t" horiz-adv-x="729" d="M41 879v88l154 47l51 221l106 18v-254h301v-120h-303v-592q0 -72 28 -118t111 -46q68 0 189 35l27 -113q-55 -27 -122 -41t-128 -14q-268 0 -269 246v643h-145z" />
<glyph unicode="u" horiz-adv-x="1032" d="M119 297v702h166v-661q0 -53 5 -94t22.5 -70t51 -44t93.5 -15q57 0 138 30.5t153 96.5v757q41 0 81.5 1t81.5 1v-1001h-161l-2 113l-5 4q-49 -43 -98 -71t-93 -43t-80.5 -20.5t-63.5 -5.5q-102 0 -160 29t-86.5 75t-35.5 103.5t-7 112.5z" />
<glyph unicode="v" horiz-adv-x="948" d="M18 997h170q41 -131 85 -257t85 -255q29 -86 56.5 -178t56.5 -178h10q6 14 17.5 53t27 91.5t35 114t39.5 124.5l162 485h168l-361 -997h-200z" />
<glyph unicode="w" horiz-adv-x="1474" d="M18 999h168l142 -516l78 -317h10l84 330l143 503h162l166 -526l86 -307h12l74 305l143 528h168l-297 -999h-182l-146 463l-100 354h-10l-92 -354l-133 -463h-183z" />
<glyph unicode="x" horiz-adv-x="884" d="M8 0l336 522q-78 119 -152.5 238t-152.5 239h186q55 -92 108.5 -185t108.5 -185q57 92 110.5 185t111.5 185h184q-78 -121 -156 -237.5t-155 -235.5q86 -133 168.5 -263t168.5 -263h-186q-61 104 -122.5 208.5t-125.5 209.5q-66 -104 -126 -209t-126 -209h-180z" />
<glyph unicode="y" horiz-adv-x="942" d="M20 -406l27 117q55 -12 91 -17t71 -5q59 0 98 28.5t66 110.5l57 178h-80l-313 993h162l204 -686q20 -66 34 -123t22 -86h10l63 213q20 68 47 152t55 173t56.5 180t57.5 177h170q-47 -143 -96.5 -292.5t-99.5 -300t-100.5 -299t-97.5 -289.5q-37 -119 -104.5 -188.5 t-183.5 -69.5q-23 2 -73 5t-143 29z" />
<glyph unicode="z" horiz-adv-x="841" d="M25 0v104l559 758l-6 15h-492v122h711v-108l-557 -756l6 -12h573v-123h-794z" />
<glyph unicode="{" horiz-adv-x="542" d="M59 557v92q74 14 105 76.5t31 140.5v232q0 43 2 101t18 111.5t53 90.5t107 37h121v-111h-47q-55 0 -79 -38t-24 -97v-332q0 -41 -5 -82t-18.5 -74.5t-37 -59.5t-62.5 -38q45 -25 69.5 -54.5t37 -67.5t14.5 -86t2 -109v-391q0 -55 17.5 -94.5t76.5 -39.5h56v-110h-107 q-70 0 -108.5 27.5t-58 67.5t-23.5 84t-4 77v432q0 31 -4.5 64.5t-18.5 64.5t-41 54.5t-72 31.5z" />
<glyph unicode="|" horiz-adv-x="497" d="M182 -285v1719h119v-1719h-119z" />
<glyph unicode="}" horiz-adv-x="542" d="M49 -236h55q59 0 77 39t18 95v391q0 61 2 109t14 86t36.5 68t70.5 54q-39 12 -62.5 38t-37 59.5t-18.5 74.5t-5 82v332q0 59 -23.5 97t-79.5 38h-47v111h121q70 0 106.5 -37t53 -90.5t18.5 -111.5t2 -101v-232q0 -78 31 -140t104 -77v-92q-45 -8 -71.5 -31.5t-41 -54.5 t-18.5 -64.5t-4 -64.5v-432q0 -33 -4 -77t-23.5 -84t-58.5 -67.5t-108 -27.5h-107v110z" />
<glyph unicode="~" horiz-adv-x="1142" d="M154 563q35 80 95 127t138 47q47 0 104.5 -15t116 -32.5t111.5 -33t94 -15.5l139 98l68 -55q-33 -78 -92.5 -128t-139.5 -50q-61 0 -117.5 15.5t-108.5 32.5t-99 32.5t-90 15.5l-150 -96z" />
<glyph unicode="&#xa1;" horiz-adv-x="460" d="M121 907q0 45 31.5 77t78.5 32q43 0 75 -32t32 -77q0 -43 -31 -73.5t-78 -30.5t-77.5 30.5t-30.5 73.5zM147 -430q4 133 6.5 264t6.5 264q4 137 8 273.5t10 273.5h111q4 -166 8 -330.5t8 -330.5q0 -18 2 -79t3 -129.5t2 -128t1 -77.5h-166z" />
<glyph unicode="&#xa2;" horiz-adv-x="1142" d="M172 487q0 76 16.5 164t60.5 166t123 134.5t201 68.5v188h93v-186q59 -2 121.5 -12.5t130.5 -38.5l-39 -121q-66 23 -117 29t-96 8v-768q68 4 128 19.5t128 43.5l45 -110q-57 -33 -136 -55.5t-165 -26.5v-164h-93v164q-113 6 -189.5 46t-123.5 106.5t-67.5 154.5 t-20.5 190zM344 504q0 -76 11.5 -140.5t38 -114.5t70.5 -83t109 -43v756q-113 -25 -171 -124t-58 -251z" />
<glyph unicode="&#xa3;" horiz-adv-x="1142" d="M123 0l2 123q47 20 76.5 59t47 87t26 102.5t10.5 103.5l8 162h-137v108h143l10 220q6 86 29.5 161.5t72 131t121 87t175.5 31.5q45 0 91 -5t91 -14t84 -21.5t69 -26.5l-49 -125q-86 37 -154.5 46t-119.5 9q-74 0 -121 -20.5t-75.5 -58.5t-41 -90t-16.5 -116l-10 -209h379 v-108h-385l-9 -166q-2 -49 -8 -101.5t-18.5 -98.5t-32 -85t-45.5 -61h694v-125h-907z" />
<glyph unicode="&#xa4;" horiz-adv-x="1126" d="M119 268l131 125q-47 59 -63.5 118.5t-16.5 113.5q0 61 18.5 122.5t61.5 112.5l-129 131l76 78l131 -131q102 80 235 80q125 0 234 -80l129 131l80 -80l-134 -127q41 -55 59.5 -112.5t18.5 -120.5q0 -66 -20.5 -124.5t-57.5 -111.5l134 -123l-80 -82l-131 129 q-55 -45 -113.5 -61t-118.5 -16q-61 0 -118.5 16t-114.5 61l-133 -131zM287 627q0 -57 21.5 -106.5t58 -86.5t87 -58.5t107.5 -21.5q55 0 104.5 21.5t87.5 58.5t59.5 86t21.5 107q0 55 -21.5 105t-58.5 87t-87.5 58.5t-105.5 21.5q-57 0 -107.5 -21.5t-87 -58.5t-58 -87 t-21.5 -105z" />
<glyph unicode="&#xa5;" horiz-adv-x="1142" d="M86 1360h174l180 -389l123 -264h8q33 66 64 131t61 131l187 391h168l-353 -688h291v-82h-846v82h285q-86 174 -171 344t-171 344zM143 403v84h846v-84h-340v-403h-170v403h-336z" />
<glyph unicode="&#xa6;" horiz-adv-x="497" d="M182 -285v783h119v-783h-119zM182 700v734h119v-734h-119z" />
<glyph unicode="&#xa7;" horiz-adv-x="966" d="M119 647q0 76 37 145.5t114 125.5q-68 47 -98.5 96t-30.5 116q0 78 29 136.5t80 98.5t120.5 59.5t151.5 19.5q98 0 174 -14.5t129 -36.5l-39 -113q-84 27 -148.5 35t-117.5 8q-92 0 -159.5 -43t-67.5 -137q0 -43 30.5 -77t79 -62.5t105.5 -54t110 -50.5q43 -20 85 -45 t75 -57.5t53.5 -73.5t20.5 -94q0 -72 -29.5 -138.5t-111.5 -134.5q51 -31 80.5 -65.5t46 -68.5t21.5 -64.5t5 -51.5q0 -84 -32.5 -144t-89 -100t-131 -59.5t-158.5 -19.5q-102 0 -178 17.5t-136 35.5l33 111q94 -31 161.5 -40t121.5 -9q127 0 190.5 52t63.5 142 q0 72 -50.5 116t-136.5 85q-68 31 -138.5 60.5t-129.5 68.5t-97 92t-38 133zM268 682q0 -61 31 -100t80 -66t110.5 -50.5t120.5 -53.5q47 47 73 98t26 86q0 57 -32 96t-81 67.5t-107.5 52.5t-113.5 52q-51 -41 -79 -85t-28 -97z" />
<glyph unicode="&#xa8;" horiz-adv-x="962" d="M203 1235q0 39 28.5 64.5t63.5 25.5q43 0 69.5 -24.5t26.5 -65.5q0 -39 -26.5 -64.5t-67.5 -25.5t-67.5 25.5t-26.5 64.5zM588 1235q0 39 26.5 64.5t61.5 25.5q43 0 71.5 -24.5t28.5 -65.5q0 -39 -28.5 -64.5t-71.5 -25.5q-39 0 -63.5 25.5t-24.5 64.5z" />
<glyph unicode="&#xa9;" horiz-adv-x="1710" d="M102 682q0 154 59.5 289t162 236.5t238.5 159.5t292 58q154 0 291 -58t240.5 -159.5t163 -236.5t59.5 -289t-59.5 -290t-163 -237.5t-240.5 -159.5t-291 -58q-156 0 -292 58t-238.5 159.5t-162 237.5t-59.5 290zM190 682q0 -135 52.5 -255t143.5 -209t212 -140t256 -51 q137 0 259 51t211 140t141.5 209t52.5 255t-52.5 255t-141.5 209t-211 140t-259 51q-135 0 -256 -51t-212 -140t-143.5 -209t-52.5 -255zM434 666q0 80 19.5 173t69.5 170.5t136 130t222 52.5q86 0 147.5 -12.5t104.5 -28.5l-27 -98q-59 23 -114.5 28.5t-102.5 5.5 q-162 0 -243 -112t-81 -309q0 -86 14.5 -160t51.5 -128t100.5 -85t159.5 -31q20 0 50 2t62.5 6t65.5 10.5t61 14.5l23 -92q-51 -20 -132 -33.5t-153 -13.5q-121 0 -202.5 36.5t-134 104.5t-75 161t-22.5 208z" />
<glyph unicode="&#xaa;" horiz-adv-x="712" d="M41 731q0 74 40 115t102.5 61.5t138 25.5t145.5 7v35q0 78 -27.5 106.5t-105.5 28.5q-96 0 -213 -41q-6 23 -15.5 47.5t-17.5 46.5q63 29 135 43.5t139 14.5q113 0 175.5 -50.5t62.5 -177.5v-342h92l8 -88q-29 -12 -66.5 -18t-66.5 -6q-35 0 -61.5 14t-36.5 55 q-70 -53 -127 -63t-86 -10q-63 0 -105 19t-67 48t-34 63.5t-9 65.5zM184 741q0 -51 27 -77.5t86 -26.5q35 0 84 20.5t86 49.5v147q-53 0 -103.5 -4t-90.5 -15.5t-64.5 -33t-24.5 -60.5z" />
<glyph unicode="&#xab;" horiz-adv-x="886" d="M123 346v80l299 326l70 -54l-207 -313l207 -311l-68 -51zM424 346v80l301 326l70 -54l-207 -313l207 -311l-68 -51z" />
<glyph unicode="&#xac;" horiz-adv-x="1142" d="M182 553v119h793v-463h-125v344h-668z" />
<glyph unicode="&#xad;" horiz-adv-x="749" d="M111 471v139h528v-139h-528z" />
<glyph unicode="&#xae;" horiz-adv-x="1189" d="M88 965q0 102 39 191t105.5 155.5t157.5 105.5t196 39q102 0 192 -39t158 -105.5t106.5 -155.5t38.5 -191t-38.5 -191.5t-106.5 -155t-158 -104.5t-192 -39q-104 0 -194.5 39t-158 104.5t-106.5 154.5t-39 192zM162 965q0 -86 32.5 -163t90 -133.5t134.5 -90t167 -33.5 t167.5 33.5t134 90t88.5 133.5t32 163t-33 162.5t-89.5 134t-134 91t-165.5 33.5t-166 -33.5t-135.5 -91t-90 -134t-32.5 -162.5zM410 672v598h204q86 0 137.5 -41t51.5 -127q0 -39 -25.5 -87t-85.5 -73l125 -270h-98l-115 258h-104v-258h-90zM500 995h106q41 0 74 21t33 84 q0 57 -32 80.5t-73 23.5h-108v-209z" />
<glyph unicode="&#xaf;" horiz-adv-x="1030" d="M172 1212v131h674v-131h-674z" />
<glyph unicode="&#xb0;" horiz-adv-x="710" d="M90 1102q0 55 21.5 105t59.5 88t88 60.5t108 22.5q57 0 107 -22.5t87 -60.5t57.5 -88t20.5 -105q0 -57 -20.5 -107.5t-57.5 -87.5t-87 -57.5t-107 -20.5q-63 0 -114.5 20.5t-87.5 57.5t-55.5 86t-19.5 109zM190 1100q0 -72 50.5 -123t124.5 -51q35 0 66.5 13t56 36.5 t39 55.5t14.5 69q0 76 -52.5 128t-123.5 52q-74 0 -124.5 -52t-50.5 -128z" />
<glyph unicode="&#xb1;" horiz-adv-x="1142" d="M182 0v109h791v-109h-791zM182 549v121h334v321h125v-321h332v-121h-332v-332h-125v332h-334z" />
<glyph unicode="&#xb2;" horiz-adv-x="745" d="M37 1462q86 59 162.5 76.5t130.5 17.5q129 0 208.5 -56t79.5 -173q0 -68 -37.5 -136.5t-94 -132t-122 -120.5t-120.5 -102q104 0 205.5 -1t203.5 -1v-107h-608v92q68 51 143.5 118t140 136.5t106.5 134t42 111.5q0 66 -45 94.5t-119 28.5q-31 0 -85 -10.5t-138 -57.5z " />
<glyph unicode="&#xb3;" horiz-adv-x="745" d="M45 770l35 100q92 -29 149.5 -32.5t94.5 -3.5q88 0 143 40.5t55 118.5q0 74 -62.5 105.5t-154.5 31.5q-45 0 -94 -6l-27 74l250 229l-4 11h-348v106h539l20 -78q-23 -18 -45.5 -39.5t-52 -49t-67.5 -62.5t-89 -84q55 -4 105.5 -20.5t88 -45t59.5 -71.5t22 -101 q0 -66 -28 -117t-73 -85.5t-104.5 -53t-122.5 -18.5q-84 0 -154.5 11t-134.5 40z" />
<glyph unicode="&#xb4;" horiz-adv-x="1007" d="M397 1159l252 332l119 -111l-297 -284z" />
<glyph unicode="&#xb6;" horiz-adv-x="1073" d="M88 1036q0 78 27.5 147.5t78 122t119 83t148.5 30.5h422v-1816h-121v1695h-139l2 -1695h-125v1063h-39q-80 0 -148.5 28.5t-118 77.5t-78 116.5t-28.5 147.5z" />
<glyph unicode="&#xb7;" horiz-adv-x="419" d="M104 586q0 47 32 77.5t79 30.5q45 0 77 -30.5t32 -77.5t-33 -79t-76 -32q-45 0 -78 33t-33 78z" />
<glyph unicode="&#xb8;" horiz-adv-x="915" d="M319 -426q111 10 176.5 39t65.5 82q0 27 -18.5 44t-48 25.5t-66.5 11.5t-74 3l-26 39q51 66 99 129t99 127q16 -10 32 -19.5t32 -19.5q-31 -39 -63.5 -81t-63.5 -83q100 -4 161.5 -44t61.5 -118q0 -86 -89 -147.5t-278 -61.5v74z" />
<glyph unicode="&#xb9;" horiz-adv-x="745" d="M88 1475l242 69h119v-817h-138v686l-205 -29z" />
<glyph unicode="&#xba;" horiz-adv-x="722" d="M51 877q0 66 17.5 128t54.5 110t97.5 78t146.5 30q88 0 146 -30t94 -78t50.5 -110t14.5 -128q0 -63 -15.5 -125t-52.5 -109t-98.5 -76.5t-153.5 -29.5q-86 0 -143 27.5t-93 74.5t-50.5 108.5t-14.5 129.5zM190 874q0 -45 6.5 -87t25 -73.5t53 -51t92.5 -19.5 q51 0 83.5 20.5t51 54.5t26 76t7.5 83q0 39 -6.5 81.5t-25 77.5t-51 58.5t-85.5 23.5t-87 -22.5t-54.5 -57t-28 -77.5t-7.5 -87z" />
<glyph unicode="&#xbb;" horiz-adv-x="886" d="M104 74l207 311l-207 313l70 54l299 -326v-80l-301 -323zM408 74l204 311l-204 313l69 54l299 -326v-80l-301 -323z" />
<glyph unicode="&#xbc;" horiz-adv-x="1679" d="M184 1290l242 70h119v-817h-137v686l-205 -29zM467 -45l602 1481h111l-598 -1481h-115zM858 225v92l418 500h131v-487h127v-105h-127v-227h-133v227h-416zM1006 330h270v323h-8z" />
<glyph unicode="&#xbd;" horiz-adv-x="1679" d="M147 1290l242 70h119v-817h-137v686l-205 -29zM426 -45l602 1481h111l-598 -1481h-115zM946 735q86 59 163 76.5t130 17.5q129 0 209 -56t80 -173q0 -68 -38 -136.5t-94.5 -132t-122 -120.5t-120.5 -102q104 0 205.5 -1.5t204.5 -1.5v-106h-609v92q68 51 144 117.5 t140.5 136.5t106 134.5t41.5 111.5q0 66 -45 94.5t-118 28.5q-31 0 -85.5 -10.5t-138.5 -57.5z" />
<glyph unicode="&#xbe;" horiz-adv-x="1679" d="M98 586l35 100q92 -29 149.5 -33t94.5 -4q88 0 143 41t55 119q0 74 -62 105.5t-155 31.5q-45 0 -94 -6l-26 74l249 229l-4 10h-348v107h539l20 -78q-23 -18 -45 -39.5t-52 -49.5t-67.5 -62.5t-89.5 -83.5q55 -4 105.5 -20.5t88.5 -45.5t59.5 -72t21.5 -100 q0 -66 -28 -117t-73 -86t-104 -53t-123 -18q-84 0 -154.5 11t-134.5 40zM524 -45l602 1481h111l-598 -1481h-115zM924 225v92l417 500h132v-487h126v-105h-126v-227h-134v227h-415zM1071 330h270v323h-8z" />
<glyph unicode="&#xbf;" horiz-adv-x="903" d="M84 -170q0 98 53 175t127 136q68 53 117 98.5t81 85.5t48 79.5t16 82.5q0 35 -5 69t-11 79l135 18q25 -121 25 -186q0 -57 -18.5 -105.5t-52.5 -95.5t-82 -95t-109 -103q-68 -53 -106 -101.5t-38 -116.5q0 -86 61.5 -123.5t159.5 -37.5q63 0 139 9t185 44l37 -123 q-98 -35 -195.5 -51.5t-175.5 -16.5q-193 0 -290 75t-101 204zM434 907q0 45 32 77t75 32q47 0 78.5 -32t31.5 -77q0 -43 -31.5 -73.5t-76.5 -30.5t-77 30.5t-32 73.5z" />
<glyph unicode="&#xc0;" horiz-adv-x="1185" d="M20 0q125 381 242 731t221 672h222l458 -1403h-182q-29 92 -57.5 183t-57.5 184h-553q-29 -92 -57.5 -183.5t-56.5 -183.5h-179zM299 1778l123 112l252 -329l-80 -68zM356 500h469q-47 156 -94 312.5t-96 309.5l-41 138h-6l-41 -140q-23 -76 -45.5 -148.5t-45 -147 t-47 -154.5t-53.5 -170z" />
<glyph unicode="&#xc1;" horiz-adv-x="1185" d="M20 0q125 381 242 731t221 672h222l458 -1403h-182q-29 92 -57.5 183t-57.5 184h-553q-29 -92 -57.5 -183.5t-56.5 -183.5h-179zM356 500h469q-47 156 -94 312.5t-96 309.5l-41 138h-6l-41 -140q-23 -76 -45.5 -148.5t-45 -147t-47 -154.5t-53.5 -170zM530 1556l252 330 l123 -108l-297 -285z" />
<glyph unicode="&#xc2;" horiz-adv-x="1185" d="M20 0q125 381 242 731t221 672h222l458 -1403h-182q-29 92 -57.5 183t-57.5 184h-553q-29 -92 -57.5 -183.5t-56.5 -183.5h-179zM225 1550l307 283h113l311 -279l-51 -59l-317 182l-316 -184zM356 500h469q-47 156 -94 312.5t-96 309.5l-41 138h-6l-41 -140 q-23 -76 -45.5 -148.5t-45 -147t-47 -154.5t-53.5 -170z" />
<glyph unicode="&#xc3;" horiz-adv-x="1185" d="M20 0q125 381 242 731t221 672h222l458 -1403h-182q-29 92 -57.5 183t-57.5 184h-553q-29 -92 -57.5 -183.5t-56.5 -183.5h-179zM268 1606q25 70 72 111.5t106 41.5q37 0 77 -12t79 -27.5t75 -28t64 -12.5l117 82l57 -45q-23 -70 -70 -112.5t-106 -42.5q-47 0 -88 12 t-77.5 27.5t-69.5 27.5t-62 12l-116 -79zM356 500h469q-47 156 -94 312.5t-96 309.5l-41 138h-6l-41 -140q-23 -76 -45.5 -148.5t-45 -147t-47 -154.5t-53.5 -170z" />
<glyph unicode="&#xc4;" horiz-adv-x="1185" d="M20 0q125 381 242 731t221 672h222l458 -1403h-182q-29 92 -57.5 183t-57.5 184h-553q-29 -92 -57.5 -183.5t-56.5 -183.5h-179zM303 1579q0 37 27.5 63.5t62.5 26.5q43 0 71 -24.5t28 -65.5t-27 -65.5t-68 -24.5t-67.5 24.5t-26.5 65.5zM356 500h469q-47 156 -94 312.5 t-96 309.5l-41 138h-6l-41 -140q-23 -76 -45.5 -148.5t-45 -147t-47 -154.5t-53.5 -170zM688 1579q0 37 25.5 63.5t60.5 26.5q43 0 71.5 -24.5t28.5 -65.5t-28.5 -65.5t-71.5 -24.5q-37 0 -61.5 24.5t-24.5 65.5z" />
<glyph unicode="&#xc5;" horiz-adv-x="1185" d="M20 0q125 381 242 731t221 672h222l458 -1403h-182q-29 92 -57.5 183t-57.5 184h-553q-29 -92 -57.5 -183.5t-56.5 -183.5h-179zM356 500h469q-47 156 -94 312.5t-96 309.5l-41 138h-6l-41 -140q-23 -76 -45.5 -148.5t-45 -147t-47 -154.5t-53.5 -170zM371 1661 q0 43 17.5 82t47 68.5t70.5 47t88 17.5q45 0 85 -17.5t69.5 -46t46 -68.5t16.5 -83q0 -92 -62.5 -153.5t-154.5 -61.5q-47 0 -88 16.5t-70.5 46t-47 68.5t-17.5 84zM463 1655q0 -53 36 -90t95 -37q55 0 90 37t35 90q0 55 -35 94t-90 39q-59 0 -95 -38t-36 -95z" />
<glyph unicode="&#xc6;" horiz-adv-x="1937" d="M20 0l875 1401h911v-127h-637v-473h533v-125h-533v-547h670v-129h-844v420h-530l-260 -420h-185zM543 553h452v711h-10z" />
<glyph unicode="&#xc7;" horiz-adv-x="1214" d="M123 692q0 76 11 159t39 165t74 155.5t113.5 130t160.5 90t216 33.5q115 0 203 -17t152 -40l-37 -129q-84 29 -160 38t-141 9q-115 0 -200 -41t-140.5 -117.5t-83 -187.5t-27.5 -248q0 -121 19.5 -224t70.5 -180t139.5 -121t225.5 -44q27 0 67.5 3t85.5 9t92.5 15.5 t88.5 21.5l32 -123q-33 -12 -75.5 -23.5t-90 -19.5t-97.5 -13t-95 -7q-29 -35 -56.5 -74t-56.5 -76q100 -4 162 -44t62 -118q0 -86 -89.5 -147.5t-277.5 -61.5v74q111 10 176.5 39t65.5 82q0 27 -18.5 44t-48.5 25.5t-66.5 11.5t-73.5 3l-27 39q41 51 78 102.5t78 100.5 q-152 8 -257.5 62t-171 146.5t-94 219.5t-28.5 278z" />
<glyph unicode="&#xc8;" horiz-adv-x="1155" d="M164 0v1401h854v-131h-680v-465h573v-127h-573v-545h713v-133h-887zM362 1778l123 112l252 -329l-80 -68z" />
<glyph unicode="&#xc9;" horiz-adv-x="1155" d="M164 0v1401h854v-131h-680v-465h573v-127h-573v-545h713v-133h-887zM541 1556l252 330l122 -108l-297 -285z" />
<glyph unicode="&#xca;" horiz-adv-x="1155" d="M164 0v1401h854v-131h-680v-465h573v-127h-573v-545h713v-133h-887zM236 1550l307 283h112l312 -279l-52 -59l-317 182l-315 -184z" />
<glyph unicode="&#xcb;" horiz-adv-x="1155" d="M164 0v1401h854v-131h-680v-465h573v-127h-573v-545h713v-133h-887zM324 1579q0 37 27.5 63.5t62.5 26.5q43 0 70.5 -24.5t27.5 -65.5t-26.5 -65.5t-67.5 -24.5t-67.5 24.5t-26.5 65.5zM709 1579q0 37 25.5 63.5t60.5 26.5q43 0 71.5 -24.5t28.5 -65.5t-28.5 -65.5 t-71.5 -24.5q-37 0 -61.5 24.5t-24.5 65.5z" />
<glyph unicode="&#xcc;" horiz-adv-x="540" d="M-6 1778l123 112l252 -329l-80 -68zM184 0v1403h172v-1403h-172z" />
<glyph unicode="&#xcd;" horiz-adv-x="540" d="M184 0v1403h172v-1403h-172zM199 1556l252 330l122 -108l-297 -285z" />
<glyph unicode="&#xce;" horiz-adv-x="540" d="M-94 1550l307 283h113l311 -279l-51 -59l-318 182l-315 -184zM184 0v1403h172v-1403h-172z" />
<glyph unicode="&#xcf;" horiz-adv-x="540" d="M-12 1579q0 37 27.5 63.5t62.5 26.5q43 0 70.5 -24.5t27.5 -65.5t-26.5 -65.5t-67.5 -24.5t-67.5 24.5t-26.5 65.5zM184 0v1403h172v-1403h-172zM373 1579q0 37 25.5 63.5t60.5 26.5q43 0 71.5 -24.5t28.5 -65.5t-28.5 -65.5t-71.5 -24.5q-37 0 -61.5 24.5t-24.5 65.5z " />
<glyph unicode="&#xd0;" horiz-adv-x="1318" d="M37 674v125h127v604h457q170 0 281.5 -56.5t177 -152.5t91 -222t25.5 -267q0 -143 -28.5 -271.5t-97.5 -224.5t-182.5 -152.5t-285.5 -56.5h-438v674h-127zM342 135h240q31 0 75.5 4t93 20.5t95.5 51.5t85 96.5t61.5 154.5t23.5 228q0 137 -21.5 233.5t-56.5 161 t-80 101.5t-92 55.5t-92 23.5t-82 5h-250v-471h324v-125h-324v-539z" />
<glyph unicode="&#xd1;" horiz-adv-x="1396" d="M164 0v1401h174q131 -201 257 -397.5t255 -397.5l205 -321h10v1116h168v-1401h-170l-541 846l-184 295q-2 0 -3 -1t-5 -1v-1139h-166zM369 1612q25 70 71.5 111.5t106.5 41.5q37 0 77 -12t78.5 -27.5t74.5 -27.5t65 -12l116 81l58 -45q-23 -70 -70 -112.5t-106 -42.5 q-47 0 -88 12t-78 27.5t-70 28t-61 12.5l-117 -80z" />
<glyph unicode="&#xd2;" horiz-adv-x="1429" d="M123 690q0 145 31.5 278.5t102.5 235t186.5 160.5t281.5 59q168 0 280.5 -60t179 -160.5t94.5 -232t28 -274.5q0 -152 -37 -282.5t-110 -226t-182.5 -149.5t-252.5 -54q-164 0 -277.5 50t-186.5 142t-105.5 222t-32.5 292zM303 688q0 -281 98.5 -426t323.5 -145 q102 0 178 45t125 122.5t72.5 182t23.5 223.5q0 104 -15 211t-58 194t-121 142t-205 55t-209 -51t-129 -136t-65.5 -193.5t-18.5 -223.5zM436 1778l123 112l252 -329l-80 -68z" />
<glyph unicode="&#xd3;" horiz-adv-x="1429" d="M123 690q0 145 31.5 278.5t102.5 235t186.5 160.5t281.5 59q168 0 280.5 -60t179 -160.5t94.5 -232t28 -274.5q0 -152 -37 -282.5t-110 -226t-182.5 -149.5t-252.5 -54q-164 0 -277.5 50t-186.5 142t-105.5 222t-32.5 292zM303 688q0 -281 98.5 -426t323.5 -145 q102 0 178 45t125 122.5t72.5 182t23.5 223.5q0 104 -15 211t-58 194t-121 142t-205 55t-209 -51t-129 -136t-65.5 -193.5t-18.5 -223.5zM621 1556l251 330l123 -108l-297 -285z" />
<glyph unicode="&#xd4;" horiz-adv-x="1429" d="M123 690q0 145 31.5 278.5t102.5 235t186.5 160.5t281.5 59q168 0 280.5 -60t179 -160.5t94.5 -232t28 -274.5q0 -152 -37 -282.5t-110 -226t-182.5 -149.5t-252.5 -54q-164 0 -277.5 50t-186.5 142t-105.5 222t-32.5 292zM303 688q0 -281 98.5 -426t323.5 -145 q102 0 178 45t125 122.5t72.5 182t23.5 223.5q0 104 -15 211t-58 194t-121 142t-205 55t-209 -51t-129 -136t-65.5 -193.5t-18.5 -223.5zM367 1550l307 283h112l312 -279l-51 -59l-318 182l-315 -184z" />
<glyph unicode="&#xd5;" horiz-adv-x="1429" d="M123 690q0 145 31.5 278.5t102.5 235t186.5 160.5t281.5 59q168 0 280.5 -60t179 -160.5t94.5 -232t28 -274.5q0 -152 -37 -282.5t-110 -226t-182.5 -149.5t-252.5 -54q-164 0 -277.5 50t-186.5 142t-105.5 222t-32.5 292zM303 688q0 -281 98.5 -426t323.5 -145 q102 0 178 45t125 122.5t72.5 182t23.5 223.5q0 104 -15 211t-58 194t-121 142t-205 55t-209 -51t-129 -136t-65.5 -193.5t-18.5 -223.5zM406 1616q25 70 71.5 111.5t106.5 41.5q37 0 76.5 -12t78.5 -27.5t75 -27.5t65 -12l116 82l58 -46q-23 -70 -70 -112.5t-106 -42.5 q-47 0 -88 12t-78 27.5t-70 28t-61 12.5l-117 -80z" />
<glyph unicode="&#xd6;" horiz-adv-x="1429" d="M123 690q0 145 31.5 278.5t102.5 235t186.5 160.5t281.5 59q168 0 280.5 -60t179 -160.5t94.5 -232t28 -274.5q0 -152 -37 -282.5t-110 -226t-182.5 -149.5t-252.5 -54q-164 0 -277.5 50t-186.5 142t-105.5 222t-32.5 292zM303 688q0 -281 98.5 -426t323.5 -145 q102 0 178 45t125 122.5t72.5 182t23.5 223.5q0 104 -15 211t-58 194t-121 142t-205 55t-209 -51t-129 -136t-65.5 -193.5t-18.5 -223.5zM436 1599q0 37 28 64t62 27q43 0 71 -25t28 -66t-27 -65.5t-68 -24.5t-67.5 25t-26.5 65zM821 1599q0 37 25.5 64t60.5 27q43 0 72 -25 t29 -66t-29 -65.5t-72 -24.5q-37 0 -61.5 25t-24.5 65z" />
<glyph unicode="&#xd7;" horiz-adv-x="1142" d="M223 328l269 266l-265 264l86 84l262 -264l259 260l88 -88l-258 -260l262 -260l-86 -86l-260 262l-269 -268z" />
<glyph unicode="&#xd8;" horiz-adv-x="1388" d="M96 -12l144 188q-72 92 -105 222t-33 292q0 145 32 278.5t102.5 235t186.5 160.5t282 59q129 0 222 -34.5t160 -98.5l103 137h102l-149 -194q78 -104 110.5 -243.5t32.5 -293.5q0 -152 -37 -282.5t-109.5 -226t-182 -149.5t-252.5 -54q-137 0 -238.5 34.5t-173.5 100.5 l-98 -131h-99zM283 688q0 -119 16 -210t53 -159l635 844q-47 59 -115.5 94t-166.5 35q-127 0 -209 -51t-129.5 -136t-65.5 -193.5t-18 -223.5zM393 244q102 -127 312 -127q102 0 177.5 45t125 122.5t73 182t23.5 223.5q0 102 -15.5 208t-60.5 192z" />
<glyph unicode="&#xd9;" horiz-adv-x="1361" d="M147 504v899h172v-901q0 -193 94.5 -289t268.5 -96t269.5 95t95.5 290l-3 901h173v-899q0 -117 -33 -213t-99.5 -165t-167 -105.5t-237.5 -36.5q-281 0 -407 138t-126 382zM428 1778l123 112l252 -329l-80 -68z" />
<glyph unicode="&#xda;" horiz-adv-x="1361" d="M147 504v899h172v-901q0 -193 94.5 -289t268.5 -96t269.5 95t95.5 290l-3 901h173v-899q0 -117 -33 -213t-99.5 -165t-167 -105.5t-237.5 -36.5q-281 0 -407 138t-126 382zM575 1556l252 330l123 -108l-297 -285z" />
<glyph unicode="&#xdb;" horiz-adv-x="1361" d="M147 504v899h172v-901q0 -193 94.5 -289t268.5 -96t269.5 95t95.5 290l-3 901h173v-899q0 -117 -33 -213t-99.5 -165t-167 -105.5t-237.5 -36.5q-281 0 -407 138t-126 382zM299 1548l319 279h117l324 -275l-53 -57l-330 178l-328 -180z" />
<glyph unicode="&#xdc;" horiz-adv-x="1361" d="M147 504v899h172v-901q0 -193 94.5 -289t268.5 -96t269.5 95t95.5 290l-3 901h173v-899q0 -117 -33 -213t-99.5 -165t-167 -105.5t-237.5 -36.5q-281 0 -407 138t-126 382zM397 1591q0 37 28 63.5t62 26.5q43 0 71 -24.5t28 -65.5t-27 -65.5t-67 -24.5q-41 0 -68 24.5 t-27 65.5zM782 1591q0 37 26 63.5t60 26.5q43 0 72 -24.5t29 -65.5t-29 -65.5t-72 -24.5q-37 0 -61.5 24.5t-24.5 65.5z" />
<glyph unicode="&#xdd;" horiz-adv-x="1097" d="M20 1403h183l192 -369l144 -284h8l155 297l195 356h178l-442 -789v-614h-182v606zM457 1520l252 329l122 -108l-296 -285z" />
<glyph unicode="&#xde;" horiz-adv-x="1136" d="M164 0v1403h174v-293h285q96 0 176 -25.5t138 -77t90 -128.5t32 -177q0 -63 -19.5 -136.5t-67.5 -136t-129 -104.5t-202 -42h-303v-283h-174zM338 414h278q49 0 96.5 13t85.5 46t60.5 87t22.5 136q0 72 -20.5 125t-57.5 88t-87 51.5t-108 16.5h-270v-563z" />
<glyph unicode="&#xdf;" horiz-adv-x="1200" d="M51 786v111h146v221q0 47 16 108.5t59 117t118 94.5t194 39q104 0 172.5 -27t108.5 -67t56.5 -86t16.5 -83q0 -76 -34 -130t-73.5 -97t-72.5 -80t-33 -80q0 -53 46 -106t118 -109q45 -35 89 -70.5t78 -78.5t54 -97.5t20 -125.5q-4 -51 -23.5 -99.5t-60 -85.5t-104 -59.5 t-154.5 -22.5q-76 0 -155.5 14.5t-134.5 37.5l37 122q106 -37 161.5 -44t87.5 -7q86 0 132.5 39.5t46.5 102.5q0 51 -17.5 89t-44.5 68.5t-59.5 57t-63.5 55.5q-37 35 -75.5 71.5t-70.5 74.5t-51.5 80t-19.5 85q0 57 34 104.5t74 90.5t73.5 84t33.5 90q0 12 -5 38.5 t-24.5 53.5t-60.5 47.5t-111 20.5q-55 0 -96 -19.5t-66.5 -51.5t-38 -75t-12.5 -92v-1110h-165v786h-146z" />
<glyph unicode="&#xe0;" horiz-adv-x="1085" d="M86 270q0 131 93 210t286 91l256 17v63q0 125 -45 176.5t-170 51.5q-74 0 -154 -14.5t-155 -41.5l-37 113q86 39 188.5 59.5t196.5 20.5q158 0 248 -74t90 -258v-559h135l10 -98q-37 -18 -85 -29.5t-89 -11.5q-59 0 -92 24.5t-37 102.5l-2 2q-57 -49 -110.5 -76 t-97.5 -39t-80 -14t-58 -2q-86 0 -142.5 28.5t-89 71.5t-46 93t-13.5 93zM264 287q0 -88 43 -131t142 -43q66 0 134 33.5t138 97.5v233l-256 -16q-102 -4 -151.5 -51.5t-49.5 -122.5zM268 1380l123 117l252 -332l-78 -69z" />
<glyph unicode="&#xe1;" horiz-adv-x="1085" d="M86 270q0 131 93 210t286 91l256 17v63q0 125 -45 176.5t-170 51.5q-74 0 -154 -14.5t-155 -41.5l-37 113q86 39 188.5 59.5t196.5 20.5q158 0 248 -74t90 -258v-559h135l10 -98q-37 -18 -85 -29.5t-89 -11.5q-59 0 -92 24.5t-37 102.5l-2 2q-57 -49 -110.5 -76 t-97.5 -39t-80 -14t-58 -2q-86 0 -142.5 28.5t-89 71.5t-46 93t-13.5 93zM264 287q0 -88 43 -131t142 -43q66 0 134 33.5t138 97.5v233l-256 -16q-102 -4 -151.5 -51.5t-49.5 -122.5zM418 1159l252 332l118 -111l-296 -284z" />
<glyph unicode="&#xe2;" horiz-adv-x="1085" d="M86 270q0 131 93 210t286 91l256 17v63q0 125 -45 176.5t-170 51.5q-74 0 -154 -14.5t-155 -41.5l-37 113q86 39 188.5 59.5t196.5 20.5q158 0 248 -74t90 -258v-559h135l10 -98q-37 -18 -85 -29.5t-89 -11.5q-59 0 -92 24.5t-37 102.5l-2 2q-57 -49 -110.5 -76 t-97.5 -39t-80 -14t-58 -2q-86 0 -142.5 28.5t-89 71.5t-46 93t-13.5 93zM150 1145l307 293h112l312 -289l-52 -59l-317 190l-315 -193zM264 287q0 -88 43 -131t142 -43q66 0 134 33.5t138 97.5v233l-256 -16q-102 -4 -151.5 -51.5t-49.5 -122.5z" />
<glyph unicode="&#xe3;" horiz-adv-x="1085" d="M86 270q0 131 93 210t286 91l256 17v63q0 125 -45 176.5t-170 51.5q-74 0 -154 -14.5t-155 -41.5l-37 113q86 39 188.5 59.5t196.5 20.5q158 0 248 -74t90 -258v-559h135l10 -98q-37 -18 -85 -29.5t-89 -11.5q-59 0 -92 24.5t-37 102.5l-2 2q-57 -49 -110.5 -76 t-97.5 -39t-80 -14t-58 -2q-86 0 -142.5 28.5t-89 71.5t-46 93t-13.5 93zM197 1219q25 70 71.5 111.5t106.5 41.5q37 0 77 -12t78.5 -27.5t74.5 -28t65 -12.5l116 82l58 -45q-23 -70 -70 -112.5t-106 -42.5q-47 0 -88 12t-78 27.5t-70 27.5t-61 12l-117 -79zM264 287 q0 -88 43 -131t142 -43q66 0 134 33.5t138 97.5v233l-256 -16q-102 -4 -151.5 -51.5t-49.5 -122.5z" />
<glyph unicode="&#xe4;" horiz-adv-x="1085" d="M86 270q0 131 93 210t286 91l256 17v63q0 125 -45 176.5t-170 51.5q-74 0 -154 -14.5t-155 -41.5l-37 113q86 39 188.5 59.5t196.5 20.5q158 0 248 -74t90 -258v-559h135l10 -98q-37 -18 -85 -29.5t-89 -11.5q-59 0 -92 24.5t-37 102.5l-2 2q-57 -49 -110.5 -76 t-97.5 -39t-80 -14t-58 -2q-86 0 -142.5 28.5t-89 71.5t-46 93t-13.5 93zM240 1235q0 39 28.5 64.5t63.5 25.5q43 0 69.5 -24.5t26.5 -65.5q0 -39 -26.5 -64.5t-67.5 -25.5t-67.5 25.5t-26.5 64.5zM264 287q0 -88 43 -131t142 -43q66 0 134 33.5t138 97.5v233l-256 -16 q-102 -4 -151.5 -51.5t-49.5 -122.5zM625 1235q0 39 26.5 64.5t61.5 25.5q43 0 71.5 -24.5t28.5 -65.5q0 -39 -28.5 -64.5t-71.5 -25.5q-39 0 -63.5 25.5t-24.5 64.5z" />
<glyph unicode="&#xe5;" horiz-adv-x="1085" d="M86 270q0 131 93 210t286 91l256 17v63q0 125 -45 176.5t-170 51.5q-74 0 -154 -14.5t-155 -41.5l-37 113q86 39 188.5 59.5t196.5 20.5q158 0 248 -74t90 -258v-559h135l10 -98q-37 -18 -85 -29.5t-89 -11.5q-59 0 -92 24.5t-37 102.5l-2 2q-57 -49 -110.5 -76 t-97.5 -39t-80 -14t-58 -2q-86 0 -142.5 28.5t-89 71.5t-46 93t-13.5 93zM264 287q0 -88 43 -131t142 -43q66 0 134 33.5t138 97.5v233l-256 -16q-102 -4 -151.5 -51.5t-49.5 -122.5zM317 1343q0 43 17.5 82t47.5 69t71 47.5t88 17.5q45 0 85 -17.5t69.5 -46.5t46 -69 t16.5 -83q0 -92 -62.5 -153.5t-154.5 -61.5q-47 0 -88 16.5t-71 46.5t-47.5 68.5t-17.5 83.5zM410 1337q0 -53 35.5 -90t95.5 -37q55 0 90 37t35 90q0 55 -35 94t-90 39q-59 0 -95 -37.5t-36 -95.5z" />
<glyph unicode="&#xe6;" horiz-adv-x="1622" d="M68 270q0 129 94 212t268 85l293 2v84q0 129 -56.5 178.5t-179.5 49.5q-78 0 -157.5 -14.5t-153.5 -41.5l-37 113q86 39 187.5 59.5t195.5 20.5q104 0 187.5 -37t119.5 -123q47 72 126 118t202 46q96 0 164 -26.5t111 -69.5t67.5 -96.5t36.5 -106.5t14 -100.5t2 -77.5 v-80h-663q0 -70 12 -133.5t44 -110.5t87 -75.5t139 -28.5q88 0 159 17.5t157 51.5l39 -106q-88 -47 -178.5 -69.5t-188.5 -22.5q-139 0 -222 41t-132 112q-78 -59 -146.5 -91t-125 -47t-99.5 -17t-69 -2q-90 0 -147.5 28.5t-90.5 71.5t-46 93t-13 93zM246 289 q0 -90 44 -136.5t142 -46.5q27 0 69 8.5t87 25t90 40t80 53.5q-18 51 -26.5 108.5t-10.5 123.5h-264q-104 0 -157.5 -48t-53.5 -128zM893 569h502q0 72 -11.5 131.5t-39 102.5t-73.5 66.5t-114 23.5q-72 0 -120 -26.5t-78.5 -71.5t-46 -103.5t-19.5 -122.5z" />
<glyph unicode="&#xe7;" horiz-adv-x="933" d="M98 487q0 80 18.5 173.5t69 174t139.5 134t230 53.5q68 0 139.5 -9t149.5 -42l-39 -121q-72 25 -129.5 31t-106.5 6q-145 0 -222 -104.5t-77 -278.5q0 -84 14.5 -153.5t47.5 -122t88 -81t139 -28.5q78 0 145.5 16.5t143.5 46.5l45 -110q-63 -35 -152.5 -58.5 t-187.5 -25.5l-88 -117q100 -4 161.5 -44t61.5 -118q0 -86 -89 -147.5t-277 -61.5v74q111 10 176 39t65 82q0 27 -18.5 44t-48 25.5t-66.5 11.5t-74 3l-26 39l133 174q-102 12 -172 54t-113 107.5t-61.5 150.5t-18.5 183z" />
<glyph unicode="&#xe8;" horiz-adv-x="1034" d="M98 498q0 45 6.5 101t23.5 113.5t48 114t80 99.5t118 69.5t163 26.5q100 0 168.5 -26.5t113.5 -69.5t69.5 -96.5t36 -106.5t13.5 -100.5t2 -77.5v-80h-670q0 -70 12.5 -133.5t45 -111.5t88 -76.5t139.5 -28.5q88 0 160.5 18.5t158.5 52.5l41 -106q-90 -47 -181 -69.5 t-191 -22.5q-133 0 -219 41t-136.5 109.5t-70 161.5t-19.5 198zM266 1380l123 117l252 -332l-78 -69zM272 573h510q0 72 -12 132.5t-40 103.5t-73.5 66.5t-115.5 23.5q-72 0 -121 -26.5t-81 -71.5t-47.5 -104.5t-19.5 -123.5z" />
<glyph unicode="&#xe9;" horiz-adv-x="1034" d="M98 498q0 45 6.5 101t23.5 113.5t48 114t80 99.5t118 69.5t163 26.5q100 0 168.5 -26.5t113.5 -69.5t69.5 -96.5t36 -106.5t13.5 -100.5t2 -77.5v-80h-670q0 -70 12.5 -133.5t45 -111.5t88 -76.5t139.5 -28.5q88 0 160.5 18.5t158.5 52.5l41 -106q-90 -47 -181 -69.5 t-191 -22.5q-133 0 -219 41t-136.5 109.5t-70 161.5t-19.5 198zM272 573h510q0 72 -12 132.5t-40 103.5t-73.5 66.5t-115.5 23.5q-72 0 -121 -26.5t-81 -71.5t-47.5 -104.5t-19.5 -123.5zM436 1159l252 332l119 -111l-297 -284z" />
<glyph unicode="&#xea;" horiz-adv-x="1034" d="M98 498q0 45 6.5 101t23.5 113.5t48 114t80 99.5t118 69.5t163 26.5q100 0 168.5 -26.5t113.5 -69.5t69.5 -96.5t36 -106.5t13.5 -100.5t2 -77.5v-80h-670q0 -70 12.5 -133.5t45 -111.5t88 -76.5t139.5 -28.5q88 0 160.5 18.5t158.5 52.5l41 -106q-90 -47 -181 -69.5 t-191 -22.5q-133 0 -219 41t-136.5 109.5t-70 161.5t-19.5 198zM184 1145l308 293h112l311 -289l-51 -59l-317 190l-316 -193zM272 573h510q0 72 -12 132.5t-40 103.5t-73.5 66.5t-115.5 23.5q-72 0 -121 -26.5t-81 -71.5t-47.5 -104.5t-19.5 -123.5z" />
<glyph unicode="&#xeb;" horiz-adv-x="1034" d="M98 498q0 45 6.5 101t23.5 113.5t48 114t80 99.5t118 69.5t163 26.5q100 0 168.5 -26.5t113.5 -69.5t69.5 -96.5t36 -106.5t13.5 -100.5t2 -77.5v-80h-670q0 -70 12.5 -133.5t45 -111.5t88 -76.5t139.5 -28.5q88 0 160.5 18.5t158.5 52.5l41 -106q-90 -47 -181 -69.5 t-191 -22.5q-133 0 -219 41t-136.5 109.5t-70 161.5t-19.5 198zM264 1235q0 39 29 64.5t63 25.5q43 0 70 -24.5t27 -65.5q0 -39 -27 -64.5t-68 -25.5t-67.5 25.5t-26.5 64.5zM272 573h510q0 72 -12 132.5t-40 103.5t-73.5 66.5t-115.5 23.5q-72 0 -121 -26.5t-81 -71.5 t-47.5 -104.5t-19.5 -123.5zM649 1235q0 39 26.5 64.5t61.5 25.5q43 0 72 -24.5t29 -65.5q0 -39 -29 -64.5t-72 -25.5q-39 0 -63.5 25.5t-24.5 64.5z" />
<glyph unicode="&#xec;" horiz-adv-x="520" d="M-12 1380l123 117l251 -332l-77 -69zM174 0v999h166v-999h-166z" />
<glyph unicode="&#xed;" horiz-adv-x="520" d="M174 0v999h166v-999h-166zM190 1159l252 332l119 -111l-297 -284z" />
<glyph unicode="&#xee;" horiz-adv-x="557" d="M-88 1145l307 293h113l311 -289l-51 -59l-318 190l-315 -193zM199 0v999h166v-999h-166z" />
<glyph unicode="&#xef;" horiz-adv-x="520" d="M-33 1235q0 39 29 64.5t63 25.5q43 0 70 -24.5t27 -65.5q0 -39 -27 -64.5t-68 -25.5t-67.5 25.5t-26.5 64.5zM174 0v999h166v-999h-166zM352 1235q0 39 27 64.5t61 25.5q43 0 72 -24.5t29 -65.5q0 -39 -29 -64.5t-72 -25.5q-39 0 -63.5 25.5t-24.5 64.5z" />
<glyph unicode="&#xf0;" horiz-adv-x="1048" d="M86 438q0 92 26.5 178t81 154t134.5 109t184 41q59 0 123.5 -12.5t128.5 -47.5q-59 172 -160 295l-188 -127l-49 68l180 121q-47 49 -100.5 92t-110.5 80l55 94q147 -76 266 -191l187 125l49 -67l-176 -117q127 -143 189.5 -322.5t58.5 -382.5q0 -88 -20.5 -184t-71 -176 t-138.5 -132t-223 -52q-131 0 -214 43t-130 109.5t-64.5 147.5t-17.5 154zM250 444q0 -53 9 -111.5t38 -107.5t82 -80.5t143 -31.5q88 0 143.5 40t86 100t41 129t10.5 124q0 57 -6 105t-19 108q-72 47 -137.5 61.5t-116.5 14.5q-76 0 -128 -33t-84.5 -83t-47 -112.5 t-14.5 -122.5z" />
<glyph unicode="&#xf1;" horiz-adv-x="1052" d="M119 0v999h164l2 -86l6 -4q84 53 180 83t168 30q102 0 160.5 -29.5t88.5 -76t37 -103.5t7 -113v-700h-166v659q0 51 -5 93.5t-22.5 72t-52.5 45t-94 15.5q-72 0 -156 -31t-149 -68v-786h-168zM180 1243q25 70 72 112t106 42q37 0 77 -12.5t79 -28t75 -27.5t64 -12l117 82 l57 -45q-23 -70 -70 -113t-106 -43q-47 0 -88 12.5t-77.5 27.5t-69.5 27.5t-62 12.5l-116 -80z" />
<glyph unicode="&#xf2;" horiz-adv-x="1081" d="M98 494q0 100 24.5 194t78 168t139.5 119t209 45q125 0 209 -45t134 -118t70.5 -167t20.5 -192q0 -96 -21.5 -188.5t-73.5 -165t-140.5 -116.5t-219.5 -44q-123 0 -205.5 42t-132 111.5t-71 161.5t-21.5 195zM272 494q0 -74 10.5 -143.5t40 -122t84 -84t142.5 -31.5 q82 0 132 33.5t78.5 89t39 123t10.5 135.5t-9 137t-38 127.5t-80 95.5t-133 37q-84 0 -137.5 -36t-84 -92t-43 -128t-12.5 -141zM281 1380l122 117l252 -332l-77 -69z" />
<glyph unicode="&#xf3;" horiz-adv-x="1081" d="M98 494q0 100 24.5 194t78 168t139.5 119t209 45q125 0 209 -45t134 -118t70.5 -167t20.5 -192q0 -96 -21.5 -188.5t-73.5 -165t-140.5 -116.5t-219.5 -44q-123 0 -205.5 42t-132 111.5t-71 161.5t-21.5 195zM272 494q0 -74 10.5 -143.5t40 -122t84 -84t142.5 -31.5 q82 0 132 33.5t78.5 89t39 123t10.5 135.5t-9 137t-38 127.5t-80 95.5t-133 37q-84 0 -137.5 -36t-84 -92t-43 -128t-12.5 -141zM479 1159l252 332l119 -111l-297 -284z" />
<glyph unicode="&#xf4;" horiz-adv-x="1081" d="M98 494q0 100 24.5 194t78 168t139.5 119t209 45q125 0 209 -45t134 -118t70.5 -167t20.5 -192q0 -96 -21.5 -188.5t-73.5 -165t-140.5 -116.5t-219.5 -44q-123 0 -205.5 42t-132 111.5t-71 161.5t-21.5 195zM190 1145l308 293h112l312 -289l-52 -59l-317 190l-315 -193z M272 494q0 -74 10.5 -143.5t40 -122t84 -84t142.5 -31.5q82 0 132 33.5t78.5 89t39 123t10.5 135.5t-9 137t-38 127.5t-80 95.5t-133 37q-84 0 -137.5 -36t-84 -92t-43 -128t-12.5 -141z" />
<glyph unicode="&#xf5;" horiz-adv-x="1081" d="M98 494q0 100 24.5 194t78 168t139.5 119t209 45q125 0 209 -45t134 -118t70.5 -167t20.5 -192q0 -96 -21.5 -188.5t-73.5 -165t-140.5 -116.5t-219.5 -44q-123 0 -205.5 42t-132 111.5t-71 161.5t-21.5 195zM225 1217q25 70 72 111.5t106 41.5q37 0 77 -12t79 -27.5 t75 -28t64 -12.5l117 82l57 -45q-23 -70 -70 -113t-106 -43q-47 0 -88 12.5t-77.5 28t-69.5 27.5t-62 12l-116 -80zM272 494q0 -74 10.5 -143.5t40 -122t84 -84t142.5 -31.5q82 0 132 33.5t78.5 89t39 123t10.5 135.5t-9 137t-38 127.5t-80 95.5t-133 37q-84 0 -137.5 -36 t-84 -92t-43 -128t-12.5 -141z" />
<glyph unicode="&#xf6;" horiz-adv-x="1081" d="M98 494q0 100 24.5 194t78 168t139.5 119t209 45q125 0 209 -45t134 -118t70.5 -167t20.5 -192q0 -96 -21.5 -188.5t-73.5 -165t-140.5 -116.5t-219.5 -44q-123 0 -205.5 42t-132 111.5t-71 161.5t-21.5 195zM266 1235q0 39 29 64.5t63 25.5q43 0 70 -24.5t27 -65.5 q0 -39 -27 -64.5t-68 -25.5t-67.5 25.5t-26.5 64.5zM272 494q0 -74 10.5 -143.5t40 -122t84 -84t142.5 -31.5q82 0 132 33.5t78.5 89t39 123t10.5 135.5t-9 137t-38 127.5t-80 95.5t-133 37q-84 0 -137.5 -36t-84 -92t-43 -128t-12.5 -141zM651 1235q0 39 27 64.5t61 25.5 q43 0 72 -24.5t29 -65.5q0 -39 -29 -64.5t-72 -25.5q-39 0 -63.5 25.5t-24.5 64.5z" />
<glyph unicode="&#xf7;" horiz-adv-x="1142" d="M174 553v119h797v-119h-797zM471 287q0 43 29.5 71.5t72.5 28.5t73 -28.5t30 -71.5t-30 -74t-71 -31q-43 0 -73.5 32t-30.5 73zM471 936q0 43 29.5 72.5t72.5 29.5t73 -29.5t30 -72.5t-30 -74t-71 -31q-43 0 -73.5 32t-30.5 73z" />
<glyph unicode="&#xf8;" horiz-adv-x="1046" d="M74 -14l108 137q-55 72 -77.5 168t-22.5 203q0 100 24.5 194t78 168t138 119t207.5 45q94 0 163 -25.5t120 -72.5l74 96q20 0 40.5 1t41.5 1l-111 -143q59 -76 83 -175.5t24 -203.5q0 -96 -21.5 -188.5t-74 -164t-140.5 -115.5t-219 -44q-180 0 -281 88l-67 -86 q-23 0 -44.5 -1t-43.5 -1zM254 500q0 -63 9 -128t32 -116l418 549q-29 39 -73 61.5t-110 22.5q-82 0 -135 -35t-83.5 -90t-44 -125t-13.5 -139zM330 190q31 -35 80 -56t120 -21q82 0 132.5 33.5t79 89t39 123t10.5 135.5q0 61 -9.5 127.5t-36.5 121.5z" />
<glyph unicode="&#xf9;" horiz-adv-x="1032" d="M119 297v702h166v-661q0 -53 5 -94t22.5 -70t51 -44t93.5 -15q57 0 138 30.5t153 96.5v757q41 0 81.5 1t81.5 1v-1001h-161l-2 113l-5 4q-49 -43 -98 -71t-93 -43t-80.5 -20.5t-63.5 -5.5q-102 0 -160 29t-86.5 75t-35.5 103.5t-7 112.5zM262 1380l123 117l252 -332 l-78 -69z" />
<glyph unicode="&#xfa;" horiz-adv-x="1032" d="M119 297v702h166v-661q0 -53 5 -94t22.5 -70t51 -44t93.5 -15q57 0 138 30.5t153 96.5v757q41 0 81.5 1t81.5 1v-1001h-161l-2 113l-5 4q-49 -43 -98 -71t-93 -43t-80.5 -20.5t-63.5 -5.5q-102 0 -160 29t-86.5 75t-35.5 103.5t-7 112.5zM432 1159l252 332l119 -111 l-297 -284z" />
<glyph unicode="&#xfb;" horiz-adv-x="1032" d="M119 297v702h166v-661q0 -53 5 -94t22.5 -70t51 -44t93.5 -15q57 0 138 30.5t153 96.5v757q41 0 81.5 1t81.5 1v-1001h-161l-2 113l-5 4q-49 -43 -98 -71t-93 -43t-80.5 -20.5t-63.5 -5.5q-102 0 -160 29t-86.5 75t-35.5 103.5t-7 112.5zM154 1145l307 293h112l312 -289 l-51 -59l-318 190l-315 -193z" />
<glyph unicode="&#xfc;" horiz-adv-x="1032" d="M119 297v702h166v-661q0 -53 5 -94t22.5 -70t51 -44t93.5 -15q57 0 138 30.5t153 96.5v757q41 0 81.5 1t81.5 1v-1001h-161l-2 113l-5 4q-49 -43 -98 -71t-93 -43t-80.5 -20.5t-63.5 -5.5q-102 0 -160 29t-86.5 75t-35.5 103.5t-7 112.5zM244 1235q0 39 28.5 64.5 t63.5 25.5q43 0 69.5 -24.5t26.5 -65.5q0 -39 -26.5 -64.5t-67.5 -25.5t-67.5 25.5t-26.5 64.5zM629 1235q0 39 26.5 64.5t61.5 25.5q43 0 71.5 -24.5t28.5 -65.5q0 -39 -28.5 -64.5t-71.5 -25.5q-39 0 -63.5 25.5t-24.5 64.5z" />
<glyph unicode="&#xfd;" horiz-adv-x="942" d="M20 -406l27 117q55 -12 91 -17t71 -5q59 0 98 28.5t66 110.5l57 178h-80l-313 993h162l204 -686q20 -66 34 -123t22 -86h10l63 213q20 68 47 152t55 173t56.5 180t57.5 177h170q-47 -143 -96.5 -292.5t-99.5 -300t-100.5 -299t-97.5 -289.5q-37 -119 -104.5 -188.5 t-183.5 -69.5q-23 2 -73 5t-143 29zM375 1159l252 332l118 -111l-296 -284z" />
<glyph unicode="&#xfe;" horiz-adv-x="1067" d="M119 -426v1829h166v-500l2 -2q59 47 141 79t162 32q106 0 179 -40t118 -107.5t63.5 -157t18.5 -189.5q0 -115 -21.5 -214t-70 -171t-126 -112.5t-188.5 -40.5q-29 0 -64.5 4t-72.5 12t-73 22.5t-66 32.5l-2 -477h-166zM287 182q16 -12 44.5 -24.5t63.5 -23.5t72 -17 t72 -6q51 0 98 19.5t83 67.5t56.5 126.5t20.5 195.5q0 104 -18.5 173t-50.5 111t-78 59.5t-101 17.5q-31 0 -69 -9.5t-74.5 -25t-68.5 -32.5t-50 -36v-596z" />
<glyph unicode="&#xff;" horiz-adv-x="942" d="M20 -406l27 117q55 -12 91 -17t71 -5q59 0 98 28.5t66 110.5l57 178h-80l-313 993h162l204 -686q20 -66 34 -123t22 -86h10l63 213q20 68 47 152t55 173t56.5 180t57.5 177h170q-47 -143 -96.5 -292.5t-99.5 -300t-100.5 -299t-97.5 -289.5q-37 -119 -104.5 -188.5 t-183.5 -69.5q-23 2 -73 5t-143 29zM203 1235q0 39 28.5 64.5t63.5 25.5q43 0 69.5 -24.5t26.5 -65.5q0 -39 -26.5 -64.5t-67.5 -25.5t-67.5 25.5t-26.5 64.5zM588 1235q0 39 26.5 64.5t61.5 25.5q43 0 71.5 -24.5t28.5 -65.5q0 -39 -28.5 -64.5t-71.5 -25.5 q-39 0 -63.5 25.5t-24.5 64.5z" />
<glyph unicode="&#x100;" horiz-adv-x="1185" d="M20 0q125 381 242 731t221 672h222l458 -1403h-182q-29 92 -57.5 183t-57.5 184h-553q-29 -92 -57.5 -183.5t-56.5 -183.5h-179zM260 1530v131h668v-131h-668zM356 500h469q-47 156 -94 312.5t-96 309.5l-41 138h-6l-41 -140q-23 -76 -45.5 -148.5t-45 -147t-47 -154.5 t-53.5 -170z" />
<glyph unicode="&#x101;" horiz-adv-x="1085" d="M86 270q0 131 93 210t286 91l256 17v63q0 125 -45 176.5t-170 51.5q-74 0 -154 -14.5t-155 -41.5l-37 113q86 39 188.5 59.5t196.5 20.5q158 0 248 -74t90 -258v-559h135l10 -98q-37 -18 -85 -29.5t-89 -11.5q-59 0 -92 24.5t-37 102.5l-2 2q-57 -49 -110.5 -76 t-97.5 -39t-80 -14t-58 -2q-86 0 -142.5 28.5t-89 71.5t-46 93t-13.5 93zM190 1212v131h674v-131h-674zM264 287q0 -88 43 -131t142 -43q66 0 134 33.5t138 97.5v233l-256 -16q-102 -4 -151.5 -51.5t-49.5 -122.5z" />
<glyph unicode="&#x102;" horiz-adv-x="1185" d="M20 0q125 381 242 731t221 672h222l458 -1403h-182q-29 92 -57.5 183t-57.5 184h-553q-29 -92 -57.5 -183.5t-56.5 -183.5h-179zM250 1724l96 68q55 -76 119.5 -123t124.5 -47q18 0 45 4t62.5 19.5t80.5 47t103 87.5l55 -51q-90 -129 -181 -181.5t-173 -52.5 q-53 0 -100.5 19.5t-88.5 51t-76.5 73.5t-66.5 85zM356 500h469q-47 156 -94 312.5t-96 309.5l-41 138h-6l-41 -140q-23 -76 -45.5 -148.5t-45 -147t-47 -154.5t-53.5 -170z" />
<glyph unicode="&#x103;" horiz-adv-x="1085" d="M86 270q0 131 93 210t286 91l256 17v63q0 125 -45 176.5t-170 51.5q-74 0 -154 -14.5t-155 -41.5l-37 113q86 39 188.5 59.5t196.5 20.5q158 0 248 -74t90 -258v-559h135l10 -98q-37 -18 -85 -29.5t-89 -11.5q-59 0 -92 24.5t-37 102.5l-2 2q-57 -49 -110.5 -76 t-97.5 -39t-80 -14t-58 -2q-86 0 -142.5 28.5t-89 71.5t-46 93t-13.5 93zM180 1358l96 69q55 -78 119 -124t123 -46q18 0 46 3.5t64 18.5t81 47t102 87l55 -51q-90 -129 -181 -181.5t-173 -52.5q-53 0 -100 19.5t-88 52.5t-77 74t-67 84zM264 287q0 -88 43 -131t142 -43 q66 0 134 33.5t138 97.5v233l-256 -16q-102 -4 -151.5 -51.5t-49.5 -122.5z" />
<glyph unicode="&#x104;" horiz-adv-x="1185" d="M20 0q125 381 242 731t221 672h222l458 -1403h-119q-43 -53 -68.5 -115.5t-25.5 -109.5q0 -59 33 -82t88 -23q41 0 80 8.5t68 14.5l12 -66q-49 -25 -106.5 -39t-114.5 -14q-96 0 -146.5 39t-50.5 108q0 27 6 61t24.5 73t50.5 79.5t81 81.5q-29 86 -54.5 173t-54.5 178 h-553q-29 -92 -57.5 -183.5t-56.5 -183.5h-179zM356 500h469q-47 156 -94 312.5t-96 309.5l-41 138h-6l-41 -140q-23 -76 -45.5 -148.5t-45 -147t-47 -154.5t-53.5 -170z" />
<glyph unicode="&#x105;" horiz-adv-x="1085" d="M86 270q0 131 93 210t286 91l256 17v63q0 125 -45 176.5t-170 51.5q-74 0 -154 -14.5t-155 -41.5l-37 113q86 39 188.5 59.5t196.5 20.5q158 0 248 -74t90 -258v-559h135l10 -98q-35 -18 -80 -28.5t-86 -12.5q-35 -53 -57.5 -109.5t-22.5 -97.5q0 -59 33 -82t88 -23 q41 0 80 8.5t68 14.5l12 -66q-49 -25 -106.5 -39t-114.5 -14q-96 0 -146.5 39t-50.5 109q0 51 26.5 122.5t110.5 149.5q-27 10 -41 36.5t-16 78.5l-2 2q-57 -49 -110.5 -76t-97.5 -39t-80 -14t-58 -2q-86 0 -142.5 28.5t-89 71.5t-46 93t-13.5 93zM264 287q0 -88 43 -131 t142 -43q66 0 134 33.5t138 97.5v233l-256 -16q-102 -4 -151.5 -51.5t-49.5 -122.5z" />
<glyph unicode="&#x106;" horiz-adv-x="1214" d="M123 692q0 76 11 159t39 165t74 155.5t113.5 130t160.5 90t216 33.5q115 0 203 -17t152 -40l-37 -129q-84 29 -160 38t-141 9q-115 0 -200 -41t-140.5 -117.5t-83 -187.5t-27.5 -248q0 -121 19.5 -224t70.5 -180t139.5 -121t225.5 -44q27 0 67.5 3t85.5 9t92.5 15.5 t88.5 21.5l32 -123q-37 -14 -85 -26.5t-101 -20.5t-107.5 -13t-103.5 -5q-168 0 -282.5 51t-186.5 144t-103.5 224.5t-31.5 288.5zM631 1556l252 330l123 -108l-297 -285z" />
<glyph unicode="&#x107;" horiz-adv-x="933" d="M98 487q0 80 18.5 173.5t69 174t139.5 134t230 53.5q68 0 139.5 -9t149.5 -42l-39 -121q-72 25 -129.5 31t-106.5 6q-145 0 -222 -104.5t-77 -278.5q0 -84 14.5 -153.5t47.5 -122t88 -81t139 -28.5q78 0 145.5 16.5t143.5 46.5l45 -110q-66 -35 -157 -59.5t-191 -24.5 q-125 0 -211 37.5t-138.5 105.5t-75 159t-22.5 197zM406 1159l251 332l119 -111l-297 -284z" />
<glyph unicode="&#x108;" horiz-adv-x="1214" d="M123 692q0 76 11 159t39 165t74 155.5t113.5 130t160.5 90t216 33.5q115 0 203 -17t152 -40l-37 -129q-84 29 -160 38t-141 9q-115 0 -200 -41t-140.5 -117.5t-83 -187.5t-27.5 -248q0 -121 19.5 -224t70.5 -180t139.5 -121t225.5 -44q27 0 67.5 3t85.5 9t92.5 15.5 t88.5 21.5l32 -123q-37 -14 -85 -26.5t-101 -20.5t-107.5 -13t-103.5 -5q-168 0 -282.5 51t-186.5 144t-103.5 224.5t-31.5 288.5zM326 1550l307 283h112l312 -279l-51 -59l-318 182l-315 -184z" />
<glyph unicode="&#x109;" horiz-adv-x="933" d="M98 487q0 80 18.5 173.5t69 174t139.5 134t230 53.5q68 0 139.5 -9t149.5 -42l-39 -121q-72 25 -129.5 31t-106.5 6q-145 0 -222 -104.5t-77 -278.5q0 -84 14.5 -153.5t47.5 -122t88 -81t139 -28.5q78 0 145.5 16.5t143.5 46.5l45 -110q-66 -35 -157 -59.5t-191 -24.5 q-125 0 -211 37.5t-138.5 105.5t-75 159t-22.5 197zM156 1145l307 293h112l312 -289l-51 -59l-318 190l-315 -193z" />
<glyph unicode="&#x10a;" horiz-adv-x="1214" d="M123 692q0 76 11 159t39 165t74 155.5t113.5 130t160.5 90t216 33.5q115 0 203 -17t152 -40l-37 -129q-84 29 -160 38t-141 9q-115 0 -200 -41t-140.5 -117.5t-83 -187.5t-27.5 -248q0 -121 19.5 -224t70.5 -180t139.5 -121t225.5 -44q27 0 67.5 3t85.5 9t92.5 15.5 t88.5 21.5l32 -123q-37 -14 -85 -26.5t-101 -20.5t-107.5 -13t-103.5 -5q-168 0 -282.5 51t-186.5 144t-103.5 224.5t-31.5 288.5zM575 1677q0 47 33 82t80 35t82 -35t35 -82t-35 -80.5t-82 -33.5t-80 33.5t-33 80.5z" />
<glyph unicode="&#x10b;" horiz-adv-x="933" d="M98 487q0 80 18.5 173.5t69 174t139.5 134t230 53.5q68 0 139.5 -9t149.5 -42l-39 -121q-72 25 -129.5 31t-106.5 6q-145 0 -222 -104.5t-77 -278.5q0 -84 14.5 -153.5t47.5 -122t88 -81t139 -28.5q78 0 145.5 16.5t143.5 46.5l45 -110q-66 -35 -157 -59.5t-191 -24.5 q-125 0 -211 37.5t-138.5 105.5t-75 159t-22.5 197zM428 1270q0 47 28.5 79.5t71.5 32.5t74 -32.5t31 -79.5t-31 -79t-74 -32t-71.5 32t-28.5 79z" />
<glyph unicode="&#x10c;" horiz-adv-x="1214" d="M123 692q0 76 11 159t39 165t74 155.5t113.5 130t160.5 90t216 33.5q115 0 203 -17t152 -40l-37 -129q-84 29 -160 38t-141 9q-115 0 -200 -41t-140.5 -117.5t-83 -187.5t-27.5 -248q0 -121 19.5 -224t70.5 -180t139.5 -121t225.5 -44q27 0 67.5 3t85.5 9t92.5 15.5 t88.5 21.5l32 -123q-37 -14 -85 -26.5t-101 -20.5t-107.5 -13t-103.5 -5q-168 0 -282.5 51t-186.5 144t-103.5 224.5t-31.5 288.5zM326 1772l47 55l317 -187l318 187l49 -60l-312 -276h-110z" />
<glyph unicode="&#x10d;" horiz-adv-x="933" d="M98 487q0 80 18.5 173.5t69 174t139.5 134t230 53.5q68 0 139.5 -9t149.5 -42l-39 -121q-72 25 -129.5 31t-106.5 6q-145 0 -222 -104.5t-77 -278.5q0 -84 14.5 -153.5t47.5 -122t88 -81t139 -28.5q78 0 145.5 16.5t143.5 46.5l45 -110q-66 -35 -157 -59.5t-191 -24.5 q-125 0 -211 37.5t-138.5 105.5t-75 159t-22.5 197zM176 1409l47 57l318 -198l317 196l49 -59l-311 -289h-111z" />
<glyph unicode="&#x10e;" horiz-adv-x="1318" d="M164 0v1403h457q170 0 281.5 -56.5t177 -152.5t91 -222t25.5 -267q0 -143 -28.5 -271.5t-97.5 -224.5t-182.5 -152.5t-285.5 -56.5h-438zM227 1772l47 55l318 -187l317 187l49 -60l-311 -276h-110zM342 135h240q31 0 75.5 4t93 20.5t95.5 51.5t85 96.5t61.5 154.5 t23.5 228q0 137 -21.5 233.5t-56.5 161t-80 101.5t-92 55.5t-92 23.5t-82 5h-250v-1135z" />
<glyph unicode="&#x10f;" horiz-adv-x="1308" d="M98 481q0 115 21.5 213.5t70 171t126 114.5t188.5 42q29 0 64.5 -4t72.5 -13.5t73 -22.5t66 -34v508h168v-1456h-164v94l-4 4q-61 -51 -144 -80.5t-163 -29.5q-109 0 -180.5 40t-114.5 107.5t-61.5 156.5t-18.5 189zM270 479q0 -104 18.5 -173.5t50.5 -111.5t78 -59.5 t101 -17.5q31 0 69 9t74.5 24.5t68.5 33t50 35.5v598q-16 12 -44.5 24.5t-63.5 24t-73 17.5t-71 6q-53 0 -99 -19.5t-82 -66.5t-56.5 -126t-20.5 -198zM1083 1413q0 41 31 72t78 31q51 0 83 -35t30 -88q-4 -78 -48.5 -142.5t-121.5 -105.5l-41 51q61 55 61 121 q-72 20 -72 96z" />
<glyph unicode="&#x110;" horiz-adv-x="1318" d="M37 674v125h127v604h457q170 0 281.5 -56.5t177 -152.5t91 -222t25.5 -267q0 -143 -28.5 -271.5t-97.5 -224.5t-182.5 -152.5t-285.5 -56.5h-438v674h-127zM342 135h240q31 0 75.5 4t93 20.5t95.5 51.5t85 96.5t61.5 154.5t23.5 228q0 137 -21.5 233.5t-56.5 161 t-80 101.5t-92 55.5t-92 23.5t-82 5h-250v-471h324v-125h-324v-539z" />
<glyph unicode="&#x111;" horiz-adv-x="1069" d="M98 461q0 115 21.5 210t70 164.5t126 107.5t188.5 38q29 0 64.5 -4t72.5 -13.5t73 -22.5t66 -34v211h-319v94h319v244h168v-244h137v-94h-137v-1118h-164v94l-4 4q-61 -51 -144 -80.5t-163 -29.5q-109 0 -180.5 36.5t-114.5 100t-61.5 149.5t-18.5 187zM270 459 q0 -104 18.5 -171t50.5 -105t78 -52t101 -14q31 0 69 9t74.5 24.5t68.5 33t50 35.5v557q-16 12 -44.5 24.5t-63.5 24t-73 17.5t-71 6q-53 0 -99 -16.5t-82 -59.5t-56.5 -118.5t-20.5 -194.5z" />
<glyph unicode="&#x112;" horiz-adv-x="1155" d="M164 0v1401h854v-131h-680v-465h573v-127h-573v-545h713v-133h-887zM270 1530v131h668v-131h-668z" />
<glyph unicode="&#x113;" horiz-adv-x="1034" d="M98 498q0 45 6.5 101t23.5 113.5t48 114t80 99.5t118 69.5t163 26.5q100 0 168.5 -26.5t113.5 -69.5t69.5 -96.5t36 -106.5t13.5 -100.5t2 -77.5v-80h-670q0 -70 12.5 -133.5t45 -111.5t88 -76.5t139.5 -28.5q88 0 160.5 18.5t158.5 52.5l41 -106q-90 -47 -181 -69.5 t-191 -22.5q-133 0 -219 41t-136.5 109.5t-70 161.5t-19.5 198zM199 1212v131h673v-131h-673zM272 573h510q0 72 -12 132.5t-40 103.5t-73.5 66.5t-115.5 23.5q-72 0 -121 -26.5t-81 -71.5t-47.5 -104.5t-19.5 -123.5z" />
<glyph unicode="&#x114;" horiz-adv-x="1155" d="M164 0v1401h854v-131h-680v-465h573v-127h-573v-545h713v-133h-887zM248 1724l96 68q55 -76 119.5 -123t124.5 -47q18 0 44.5 4t62.5 19.5t81 47t103 87.5l55 -51q-90 -129 -181 -181.5t-173 -52.5q-53 0 -100.5 19.5t-88.5 51t-76.5 73.5t-66.5 85z" />
<glyph unicode="&#x115;" horiz-adv-x="1034" d="M98 498q0 45 6.5 101t23.5 113.5t48 114t80 99.5t118 69.5t163 26.5q100 0 168.5 -26.5t113.5 -69.5t69.5 -96.5t36 -106.5t13.5 -100.5t2 -77.5v-80h-670q0 -70 12.5 -133.5t45 -111.5t88 -76.5t139.5 -28.5q88 0 160.5 18.5t158.5 52.5l41 -106q-90 -47 -181 -69.5 t-191 -22.5q-133 0 -219 41t-136.5 109.5t-70 161.5t-19.5 198zM201 1358l96 69q55 -78 118.5 -124t123.5 -46q18 0 45.5 3.5t63.5 18.5t81 47t102 87l56 -51q-90 -129 -181.5 -181.5t-173.5 -52.5q-53 0 -100 19.5t-88 52.5t-77 74t-66 84zM272 573h510q0 72 -12 132.5 t-40 103.5t-73.5 66.5t-115.5 23.5q-72 0 -121 -26.5t-81 -71.5t-47.5 -104.5t-19.5 -123.5z" />
<glyph unicode="&#x116;" horiz-adv-x="1155" d="M164 0v1401h854v-131h-680v-465h573v-127h-573v-545h713v-133h-887zM522 1665q0 47 33 82t80 35t82 -35t35 -82t-35 -81t-82 -34t-80 34t-33 81z" />
<glyph unicode="&#x117;" horiz-adv-x="1034" d="M98 498q0 45 6.5 101t23.5 113.5t48 114t80 99.5t118 69.5t163 26.5q100 0 168.5 -26.5t113.5 -69.5t69.5 -96.5t36 -106.5t13.5 -100.5t2 -77.5v-80h-670q0 -70 12.5 -133.5t45 -111.5t88 -76.5t139.5 -28.5q88 0 160.5 18.5t158.5 52.5l41 -106q-90 -47 -181 -69.5 t-191 -22.5q-133 0 -219 41t-136.5 109.5t-70 161.5t-19.5 198zM272 573h510q0 72 -12 132.5t-40 103.5t-73.5 66.5t-115.5 23.5q-72 0 -121 -26.5t-81 -71.5t-47.5 -104.5t-19.5 -123.5zM426 1268q0 47 33 81.5t80 34.5t81.5 -34.5t34.5 -81.5t-34.5 -81t-81.5 -34t-80 34 t-33 81z" />
<glyph unicode="&#x118;" horiz-adv-x="1155" d="M164 0v1401h854v-131h-680v-465h573v-127h-573v-545h713v-133h-41q-41 -53 -66.5 -114.5t-25.5 -108.5q0 -59 32.5 -82t87.5 -23q41 0 80 8.5t68 14.5l12 -66q-49 -25 -106.5 -39t-114.5 -14q-96 0 -146.5 39t-50.5 109q0 51 28 124.5t114 151.5h-758z" />
<glyph unicode="&#x119;" horiz-adv-x="1034" d="M98 498q0 45 6.5 101t23.5 113.5t48 114t80 99.5t118 69.5t163 26.5q100 0 168.5 -26.5t113.5 -69.5t69.5 -96.5t36 -106.5t13.5 -100.5t2 -77.5v-80h-670q0 -70 12.5 -133.5t45 -111.5t88 -76.5t139.5 -28.5q88 0 160.5 18.5t158.5 52.5l41 -106q-66 -37 -122 -53 q-31 -49 -50.5 -100.5t-19.5 -90.5q0 -59 32.5 -81.5t88.5 -22.5q41 0 80 8t67 14l13 -65q-49 -25 -106.5 -39.5t-115.5 -14.5q-96 0 -146 39t-50 109q0 41 16 97.5t66 117.5q-31 -4 -62 -7t-63 -3q-133 0 -219 41t-136.5 109.5t-70 161.5t-19.5 198zM272 573h510 q0 72 -12 132.5t-40 103.5t-73.5 66.5t-115.5 23.5q-72 0 -121 -26.5t-81 -71.5t-47.5 -104.5t-19.5 -123.5z" />
<glyph unicode="&#x11a;" horiz-adv-x="1155" d="M164 0v1401h854v-131h-680v-465h573v-127h-573v-545h713v-133h-887zM209 1772l47 55l317 -187l318 187l49 -60l-311 -276h-111z" />
<glyph unicode="&#x11b;" horiz-adv-x="1034" d="M98 498q0 45 6.5 101t23.5 113.5t48 114t80 99.5t118 69.5t163 26.5q100 0 168.5 -26.5t113.5 -69.5t69.5 -96.5t36 -106.5t13.5 -100.5t2 -77.5v-80h-670q0 -70 12.5 -133.5t45 -111.5t88 -76.5t139.5 -28.5q88 0 160.5 18.5t158.5 52.5l41 -106q-90 -47 -181 -69.5 t-191 -22.5q-133 0 -219 41t-136.5 109.5t-70 161.5t-19.5 198zM166 1409l47 57l317 -198l318 196l49 -59l-311 -289h-111zM272 573h510q0 72 -12 132.5t-40 103.5t-73.5 66.5t-115.5 23.5q-72 0 -121 -26.5t-81 -71.5t-47.5 -104.5t-19.5 -123.5z" />
<glyph unicode="&#x11c;" horiz-adv-x="1288" d="M123 694q0 74 11 158t39 165t76 154.5t119.5 130t170 90t229.5 33.5q113 0 204 -17t154 -40l-34 -129q-88 29 -166 38t-144 9q-123 0 -214 -42t-149.5 -119.5t-87 -188.5t-28.5 -250q0 -117 19.5 -219t68.5 -177t133 -119t213 -44q27 0 59.5 2t66.5 6t66 9.5t56 13.5v563 h162v-672q-104 -35 -212 -50t-212 -15q-166 0 -279.5 52t-185.5 145t-103.5 224.5t-31.5 288.5zM365 1550l307 283h112l312 -279l-52 -59l-317 182l-315 -184z" />
<glyph unicode="&#x11d;" horiz-adv-x="1124" d="M90 -150q0 86 44 147.5t89 86.5q-59 12 -91 49t-32 96q0 45 14.5 75t38 50.5t51 30.5t52.5 16l4 7q-51 29 -91 89t-40 167q0 96 35 164.5t92 111.5t129 63.5t143 20.5q51 0 99.5 -5t91.5 -20h323v-106h-155l-4 -10q35 -37 52 -93.5t17 -117.5q0 -82 -31.5 -145.5 t-87 -107.5t-132 -66.5t-169.5 -22.5h-110q-74 0 -118 -14.5t-44 -61.5q0 -33 28.5 -50.5t76.5 -17.5h262q184 0 282.5 -77.5t98.5 -225.5q0 -74 -34 -134t-97.5 -103t-154.5 -65.5t-204 -22.5q-129 0 -212 24.5t-131 65.5t-66.5 93t-18.5 109zM172 1145l307 293h113 l311 -289l-51 -59l-317 190l-316 -193zM254 -121q0 -39 11 -74.5t44 -63.5t88.5 -44t145.5 -16q143 0 220 54t77 144q0 31 -8.5 63.5t-34 59.5t-72.5 43t-123 16h-227q-20 -6 -42 -24.5t-39.5 -44t-28.5 -55t-11 -58.5zM299 672q0 -102 59.5 -162.5t159.5 -60.5 q57 0 105.5 13t83 40.5t55 70t20.5 99.5q0 39 -11 80t-40 73.5t-76 53t-116 20.5q-119 0 -179.5 -59.5t-60.5 -167.5z" />
<glyph unicode="&#x11e;" horiz-adv-x="1288" d="M123 694q0 74 11 158t39 165t76 154.5t119.5 130t170 90t229.5 33.5q113 0 204 -17t154 -40l-34 -129q-88 29 -166 38t-144 9q-123 0 -214 -42t-149.5 -119.5t-87 -188.5t-28.5 -250q0 -117 19.5 -219t68.5 -177t133 -119t213 -44q27 0 59.5 2t66.5 6t66 9.5t56 13.5v563 h162v-672q-104 -35 -212 -50t-212 -15q-166 0 -279.5 52t-185.5 145t-103.5 224.5t-31.5 288.5zM379 1724l96 68q55 -76 119.5 -123t124.5 -47q18 0 45 4t62.5 19.5t80.5 47t103 87.5l55 -51q-90 -129 -181 -181.5t-173 -52.5q-53 0 -100.5 19.5t-88.5 51t-76.5 73.5 t-66.5 85z" />
<glyph unicode="&#x11f;" horiz-adv-x="1124" d="M90 -150q0 86 44 147.5t89 86.5q-59 12 -91 49t-32 96q0 45 14.5 75t38 50.5t51 30.5t52.5 16l4 7q-51 29 -91 89t-40 167q0 96 35 164.5t92 111.5t129 63.5t143 20.5q51 0 99.5 -5t91.5 -20h323v-106h-155l-4 -10q35 -37 52 -93.5t17 -117.5q0 -82 -31.5 -145.5 t-87 -107.5t-132 -66.5t-169.5 -22.5h-110q-74 0 -118 -14.5t-44 -61.5q0 -33 28.5 -50.5t76.5 -17.5h262q184 0 282.5 -77.5t98.5 -225.5q0 -74 -34 -134t-97.5 -103t-154.5 -65.5t-204 -22.5q-129 0 -212 24.5t-131 65.5t-66.5 93t-18.5 109zM211 1358l96 69 q55 -78 118.5 -124t123.5 -46q18 0 46 3.5t63.5 18.5t80.5 47t103 87l55 -51q-90 -129 -181 -181.5t-173 -52.5q-53 0 -100.5 19.5t-88.5 52.5t-76.5 74t-66.5 84zM254 -121q0 -39 11 -74.5t44 -63.5t88.5 -44t145.5 -16q143 0 220 54t77 144q0 31 -8.5 63.5t-34 59.5 t-72.5 43t-123 16h-227q-20 -6 -42 -24.5t-39.5 -44t-28.5 -55t-11 -58.5zM299 672q0 -102 59.5 -162.5t159.5 -60.5q57 0 105.5 13t83 40.5t55 70t20.5 99.5q0 39 -11 80t-40 73.5t-76 53t-116 20.5q-119 0 -179.5 -59.5t-60.5 -167.5z" />
<glyph unicode="&#x120;" horiz-adv-x="1288" d="M123 694q0 74 11 158t39 165t76 154.5t119.5 130t170 90t229.5 33.5q113 0 204 -17t154 -40l-34 -129q-88 29 -166 38t-144 9q-123 0 -214 -42t-149.5 -119.5t-87 -188.5t-28.5 -250q0 -117 19.5 -219t68.5 -177t133 -119t213 -44q27 0 59.5 2t66.5 6t66 9.5t56 13.5v563 h162v-672q-104 -35 -212 -50t-212 -15q-166 0 -279.5 52t-185.5 145t-103.5 224.5t-31.5 288.5zM641 1663q0 47 33 82t80 35t81.5 -35t34.5 -82t-34.5 -81t-81.5 -34t-80 34t-33 81z" />
<glyph unicode="&#x121;" horiz-adv-x="1124" d="M90 -150q0 86 44 147.5t89 86.5q-59 12 -91 49t-32 96q0 45 14.5 75t38 50.5t51 30.5t52.5 16l4 7q-51 29 -91 89t-40 167q0 96 35 164.5t92 111.5t129 63.5t143 20.5q51 0 99.5 -5t91.5 -20h323v-106h-155l-4 -10q35 -37 52 -93.5t17 -117.5q0 -82 -31.5 -145.5 t-87 -107.5t-132 -66.5t-169.5 -22.5h-110q-74 0 -118 -14.5t-44 -61.5q0 -33 28.5 -50.5t76.5 -17.5h262q184 0 282.5 -77.5t98.5 -225.5q0 -74 -34 -134t-97.5 -103t-154.5 -65.5t-204 -22.5q-129 0 -212 24.5t-131 65.5t-66.5 93t-18.5 109zM254 -121q0 -39 11 -74.5 t44 -63.5t88.5 -44t145.5 -16q143 0 220 54t77 144q0 31 -8.5 63.5t-34 59.5t-72.5 43t-123 16h-227q-20 -6 -42 -24.5t-39.5 -44t-28.5 -55t-11 -58.5zM299 672q0 -102 59.5 -162.5t159.5 -60.5q57 0 105.5 13t83 40.5t55 70t20.5 99.5q0 39 -11 80t-40 73.5t-76 53 t-116 20.5q-119 0 -179.5 -59.5t-60.5 -167.5zM420 1268q0 47 32.5 81.5t79.5 34.5t82 -34.5t35 -81.5t-34.5 -81t-82.5 -34q-47 0 -79.5 34t-32.5 81z" />
<glyph unicode="&#x122;" horiz-adv-x="1288" d="M123 694q0 74 11 158t39 165t76 154.5t119.5 130t170 90t229.5 33.5q113 0 204 -17t154 -40l-34 -129q-88 29 -166 38t-144 9q-123 0 -214 -42t-149.5 -119.5t-87 -188.5t-28.5 -250q0 -117 19.5 -219t68.5 -177t133 -119t213 -44q27 0 59.5 2t66.5 6t66 9.5t56 13.5v563 h162v-672q-104 -35 -212 -50t-212 -15q-166 0 -279.5 52t-185.5 145t-103.5 224.5t-31.5 288.5zM604 -184q0 41 31 71.5t78 30.5q51 0 82.5 -35t29.5 -88q-4 -78 -48 -142.5t-122 -105.5l-41 52q61 55 62 120q-72 21 -72 97z" />
<glyph unicode="&#x123;" horiz-adv-x="1124" d="M90 -150q0 86 44 147.5t89 86.5q-59 12 -91 49t-32 96q0 45 14.5 75t38 50.5t51 30.5t52.5 16l4 7q-51 29 -91 89t-40 167q0 96 35 164.5t92 111.5t129 63.5t143 20.5q51 0 99.5 -5t91.5 -20h323v-106h-155l-4 -10q35 -37 52 -93.5t17 -117.5q0 -82 -31.5 -145.5 t-87 -107.5t-132 -66.5t-169.5 -22.5h-110q-74 0 -118 -14.5t-44 -61.5q0 -33 28.5 -50.5t76.5 -17.5h262q184 0 282.5 -77.5t98.5 -225.5q0 -74 -34 -134t-97.5 -103t-154.5 -65.5t-204 -22.5q-129 0 -212 24.5t-131 65.5t-66.5 93t-18.5 109zM254 -121q0 -39 11 -74.5 t44 -63.5t88.5 -44t145.5 -16q143 0 220 54t77 144q0 31 -8.5 63.5t-34 59.5t-72.5 43t-123 16h-227q-20 -6 -42 -24.5t-39.5 -44t-28.5 -55t-11 -58.5zM299 672q0 -102 59.5 -162.5t159.5 -60.5q57 0 105.5 13t83 40.5t55 70t20.5 99.5q0 39 -11 80t-40 73.5t-76 53 t-116 20.5q-119 0 -179.5 -59.5t-60.5 -167.5zM420 1239v4q4 78 49 139.5t125 102.5l41 -51q-31 -29 -46.5 -56.5t-15.5 -58.5q35 -10 54.5 -35.5t19.5 -62.5q0 -41 -32.5 -72t-79.5 -31q-51 0 -83 34t-32 87z" />
<glyph unicode="&#x124;" horiz-adv-x="1337" d="M164 0v1401h178q0 -150 -1 -295t-1 -295h655v590h179v-1401h-179v670h-655q0 -168 1 -335t1 -335h-178zM287 1550l307 283h113l311 -279l-51 -59l-318 182l-315 -184z" />
<glyph unicode="&#x125;" horiz-adv-x="1052" d="M-158 1577l308 283h112l311 -279l-51 -59l-317 182l-316 -184zM119 0v1456h166v-323l-6 -213l16 -9q92 47 187.5 79t162.5 32q102 0 159.5 -29.5t86.5 -76t35 -103.5t6 -113v-700h-166v659q0 51 -5 93.5t-22.5 72t-52.5 45t-94 15.5q-72 0 -156 -31t-149 -68v-786h-168z " />
<glyph unicode="&#x126;" horiz-adv-x="1337" d="M29 1038v97h135v266h178v-266h653v266h179v-266h131v-97h-131v-1038h-179v670h-653v-670h-178v1038h-135zM342 811h653v227h-653v-227z" />
<glyph unicode="&#x127;" horiz-adv-x="1091" d="M10 1081v97h148v278h166v-278h372v-97h-372v-237q94 51 191 84t169 33q102 0 159.5 -30t86 -76t35 -103.5t6.5 -112.5v-639h-166v598q0 51 -5 93t-22.5 72t-52.5 45t-94 15q-72 0 -156 -30.5t-149 -67.5v-725h-168v1081h-148z" />
<glyph unicode="&#x128;" horiz-adv-x="540" d="M-51 1589q25 70 72 112t106 42q37 0 77 -12.5t79 -27.5t74.5 -27.5t64.5 -12.5l117 82l57 -45q-23 -70 -70 -113t-106 -43q-47 0 -88 12.5t-78 27.5t-69.5 27.5t-61.5 12.5l-117 -80zM184 0v1403h172v-1403h-172z" />
<glyph unicode="&#x129;" horiz-adv-x="520" d="M-59 1225q25 70 71.5 111.5t106.5 41.5q37 0 77 -12t78.5 -27.5t74.5 -28t65 -12.5l116 82l58 -45q-23 -70 -70 -112.5t-106 -42.5q-47 0 -88 12t-78 27.5t-70 28t-61 12.5l-117 -80zM174 0v999h166v-999h-166z" />
<glyph unicode="&#x12a;" horiz-adv-x="540" d="M-63 1530v131h667v-131h-667zM184 0v1403h172v-1403h-172z" />
<glyph unicode="&#x12b;" horiz-adv-x="520" d="M-80 1212v131h674v-131h-674zM174 0v999h166v-999h-166z" />
<glyph unicode="&#x12c;" horiz-adv-x="540" d="M-74 1731l97 67q55 -76 119.5 -123t123.5 -47q18 0 45 4t63 19.5t81 47.5t102 87l55 -51q-90 -129 -181 -181.5t-173 -52.5q-53 0 -100 19.5t-88 51.5t-77 74t-67 85zM184 0v1403h172v-1403h-172z" />
<glyph unicode="&#x12d;" horiz-adv-x="563" d="M-61 1358l96 69q55 -78 118.5 -124t122.5 -46q18 0 46 3.5t64 18.5t81 47t102 87l56 -51q-90 -129 -181.5 -181.5t-173.5 -52.5q-53 0 -100 19.5t-88 52.5t-77 74t-66 84zM174 0v999h166v-999h-166z" />
<glyph unicode="&#x12e;" horiz-adv-x="540" d="M74 -274q0 51 27.5 123.5t111.5 150.5h-29v1403h172v-1403h-55q-41 -53 -65.5 -114.5t-24.5 -106.5q0 -59 32.5 -82t88.5 -23q41 0 80 8.5t67 14.5l13 -66q-49 -25 -106.5 -39t-115.5 -14q-96 0 -146 39t-50 109z" />
<glyph unicode="&#x12f;" horiz-adv-x="520" d="M59 -264q0 49 26 119.5t103 144.5h-14v999h166v-999h-59q-39 -53 -61.5 -110.5t-22.5 -100.5q0 -59 32.5 -81.5t87.5 -22.5q41 0 80 8t68 14l12 -65q-49 -25 -106.5 -39.5t-114.5 -14.5q-96 0 -146.5 39t-50.5 109zM150 1262q0 47 32.5 78.5t75.5 31.5q47 0 80 -31.5 t33 -78.5q0 -43 -33 -76t-80 -33q-43 0 -75.5 33t-32.5 76z" />
<glyph unicode="&#x130;" horiz-adv-x="540" d="M154 1661q0 47 32.5 82t79.5 35t82 -35t35 -82t-35 -81t-82 -34t-79.5 34t-32.5 81zM184 0v1403h172v-1403h-172z" />
<glyph unicode="&#x131;" horiz-adv-x="520" d="M174 0v999h166v-999h-166z" />
<glyph unicode="&#x132;" horiz-adv-x="1132" d="M184 0v1403h172v-1403h-172zM403 -244q98 55 165 106.5t108 109t58.5 126t17.5 160.5l2 1145h174l-2 -1135q0 -133 -31 -233.5t-90.5 -176t-147.5 -131t-204 -96.5z" />
<glyph unicode="&#x133;" horiz-adv-x="970" d="M150 1262q0 47 32.5 78.5t75.5 31.5q47 0 80 -31.5t33 -78.5q0 -43 -33 -76t-80 -33q-43 0 -75.5 33t-32.5 76zM174 0v999h166v-999h-166zM399 -332q74 43 121 79t74 76t37 89t10 115v972h166v-373.5v-260v-169v-100.5t-1 -55t-1 -33q-4 -92 -22.5 -160.5t-60.5 -121 t-108.5 -93.5t-164.5 -77q-14 29 -25.5 56.5t-24.5 55.5zM618 1262q0 47 32 78.5t77 31.5t78 -31.5t33 -78.5q0 -45 -33 -77t-78 -32t-77 32t-32 77z" />
<glyph unicode="&#x134;" horiz-adv-x="659" d="M-96 -242q98 55 164.5 106.5t107.5 109t58.5 126t17.5 160.5l2 1145h174l-2 -1135q0 -133 -30.5 -233t-90 -176t-147.5 -131.5t-205 -96.5zM-23 1550l308 283h112l312 -279l-52 -59l-317 182l-315 -184z" />
<glyph unicode="&#x135;" horiz-adv-x="608" d="M-61 1145l307 293h112l312 -289l-52 -59l-317 190l-315 -193zM-27 -332q74 43 121 79t74 76t37 89t10 115v972h166v-817v-88t-2 -86q-4 -92 -22.5 -160.5t-60.5 -121t-108.5 -93.5t-164.5 -77q-14 29 -25.5 56.5t-24.5 55.5z" />
<glyph unicode="&#x136;" horiz-adv-x="1187" d="M164 0v1403h172v-637l612 637h197l-543 -559l563 -844h-194l-482 727l-153 -158v-569h-172zM496 -184q0 41 30.5 71.5t77.5 30.5q51 0 83 -35t30 -88q-4 -78 -48 -142.5t-122 -105.5l-41 52q61 55 61 120q-71 21 -71 97z" />
<glyph unicode="&#x137;" horiz-adv-x="927" d="M119 0v1454h168v-635l-8 -227l14 -6q100 104 202.5 206.5t202.5 206.5h189q-94 -98 -192.5 -196t-194.5 -197q16 -23 33.5 -42t33.5 -42l351 -522h-185q-86 127 -168 253t-166 253l-112 -113v-393h-168zM358 -184q0 41 31 71.5t78 30.5q51 0 83 -35t30 -88 q-4 -78 -48.5 -142.5t-121.5 -105.5l-41 52q61 55 61 120q-72 21 -72 97z" />
<glyph unicode="&#x138;" horiz-adv-x="927" d="M119 0v997h168v-178l-8 -227l14 -6q100 104 202.5 206.5t202.5 206.5h189q-94 -98 -192.5 -196t-194.5 -197q16 -23 33.5 -42t33.5 -42l351 -522h-185q-86 127 -168 253t-166 253l-112 -113v-393h-168z" />
<glyph unicode="&#x139;" horiz-adv-x="1099" d="M164 0v1401h174v-1272h741v-129h-915zM193 1556l251 330l123 -108l-297 -285z" />
<glyph unicode="&#x13a;" horiz-adv-x="466" d="M145 1577l252 330l123 -109l-297 -285zM150 0v1456h165l-2 -1456h-163z" />
<glyph unicode="&#x13b;" horiz-adv-x="1099" d="M164 0v1401h174v-1272h741v-129h-915zM479 -184q0 41 31 71.5t78 30.5q51 0 82.5 -35t29.5 -88q-4 -78 -48 -142.5t-122 -105.5l-41 52q61 55 62 120q-72 21 -72 97z" />
<glyph unicode="&#x13c;" horiz-adv-x="466" d="M121 -184q0 41 30.5 71.5t77.5 30.5q51 0 83 -35t30 -88q-4 -78 -48 -142.5t-122 -105.5l-41 52q61 55 62 120q-72 21 -72 97zM150 0v1456h165l-2 -1456h-163z" />
<glyph unicode="&#x13d;" horiz-adv-x="1099" d="M164 0v1401h174v-1272h741v-129h-915zM713 1278q0 41 30.5 71.5t77.5 30.5q51 0 83 -34.5t30 -88.5q-4 -78 -48 -142t-122 -105l-41 51q61 55 61 121q-71 20 -71 96z" />
<glyph unicode="&#x13e;" horiz-adv-x="798" d="M272 0v1456h166l-2 -1456h-164zM559 1358q0 41 31 71.5t78 30.5q51 0 82.5 -34.5t29.5 -88.5q-4 -78 -48 -142.5t-122 -104.5l-41 51q61 55 62 121q-72 20 -72 96z" />
<glyph unicode="&#x13f;" horiz-adv-x="1099" d="M164 0v1401h174v-1272h741v-129h-915zM707 788q0 47 32.5 82t79.5 35t82 -35t35 -82t-35 -80.5t-82 -33.5t-79.5 33.5t-32.5 80.5z" />
<glyph unicode="&#x140;" horiz-adv-x="765" d="M272 0v1456h166l-2 -1456h-164zM549 717q0 47 32.5 82t80.5 35q47 0 81.5 -35t34.5 -82t-34.5 -81t-81.5 -34t-80 34t-33 81z" />
<glyph unicode="&#x141;" horiz-adv-x="1099" d="M-39 494l203 114v793h174v-692l256 147l55 -86l-311 -180v-461h741v-129h-915v487l-146 -84z" />
<glyph unicode="&#x142;" horiz-adv-x="561" d="M-41 584l236 135v737h165l-2 -641l191 109q14 -23 26.5 -44.5t26.5 -41.5q-59 -35 -119.5 -71t-124.5 -71v-696h-163v602l-183 -106z" />
<glyph unicode="&#x143;" horiz-adv-x="1396" d="M164 0v1401h174q131 -201 257 -397.5t255 -397.5l205 -321h10v1116h168v-1401h-170l-541 846l-184 295q-2 0 -3 -1t-5 -1v-1139h-166zM614 1528l252 330l123 -109l-297 -285z" />
<glyph unicode="&#x144;" horiz-adv-x="1052" d="M119 0v999h164l2 -86l6 -4q84 53 180 83t168 30q102 0 160.5 -29.5t88.5 -76t37 -103.5t7 -113v-700h-166v659q0 51 -5 93.5t-22.5 72t-52.5 45t-94 15.5q-72 0 -156 -31t-149 -68v-786h-168zM377 1159l252 332l119 -111l-297 -284z" />
<glyph unicode="&#x145;" horiz-adv-x="1396" d="M164 0v1401h174q131 -201 257 -397.5t255 -397.5l205 -321h10v1116h168v-1401h-170l-541 846l-184 295q-2 0 -3 -1t-5 -1v-1139h-166zM569 -184q0 41 31 71.5t78 30.5q51 0 83 -35t30 -88q-4 -78 -48.5 -142.5t-121.5 -105.5l-41 52q61 55 61 120q-72 21 -72 97z" />
<glyph unicode="&#x146;" horiz-adv-x="1052" d="M119 0v999h164l2 -86l6 -4q84 53 180 83t168 30q102 0 160.5 -29.5t88.5 -76t37 -103.5t7 -113v-700h-166v659q0 51 -5 93.5t-22.5 72t-52.5 45t-94 15.5q-72 0 -156 -31t-149 -68v-786h-168zM430 -184q0 41 31 71.5t78 30.5q51 0 82.5 -35t29.5 -88q-4 -78 -48 -142.5 t-122 -105.5l-41 52q61 55 62 120q-72 21 -72 97z" />
<glyph unicode="&#x147;" horiz-adv-x="1396" d="M164 0v1401h174q131 -201 257 -397.5t255 -397.5l205 -321h10v1116h168v-1401h-170l-541 846l-184 295q-2 0 -3 -1t-5 -1v-1139h-166zM367 1772l47 55l317 -187l318 187l49 -60l-312 -276h-110z" />
<glyph unicode="&#x148;" horiz-adv-x="1052" d="M119 0v999h164l2 -86l6 -4q84 53 180 83t168 30q102 0 160.5 -29.5t88.5 -76t37 -103.5t7 -113v-700h-166v659q0 51 -5 93.5t-22.5 72t-52.5 45t-94 15.5q-72 0 -156 -31t-149 -68v-786h-168zM145 1409l48 57l317 -198l317 196l50 -59l-312 -289h-110z" />
<glyph unicode="&#x149;" horiz-adv-x="1218" d="M2 1251q0 41 30.5 72t78.5 31q51 0 82.5 -35t29.5 -88q-4 -78 -48 -142.5t-122 -105.5l-41 51q61 55 62 121q-72 20 -72 96zM285 0v999h164l2 -86l6 -4q84 53 180 83t168 30q102 0 160.5 -29.5t88 -76t37 -103.5t7.5 -113v-700h-166v659q0 51 -5 93.5t-22.5 72t-52.5 45 t-94 15.5q-72 0 -156 -31t-149 -68v-786h-168z" />
<glyph unicode="&#x14a;" horiz-adv-x="1396" d="M164 0v1401h174q131 -201 257 -397.5t255 -397.5l205 -321h10v1116h168l-2 -1493q0 -145 -88 -219t-236 -74q-41 0 -92 6t-96 17q6 31 10 61.5t10 60.5q37 -4 76 -7t72 -3q76 0 132 36t56 120v74q-66 102 -136.5 212.5t-141 222t-141 221t-134.5 210.5l-184 295 q-2 0 -3 -1t-5 -1v-1139h-166z" />
<glyph unicode="&#x14b;" horiz-adv-x="1052" d="M119 0v999h166v-84l6 -4q86 53 179 82t165 29q102 0 160.5 -29.5t88 -76t38 -103.5t8.5 -113v-524v-98t-2 -98q-4 -150 -89 -224.5t-239 -74.5q-41 0 -92 5t-96 15l18 117q35 -4 70 -7.5t63 -3.5q92 0 146.5 37t54.5 138v677q0 53 -6 95.5t-24.5 71t-53.5 44t-90 15.5 q-72 0 -156 -31t-147 -68v-786h-168z" />
<glyph unicode="&#x14c;" horiz-adv-x="1429" d="M123 690q0 145 31.5 278.5t102.5 235t186.5 160.5t281.5 59q168 0 280.5 -60t179 -160.5t94.5 -232t28 -274.5q0 -152 -37 -282.5t-110 -226t-182.5 -149.5t-252.5 -54q-164 0 -277.5 50t-186.5 142t-105.5 222t-32.5 292zM303 688q0 -281 98.5 -426t323.5 -145 q102 0 178 45t125 122.5t72.5 182t23.5 223.5q0 104 -15 211t-58 194t-121 142t-205 55t-209 -51t-129 -136t-65.5 -193.5t-18.5 -223.5zM381 1530v131h668v-131h-668z" />
<glyph unicode="&#x14d;" horiz-adv-x="1081" d="M98 494q0 100 24.5 194t78 168t139.5 119t209 45q125 0 209 -45t134 -118t70.5 -167t20.5 -192q0 -96 -21.5 -188.5t-73.5 -165t-140.5 -116.5t-219.5 -44q-123 0 -205.5 42t-132 111.5t-71 161.5t-21.5 195zM209 1212v131h674v-131h-674zM272 494q0 -74 10.5 -143.5 t40 -122t84 -84t142.5 -31.5q82 0 132 33.5t78.5 89t39 123t10.5 135.5t-9 137t-38 127.5t-80 95.5t-133 37q-84 0 -137.5 -36t-84 -92t-43 -128t-12.5 -141z" />
<glyph unicode="&#x14e;" horiz-adv-x="1429" d="M123 690q0 145 31.5 278.5t102.5 235t186.5 160.5t281.5 59q168 0 280.5 -60t179 -160.5t94.5 -232t28 -274.5q0 -152 -37 -282.5t-110 -226t-182.5 -149.5t-252.5 -54q-164 0 -277.5 50t-186.5 142t-105.5 222t-32.5 292zM303 688q0 -281 98.5 -426t323.5 -145 q102 0 178 45t125 122.5t72.5 182t23.5 223.5q0 104 -15 211t-58 194t-121 142t-205 55t-209 -51t-129 -136t-65.5 -193.5t-18.5 -223.5zM381 1724l96 68q55 -76 120 -123t124 -47q18 0 45 4t62.5 19.5t80.5 47t103 87.5l55 -51q-90 -129 -181 -181.5t-173 -52.5 q-53 0 -100.5 19.5t-88.5 51t-76.5 73.5t-66.5 85z" />
<glyph unicode="&#x14f;" horiz-adv-x="1081" d="M98 494q0 100 24.5 194t78 168t139.5 119t209 45q125 0 209 -45t134 -118t70.5 -167t20.5 -192q0 -96 -21.5 -188.5t-73.5 -165t-140.5 -116.5t-219.5 -44q-123 0 -205.5 42t-132 111.5t-71 161.5t-21.5 195zM211 1358l96 69q55 -78 118.5 -124t123.5 -46q18 0 46 3.5 t63.5 18.5t80.5 47t103 87l55 -51q-90 -129 -181 -181.5t-173 -52.5q-53 0 -100.5 19.5t-88.5 52.5t-76.5 74t-66.5 84zM272 494q0 -74 10.5 -143.5t40 -122t84 -84t142.5 -31.5q82 0 132 33.5t78.5 89t39 123t10.5 135.5t-9 137t-38 127.5t-80 95.5t-133 37 q-84 0 -137.5 -36t-84 -92t-43 -128t-12.5 -141z" />
<glyph unicode="&#x150;" horiz-adv-x="1429" d="M123 690q0 145 31.5 278.5t102.5 235t186.5 160.5t281.5 59q168 0 280.5 -60t179 -160.5t94.5 -232t28 -274.5q0 -152 -37 -282.5t-110 -226t-182.5 -149.5t-252.5 -54q-164 0 -277.5 50t-186.5 142t-105.5 222t-32.5 292zM303 688q0 -281 98.5 -426t323.5 -145 q102 0 178 45t125 122.5t72.5 182t23.5 223.5q0 104 -15 211t-58 194t-121 142t-205 55t-209 -51t-129 -136t-65.5 -193.5t-18.5 -223.5zM514 1556l240 340l131 -100l-287 -299zM768 1556l240 340l131 -100l-289 -299z" />
<glyph unicode="&#x151;" horiz-adv-x="1081" d="M98 494q0 100 24.5 194t78 168t139.5 119t209 45q125 0 209 -45t134 -118t70.5 -167t20.5 -192q0 -96 -21.5 -188.5t-73.5 -165t-140.5 -116.5t-219.5 -44q-123 0 -205.5 42t-132 111.5t-71 161.5t-21.5 195zM272 494q0 -74 10.5 -143.5t40 -122t84 -84t142.5 -31.5 q82 0 132 33.5t78.5 89t39 123t10.5 135.5t-9 137t-38 127.5t-80 95.5t-133 37q-84 0 -137.5 -36t-84 -92t-43 -128t-12.5 -141zM305 1151l240 342l123 -100l-289 -299zM565 1151l240 342l123 -100l-289 -299z" />
<glyph unicode="&#x152;" horiz-adv-x="1658" d="M98 690q0 145 32 278.5t102.5 235t186 160.5t281.5 59q104 0 189 -24h676v-127h-639v-473h534v-125h-534v-547h671v-127h-751q-35 -6 -71 -10t-75 -4q-164 0 -277.5 49t-186 141t-105.5 222t-33 292zM279 686q0 -281 98 -426t323 -145h24.5t25.5 2v1171q-10 0 -23.5 1 t-28.5 1q-127 0 -207.5 -51t-128 -136t-65.5 -193.5t-18 -223.5z" />
<glyph unicode="&#x153;" horiz-adv-x="1703" d="M80 494q0 100 24.5 194t78 168t138.5 119t207 45q137 0 220 -56.5t131 -144.5q23 41 54.5 78t74.5 64.5t99 44t128 16.5q96 0 163.5 -26.5t111.5 -69.5t69 -95.5t37 -105.5t14 -100t2 -78v-78h-665q0 -70 12 -133.5t44 -112.5t87 -77.5t139 -28.5q88 0 159 17.5t157 53.5 l41 -106q-90 -47 -179.5 -69.5t-189.5 -22.5q-145 0 -231 49t-132 135q-49 -84 -136 -137t-228 -53q-123 0 -205 42t-132 111.5t-71.5 161.5t-21.5 195zM254 494q0 -74 10 -143.5t40 -122t83 -84t141 -31.5q82 0 133.5 33.5t80 89t39 123t10.5 135.5t-10.5 137t-38 127.5 t-80 95.5t-134.5 37q-84 0 -137 -36t-84 -92t-42 -128t-11 -141zM969 569h506q0 74 -12.5 133.5t-40 102.5t-73.5 66.5t-114 23.5q-72 0 -121 -26.5t-79.5 -71.5t-46 -104.5t-19.5 -123.5z" />
<glyph unicode="&#x154;" horiz-adv-x="1202" d="M164 0v1403h481q207 0 312.5 -106.5t105.5 -280.5q0 -125 -62.5 -226.5t-185.5 -136.5q82 -25 119 -93t61 -154l115 -406h-174l-111 385q-20 68 -45.5 112t-57.5 69.5t-73 34.5t-92 9h-221v-610h-172zM336 743h282q41 0 88.5 10.5t87.5 40t65.5 81t25.5 133.5 q0 70 -20.5 120t-57.5 80.5t-86 45t-107 14.5h-278v-525zM465 1556l252 330l123 -108l-297 -285z" />
<glyph unicode="&#x155;" horiz-adv-x="718" d="M141 0v999h164l-6 -133l12 -8q37 33 82 62.5t92 52t92.5 37t84.5 14.5q23 0 37 -10t14 -41q0 -12 -5.5 -32.5t-12.5 -42t-17 -42t-23 -35.5q-86 -10 -173 -21.5t-173 -21.5v-778h-168zM217 1159l252 332l119 -111l-297 -284z" />
<glyph unicode="&#x156;" horiz-adv-x="1202" d="M164 0v1403h481q207 0 312.5 -106.5t105.5 -280.5q0 -125 -62.5 -226.5t-185.5 -136.5q82 -25 119 -93t61 -154l115 -406h-174l-111 385q-20 68 -45.5 112t-57.5 69.5t-73 34.5t-92 9h-221v-610h-172zM336 743h282q41 0 88.5 10.5t87.5 40t65.5 81t25.5 133.5 q0 70 -20.5 120t-57.5 80.5t-86 45t-107 14.5h-278v-525zM494 -184q0 41 30.5 71.5t77.5 30.5q51 0 83 -35t30 -88q-4 -78 -48 -142.5t-122 -105.5l-41 52q61 55 61 120q-71 21 -71 97z" />
<glyph unicode="&#x157;" horiz-adv-x="718" d="M119 -184q0 41 30.5 71.5t77.5 30.5q51 0 83 -35t30 -88q-4 -78 -48 -142.5t-122 -105.5l-41 52q61 55 61 120q-71 21 -71 97zM141 0v999h164l-6 -133l12 -8q37 33 82 62.5t92 52t92.5 37t84.5 14.5q23 0 37 -10t14 -41q0 -12 -5.5 -32.5t-12.5 -42t-17 -42t-23 -35.5 q-86 -10 -173 -21.5t-173 -21.5v-778h-168z" />
<glyph unicode="&#x158;" horiz-adv-x="1202" d="M164 0v1403h481q207 0 312.5 -106.5t105.5 -280.5q0 -125 -62.5 -226.5t-185.5 -136.5q82 -25 119 -93t61 -154l115 -406h-174l-111 385q-20 68 -45.5 112t-57.5 69.5t-73 34.5t-92 9h-221v-610h-172zM182 1772l47 55l318 -187l317 187l49 -60l-311 -276h-110zM336 743 h282q41 0 88.5 10.5t87.5 40t65.5 81t25.5 133.5q0 70 -20.5 120t-57.5 80.5t-86 45t-107 14.5h-278v-525z" />
<glyph unicode="&#x159;" horiz-adv-x="718" d="M-31 1409l47 57l318 -198l317 196l49 -59l-311 -289h-110zM141 0v999h164l-6 -133l12 -8q37 33 82 62.5t92 52t92.5 37t84.5 14.5q23 0 37 -10t14 -41q0 -12 -5.5 -32.5t-12.5 -42t-17 -42t-23 -35.5q-86 -10 -173 -21.5t-173 -21.5v-778h-168z" />
<glyph unicode="&#x15a;" horiz-adv-x="1173" d="M102 92l60 127q125 -59 221 -77.5t174 -18.5q160 0 249 56.5t89 205.5q0 63 -22.5 105t-63.5 70t-96.5 47.5t-118.5 35.5q-92 25 -176 51.5t-148.5 67.5t-102.5 104.5t-38 161.5q0 94 35 168t96.5 125t146.5 77.5t187 26.5q88 0 191.5 -17t193.5 -71l-55 -123 q-100 45 -184.5 58.5t-153.5 13.5q-123 0 -201 -62.5t-78 -191.5q0 -57 26.5 -96t72 -64.5t100.5 -43t115 -31.5q76 -18 155.5 -42t145 -68t107.5 -115.5t42 -186.5q0 -104 -38 -180t-106.5 -125t-163.5 -72.5t-208 -23.5q-111 0 -229.5 24.5t-223.5 83.5zM481 1552l252 330 l123 -108l-297 -285z" />
<glyph unicode="&#x15b;" horiz-adv-x="913" d="M80 66l53 114q96 -43 176 -55t133 -12q47 0 89 8t73 26.5t48.5 49t17.5 75.5q0 39 -17.5 67t-47.5 47.5t-68.5 33.5t-81.5 29q-66 23 -126.5 45t-107.5 54t-75.5 77t-28.5 114q0 72 28.5 125.5t77.5 88t114.5 51t141.5 16.5q31 0 70 -4t79 -12.5t78.5 -21.5t71.5 -34 l-51 -117q-78 31 -137.5 42.5t-112.5 11.5q-39 0 -75.5 -7.5t-64.5 -24.5t-45.5 -46t-17.5 -70q0 -33 21.5 -56.5t54.5 -41.5t70 -30.5t67 -22.5q63 -20 125 -42t111 -55.5t78.5 -84t29.5 -130.5q0 -76 -29.5 -130t-81.5 -89t-125 -51t-159 -16q-45 0 -93 5t-95 14t-91 24.5 t-77 34.5zM348 1159l252 332l119 -111l-297 -284z" />
<glyph unicode="&#x15c;" horiz-adv-x="1173" d="M102 92l60 127q125 -59 221 -77.5t174 -18.5q160 0 249 56.5t89 205.5q0 63 -22.5 105t-63.5 70t-96.5 47.5t-118.5 35.5q-92 25 -176 51.5t-148.5 67.5t-102.5 104.5t-38 161.5q0 94 35 168t96.5 125t146.5 77.5t187 26.5q88 0 191.5 -17t193.5 -71l-55 -123 q-100 45 -184.5 58.5t-153.5 13.5q-123 0 -201 -62.5t-78 -191.5q0 -57 26.5 -96t72 -64.5t100.5 -43t115 -31.5q76 -18 155.5 -42t145 -68t107.5 -115.5t42 -186.5q0 -104 -38 -180t-106.5 -125t-163.5 -72.5t-208 -23.5q-111 0 -229.5 24.5t-223.5 83.5zM236 1550l307 283 h112l312 -279l-52 -59l-317 182l-315 -184z" />
<glyph unicode="&#x15d;" horiz-adv-x="913" d="M80 66l53 114q96 -43 176 -55t133 -12q47 0 89 8t73 26.5t48.5 49t17.5 75.5q0 39 -17.5 67t-47.5 47.5t-68.5 33.5t-81.5 29q-66 23 -126.5 45t-107.5 54t-75.5 77t-28.5 114q0 72 28.5 125.5t77.5 88t114.5 51t141.5 16.5q31 0 70 -4t79 -12.5t78.5 -21.5t71.5 -34 l-51 -117q-78 31 -137.5 42.5t-112.5 11.5q-39 0 -75.5 -7.5t-64.5 -24.5t-45.5 -46t-17.5 -70q0 -33 21.5 -56.5t54.5 -41.5t70 -30.5t67 -22.5q63 -20 125 -42t111 -55.5t78.5 -84t29.5 -130.5q0 -76 -29.5 -130t-81.5 -89t-125 -51t-159 -16q-45 0 -93 5t-95 14t-91 24.5 t-77 34.5zM106 1145l308 293h112l312 -289l-52 -59l-317 190l-315 -193z" />
<glyph unicode="&#x15e;" horiz-adv-x="1173" d="M102 92l60 127q125 -59 221 -77.5t174 -18.5q160 0 249 56.5t89 205.5q0 63 -22.5 105t-63.5 70t-96.5 47.5t-118.5 35.5q-92 25 -176 51.5t-148.5 67.5t-102.5 104.5t-38 161.5q0 94 35 168t96.5 125t146.5 77.5t187 26.5q88 0 191.5 -17t193.5 -71l-55 -123 q-100 45 -184.5 58.5t-153.5 13.5q-123 0 -201 -62.5t-78 -191.5q0 -57 26.5 -96t72 -64.5t100.5 -43t115 -31.5q76 -18 155.5 -42t145 -68t107.5 -115.5t42 -186.5q0 -96 -32.5 -169t-92 -122t-141.5 -75.5t-182 -32.5q-23 -29 -44.5 -57.5t-41.5 -57.5q100 -4 161.5 -44 t61.5 -118q0 -86 -89 -147.5t-278 -61.5v74q111 10 176.5 39t65.5 82q0 27 -18.5 44t-48 25.5t-66.5 11.5t-74 3l-27 39q33 41 64 83t63 83q-104 4 -215.5 27.5t-210.5 80.5z" />
<glyph unicode="&#x15f;" horiz-adv-x="913" d="M80 66l53 114q96 -43 176 -55t133 -12q47 0 89 8t73 26.5t48.5 49t17.5 75.5q0 39 -17.5 67t-47.5 47.5t-68.5 33.5t-81.5 29q-66 23 -126.5 45t-107.5 54t-75.5 77t-28.5 114q0 72 28.5 125.5t77.5 88t114.5 51t141.5 16.5q31 0 70 -4t79 -12.5t78.5 -21.5t71.5 -34 l-51 -117q-78 31 -137.5 42.5t-112.5 11.5q-39 0 -75.5 -7.5t-64.5 -24.5t-45.5 -46t-17.5 -70q0 -33 21.5 -56.5t54.5 -41.5t70 -30.5t67 -22.5q63 -20 125 -42t111 -55.5t78.5 -84t29.5 -130.5q0 -137 -93 -205.5t-240 -78.5l-90 -119q100 -4 161.5 -44t61.5 -118 q0 -86 -89 -147.5t-278 -61.5v74q111 10 176.5 39t65.5 82q0 27 -18.5 44t-48 25.5t-66.5 11.5t-74 3l-27 39q35 43 66 86t63 84q-84 4 -172 23.5t-149 54.5z" />
<glyph unicode="&#x160;" horiz-adv-x="1173" d="M102 92l60 127q125 -59 221 -77.5t174 -18.5q160 0 249 56.5t89 205.5q0 63 -22.5 105t-63.5 70t-96.5 47.5t-118.5 35.5q-92 25 -176 51.5t-148.5 67.5t-102.5 104.5t-38 161.5q0 94 35 168t96.5 125t146.5 77.5t187 26.5q88 0 191.5 -17t193.5 -71l-55 -123 q-100 45 -184.5 58.5t-153.5 13.5q-123 0 -201 -62.5t-78 -191.5q0 -57 26.5 -96t72 -64.5t100.5 -43t115 -31.5q76 -18 155.5 -42t145 -68t107.5 -115.5t42 -186.5q0 -104 -38 -180t-106.5 -125t-163.5 -72.5t-208 -23.5q-111 0 -229.5 24.5t-223.5 83.5zM219 1772l47 55 l318 -187l317 187l49 -60l-311 -276h-111z" />
<glyph unicode="&#x161;" horiz-adv-x="913" d="M80 66l53 114q96 -43 176 -55t133 -12q47 0 89 8t73 26.5t48.5 49t17.5 75.5q0 39 -17.5 67t-47.5 47.5t-68.5 33.5t-81.5 29q-66 23 -126.5 45t-107.5 54t-75.5 77t-28.5 114q0 72 28.5 125.5t77.5 88t114.5 51t141.5 16.5q31 0 70 -4t79 -12.5t78.5 -21.5t71.5 -34 l-51 -117q-78 31 -137.5 42.5t-112.5 11.5q-39 0 -75.5 -7.5t-64.5 -24.5t-45.5 -46t-17.5 -70q0 -33 21.5 -56.5t54.5 -41.5t70 -30.5t67 -22.5q63 -20 125 -42t111 -55.5t78.5 -84t29.5 -130.5q0 -76 -29.5 -130t-81.5 -89t-125 -51t-159 -16q-45 0 -93 5t-95 14t-91 24.5 t-77 34.5zM86 1409l47 57l318 -198l317 196l49 -59l-311 -289h-111z" />
<glyph unicode="&#x162;" horiz-adv-x="1153" d="M41 1266v137h1071v-137h-448l-2 -1266h-170v1266h-451zM465 -184q0 41 30.5 71.5t77.5 30.5q51 0 83 -35t30 -88q-4 -78 -48 -142.5t-122 -105.5l-41 52q61 55 62 120q-72 21 -72 97z" />
<glyph unicode="&#x163;" horiz-adv-x="729" d="M41 879v88l154 47l51 221l106 18v-254h301v-120h-303v-592q0 -72 28 -118t111 -46q68 0 189 35l27 -113q-55 -27 -122 -41t-128 -14q-268 0 -269 246v643h-145zM274 -184q0 41 31 71.5t78 30.5q51 0 83 -35t30 -88q-4 -78 -48.5 -142.5t-121.5 -105.5l-41 52 q61 55 61 120q-72 21 -72 97z" />
<glyph unicode="&#x164;" horiz-adv-x="1153" d="M41 1266v137h1071v-137h-448l-2 -1266h-170v1266h-451zM209 1772l47 55l317 -187l318 187l49 -60l-311 -276h-111z" />
<glyph unicode="&#x165;" horiz-adv-x="901" d="M41 879v88l154 47l51 221l106 18v-254h301v-120h-303v-592q0 -72 28 -118t111 -46q68 0 189 35l27 -113q-55 -27 -122 -41t-128 -14q-268 0 -269 246v643h-145zM643 1327q0 41 31 72t78 31q51 0 82.5 -35t29.5 -88q-4 -78 -48 -142.5t-122 -105.5l-41 51q61 55 62 121 q-72 20 -72 96z" />
<glyph unicode="&#x166;" horiz-adv-x="1153" d="M41 1266v137h1071v-137h-448l-2 -463h309v-107h-309v-696h-170v696h-332v107h332v463h-451z" />
<glyph unicode="&#x167;" horiz-adv-x="755" d="M37 879v88l153 45l52 223l106 16v-252h301v-120h-301v-170h295v-105h-295v-332q2 -63 30 -106t107 -43q37 0 83 8t106 25q8 -29 13 -56.5t13 -56.5q-55 -25 -121.5 -39t-127.5 -14q-123 0 -196 56t-73 196v362h-141v105h141v170h-145z" />
<glyph unicode="&#x168;" horiz-adv-x="1361" d="M147 504v899h172v-901q0 -193 94.5 -289t268.5 -96t269.5 95t95.5 290l-3 901h173v-899q0 -117 -33 -213t-99.5 -165t-167 -105.5t-237.5 -36.5q-281 0 -407 138t-126 382zM360 1602q25 70 72 111.5t107 41.5q37 0 76.5 -12t78.5 -27.5t75 -28t65 -12.5l116 82l58 -45 q-23 -70 -70.5 -113t-106.5 -43q-47 0 -88 12.5t-77.5 28t-69.5 27.5t-61 12l-117 -80z" />
<glyph unicode="&#x169;" horiz-adv-x="1032" d="M119 297v702h166v-661q0 -53 5 -94t22.5 -70t51 -44t93.5 -15q57 0 138 30.5t153 96.5v757q41 0 81.5 1t81.5 1v-1001h-161l-2 113l-5 4q-49 -43 -98 -71t-93 -43t-80.5 -20.5t-63.5 -5.5q-102 0 -160 29t-86.5 75t-35.5 103.5t-7 112.5zM193 1217q25 70 71.5 111.5 t106.5 41.5q37 0 76.5 -12t78.5 -27.5t75 -28t65 -12.5l116 82l58 -45q-23 -70 -70 -113t-106 -43q-47 0 -88 12.5t-78 28t-70 27.5t-61 12l-117 -80z" />
<glyph unicode="&#x16a;" horiz-adv-x="1361" d="M147 504v899h172v-901q0 -193 94.5 -289t268.5 -96t269.5 95t95.5 290l-3 901h173v-899q0 -117 -33 -213t-99.5 -165t-167 -105.5t-237.5 -36.5q-281 0 -407 138t-126 382zM344 1530v131h668v-131h-668z" />
<glyph unicode="&#x16b;" horiz-adv-x="1032" d="M119 297v702h166v-661q0 -53 5 -94t22.5 -70t51 -44t93.5 -15q57 0 138 30.5t153 96.5v757q41 0 81.5 1t81.5 1v-1001h-161l-2 113l-5 4q-49 -43 -98 -71t-93 -43t-80.5 -20.5t-63.5 -5.5q-102 0 -160 29t-86.5 75t-35.5 103.5t-7 112.5zM168 1212v131h674v-131h-674z " />
<glyph unicode="&#x16c;" horiz-adv-x="1361" d="M147 504v899h172v-901q0 -193 94.5 -289t268.5 -96t269.5 95t95.5 290l-3 901h173v-899q0 -117 -33 -213t-99.5 -165t-167 -105.5t-237.5 -36.5q-281 0 -407 138t-126 382zM377 1714l96 70q55 -78 118.5 -124t123.5 -46q18 0 45.5 3t63.5 18.5t81 47t103 86.5l55 -51 q-90 -129 -181 -181t-173 -52q-53 0 -100.5 19.5t-88.5 52t-76.5 73.5t-66.5 84z" />
<glyph unicode="&#x16d;" horiz-adv-x="1032" d="M119 297v702h166v-661q0 -53 5 -94t22.5 -70t51 -44t93.5 -15q57 0 138 30.5t153 96.5v757q41 0 81.5 1t81.5 1v-1001h-161l-2 113l-5 4q-49 -43 -98 -71t-93 -43t-80.5 -20.5t-63.5 -5.5q-102 0 -160 29t-86.5 75t-35.5 103.5t-7 112.5zM162 1358l96 69 q55 -78 118.5 -124t123.5 -46q18 0 45.5 3.5t63.5 18.5t81 47t103 87l55 -51q-90 -129 -181 -181.5t-173 -52.5q-53 0 -100.5 19.5t-88.5 52.5t-76.5 74t-66.5 84z" />
<glyph unicode="&#x16e;" horiz-adv-x="1361" d="M147 504v899h172v-901q0 -193 94.5 -289t268.5 -96t269.5 95t95.5 290l-3 901h173v-899q0 -117 -33 -213t-99.5 -165t-167 -105.5t-237.5 -36.5q-281 0 -407 138t-126 382zM465 1675q0 43 17.5 82t47 68.5t70.5 47t88 17.5q45 0 85 -17.5t69.5 -46t46 -68.5t16.5 -83 q0 -92 -62.5 -153.5t-154.5 -61.5q-47 0 -88 16.5t-70.5 46t-47 68.5t-17.5 84zM557 1669q0 -53 36 -90t95 -37q55 0 90 37t35 90q0 55 -35 94t-90 39q-59 0 -95 -38t-36 -95z" />
<glyph unicode="&#x16f;" horiz-adv-x="1032" d="M119 297v702h166v-661q0 -53 5 -94t22.5 -70t51 -44t93.5 -15q57 0 138 30.5t153 96.5v757q41 0 81.5 1t81.5 1v-1001h-161l-2 113l-5 4q-49 -43 -98 -71t-93 -43t-80.5 -20.5t-63.5 -5.5q-102 0 -160 29t-86.5 75t-35.5 103.5t-7 112.5zM295 1343q0 43 17.5 82t47 69 t70.5 47.5t88 17.5q45 0 85 -17.5t69.5 -46.5t46 -69t16.5 -83q0 -92 -62.5 -153.5t-154.5 -61.5q-47 0 -88 16.5t-70.5 46.5t-47 68.5t-17.5 83.5zM387 1337q0 -53 36 -90t95 -37q55 0 90 37t35 90q0 55 -35 94t-90 39q-59 0 -95 -37.5t-36 -95.5z" />
<glyph unicode="&#x170;" horiz-adv-x="1361" d="M147 504v899h172v-901q0 -193 94.5 -289t268.5 -96t269.5 95t95.5 290l-3 901h173v-899q0 -117 -33 -213t-99.5 -165t-167 -105.5t-237.5 -36.5q-281 0 -407 138t-126 382zM465 1556l240 340l131 -100l-287 -299zM719 1556l239 340l132 -100l-289 -299z" />
<glyph unicode="&#x171;" horiz-adv-x="1032" d="M119 297v702h166v-661q0 -53 5 -94t22.5 -70t51 -44t93.5 -15q57 0 138 30.5t153 96.5v757q41 0 81.5 1t81.5 1v-1001h-161l-2 113l-5 4q-49 -43 -98 -71t-93 -43t-80.5 -20.5t-63.5 -5.5q-102 0 -160 29t-86.5 75t-35.5 103.5t-7 112.5zM281 1151l239 342l123 -100 l-289 -299zM541 1151l239 342l123 -100l-289 -299z" />
<glyph unicode="&#x172;" horiz-adv-x="1361" d="M147 504v899h172v-901q0 -193 94.5 -289t268.5 -96t269.5 95t95.5 290l-3 901h173v-899q0 -113 -30 -206t-91.5 -160.5t-153.5 -106.5t-217 -45q-37 -53 -59.5 -109.5t-22.5 -99.5q0 -59 33 -82t88 -23q41 0 80 8.5t67 14.5l13 -66q-49 -25 -106.5 -39t-115.5 -14 q-96 0 -146 39t-50 109q0 49 24.5 118.5t100.5 143.5q-127 6 -219.5 44t-150.5 104.5t-86 159.5t-28 210z" />
<glyph unicode="&#x173;" horiz-adv-x="1032" d="M119 297v702h166v-661q0 -53 5 -94t22.5 -70t51 -44t93.5 -15q57 0 138 30.5t153 96.5v757q41 0 81.5 1t81.5 1v-1001h-86q-37 -51 -58.5 -107.5t-21.5 -97.5q0 -59 33 -81.5t88 -22.5q41 0 80 8t68 14l12 -65q-49 -25 -106.5 -39.5t-114.5 -14.5q-96 0 -146.5 39 t-50.5 109q0 51 28 124t114 150l-2 97l-5 4q-49 -43 -98 -71t-93 -43t-80.5 -20.5t-63.5 -5.5q-102 0 -160 29t-86.5 75t-35.5 103.5t-7 112.5z" />
<glyph unicode="&#x174;" horiz-adv-x="1714" d="M20 1401h181q47 -209 94 -417t96 -417q18 -88 38 -178t40 -178h10l74 334q25 115 49.5 221t48 210.5l47 209t47.5 215.5h185l225 -846q4 -12 16.5 -57t26.5 -100.5t28.5 -107.5t20.5 -77h13q20 92 40.5 186.5t38.5 186.5q45 205 90.5 407.5t92.5 407.5h172 q-88 -379 -175 -730.5t-165 -670.5h-205q-55 215 -110.5 416.5t-112.5 423.5q-20 78 -39 153.5t-41 153.5l-15 2q-16 -78 -33.5 -156t-33.5 -155q-4 -23 -52 -232t-137 -606h-210zM475 1550l307 283h113l311 -279l-51 -59l-317 182l-316 -184z" />
<glyph unicode="&#x175;" horiz-adv-x="1474" d="M18 999h168l142 -516l78 -317h10l84 330l143 503h162l166 -526l86 -307h12l74 305l143 528h168l-297 -999h-182l-146 463l-100 354h-10l-92 -354l-133 -463h-183zM356 1145l308 293h112l311 -289l-51 -59l-317 190l-316 -193z" />
<glyph unicode="&#x176;" horiz-adv-x="1097" d="M20 1403h183l192 -369l144 -284h8l155 297l195 356h178l-442 -789v-614h-182v606zM180 1550l307 283h113l311 -279l-51 -59l-317 182l-316 -184z" />
<glyph unicode="&#x177;" horiz-adv-x="942" d="M20 -406l27 117q55 -12 91 -17t71 -5q59 0 98 28.5t66 110.5l57 178h-80l-313 993h162l204 -686q20 -66 34 -123t22 -86h10l63 213q20 68 47 152t55 173t56.5 180t57.5 177h170q-47 -143 -96.5 -292.5t-99.5 -300t-100.5 -299t-97.5 -289.5q-37 -119 -104.5 -188.5 t-183.5 -69.5q-23 2 -73 5t-143 29zM117 1145l307 293h113l311 -289l-51 -59l-318 190l-315 -193z" />
<glyph unicode="&#x178;" horiz-adv-x="1097" d="M20 1403h183l192 -369l144 -284h8l155 297l195 356h178l-442 -789v-614h-182v606zM256 1579q0 37 27.5 63.5t62.5 26.5q43 0 70.5 -24.5t27.5 -65.5t-26.5 -65.5t-67.5 -24.5t-67.5 24.5t-26.5 65.5zM641 1579q0 37 25.5 63.5t60.5 26.5q43 0 71.5 -24.5t28.5 -65.5 t-28.5 -65.5t-71.5 -24.5q-37 0 -61.5 24.5t-24.5 65.5z" />
<glyph unicode="&#x179;" horiz-adv-x="1089" d="M45 0v131l750 1133h-699v139h914v-131l-752 -1131l789 -2v-139h-1002zM451 1556l251 330l123 -108l-297 -285z" />
<glyph unicode="&#x17a;" horiz-adv-x="841" d="M25 0v104l559 758l-6 15h-492v122h711v-108l-557 -756l6 -12h573v-123h-794zM319 1159l252 332l119 -111l-297 -284z" />
<glyph unicode="&#x17b;" horiz-adv-x="1089" d="M45 0v131l750 1133h-699v139h914v-131l-752 -1131l789 -2v-139h-1002zM451 1661q0 47 32.5 82t79.5 35t82 -35t35 -82t-35 -81t-82 -34t-79.5 34t-32.5 81z" />
<glyph unicode="&#x17c;" horiz-adv-x="841" d="M25 0v104l559 758l-6 15h-492v122h711v-108l-557 -756l6 -12h573v-123h-794zM338 1268q0 47 32.5 81.5t80.5 34.5q47 0 81.5 -34.5t34.5 -81.5t-34.5 -81t-81.5 -34t-80 34t-33 81z" />
<glyph unicode="&#x17d;" horiz-adv-x="1089" d="M45 0v131l750 1133h-699v139h914v-131l-752 -1131l789 -2v-139h-1002zM215 1772l47 55l318 -187l317 187l49 -60l-311 -276h-111z" />
<glyph unicode="&#x17e;" horiz-adv-x="841" d="M25 0v104l559 758l-6 15h-492v122h711v-108l-557 -756l6 -12h573v-123h-794zM92 1409l47 57l318 -198l317 196l49 -59l-311 -289h-111z" />
<glyph unicode="&#x192;" horiz-adv-x="1142" d="M74 -211l37 111q41 -12 66.5 -15.5t51.5 -3.5q49 0 84 16.5t59.5 49.5t41 83t28.5 120q10 51 19.5 123.5t18.5 150.5t17.5 150.5t14.5 121.5h-184v115h198q4 39 11.5 90t13.5 90q10 78 30.5 148.5t58.5 125t97.5 86t147.5 31.5q96 0 188 -30l-31 -113q-47 10 -73.5 13 t-61.5 3q-51 0 -86 -17t-57.5 -51t-36.5 -82t-22 -112l-23 -182h209v-115h-221q-6 -37 -16.5 -116.5t-20.5 -165.5t-19.5 -162t-15.5 -107q-14 -88 -38.5 -160.5t-64.5 -123.5t-97.5 -80t-139.5 -29q-43 0 -91 8.5t-93 28.5z" />
<glyph unicode="&#x1a0;" horiz-adv-x="1437" d="M102 690q0 145 32 278.5t102.5 235t186.5 160.5t282 59q164 0 272 -56t174 -153h23q80 0 109.5 47.5t29.5 127.5v149h125v-164q0 -49 -10.5 -95t-35 -82t-67.5 -59.5t-108 -29.5q37 -92 53 -196.5t16 -215.5q0 -152 -37 -282.5t-109.5 -226t-182 -149.5t-252.5 -54 q-164 0 -278 50t-186.5 142t-105.5 222t-33 292zM283 688q0 -281 98 -426t324 -145q102 0 177.5 45t125 122.5t73 182t23.5 223.5q0 104 -15.5 211t-58.5 194t-121 142t-204 55q-127 0 -209 -51t-129.5 -136t-65.5 -193.5t-18 -223.5z" />
<glyph unicode="&#x1a1;" horiz-adv-x="1122" d="M82 494q0 100 24.5 194t78 168t138.5 119t207 45q127 0 210 -45t134 -121q72 4 97.5 50t25.5 124v150h125v-166q0 -47 -9 -90t-30.5 -78t-59.5 -60.5t-95 -33.5q18 -57 27.5 -121.5t9.5 -130.5q0 -96 -21.5 -188.5t-74 -165t-139.5 -116.5t-218 -44q-123 0 -205 42 t-132 111.5t-71.5 161.5t-21.5 195zM256 494q0 -74 10 -143.5t40 -122t83 -84t141 -31.5q82 0 133.5 33.5t80 89t39 123t10.5 135.5t-10.5 137t-38 127.5t-80 95.5t-134.5 37q-84 0 -137 -36t-83.5 -92t-42 -128t-11.5 -141z" />
<glyph unicode="&#x1af;" horiz-adv-x="1486" d="M147 504v899h172v-901q0 -193 94.5 -289t268.5 -96t269.5 95t95.5 290v901h170v-203h47q80 0 115.5 31t35.5 110v199h133v-205q0 -47 -11 -93t-40 -82t-79 -57.5t-128 -21.5h-73v-577q0 -117 -33 -213t-99.5 -165t-167 -105.5t-237.5 -36.5q-281 0 -407 138t-126 382z " />
<glyph unicode="&#x1b0;" horiz-adv-x="1181" d="M119 297v702h166v-661q0 -53 5 -94t22.5 -70t51 -44t93.5 -15q57 0 138 30.5t153 96.5v757h163v-135h15q80 0 108.5 36t28.5 116v164h131v-166q0 -51 -12.5 -99.5t-42 -85t-79.5 -59t-128 -22.5h-21v-748h-163v113l-5 4q-49 -43 -98 -71t-93 -43t-80.5 -20.5t-63.5 -5.5 q-102 0 -160 29t-86.5 75t-35.5 103.5t-7 112.5z" />
<glyph unicode="&#x1fc;" horiz-adv-x="1953" d="M20 0l875 1401h911v-127h-637v-473h533v-125h-533v-547h670v-129h-844v420h-530l-260 -420h-185zM543 553h452v711h-10zM1094 1556l252 330l122 -108l-297 -285z" />
<glyph unicode="&#x1fd;" horiz-adv-x="1622" d="M68 270q0 129 94 212t268 85l293 2v84q0 129 -56.5 178.5t-179.5 49.5q-78 0 -157.5 -14.5t-153.5 -41.5l-37 113q86 39 187.5 59.5t195.5 20.5q104 0 187.5 -37t119.5 -123q47 72 126 118t202 46q96 0 164 -26.5t111 -69.5t67.5 -96.5t36.5 -106.5t14 -100.5t2 -77.5 v-80h-663q0 -70 12 -133.5t44 -110.5t87 -75.5t139 -28.5q88 0 159 17.5t157 51.5l39 -106q-88 -47 -178.5 -69.5t-188.5 -22.5q-139 0 -222 41t-132 112q-78 -59 -146.5 -91t-125 -47t-99.5 -17t-69 -2q-90 0 -147.5 28.5t-90.5 71.5t-46 93t-13 93zM246 289 q0 -90 44 -136.5t142 -46.5q27 0 69 8.5t87 25t90 40t80 53.5q-18 51 -26.5 108.5t-10.5 123.5h-264q-104 0 -157.5 -48t-53.5 -128zM770 1159l252 332l119 -111l-297 -284zM893 569h502q0 72 -11.5 131.5t-39 102.5t-73.5 66.5t-114 23.5q-72 0 -120 -26.5t-78.5 -71.5 t-46 -103.5t-19.5 -122.5z" />
<glyph unicode="&#x1fe;" horiz-adv-x="1388" d="M96 -12l144 188q-72 92 -105 222t-33 292q0 145 32 278.5t102.5 235t186.5 160.5t282 59q129 0 222 -34.5t160 -98.5l103 137h102l-149 -194q78 -104 110.5 -243.5t32.5 -293.5q0 -152 -37 -282.5t-109.5 -226t-182 -149.5t-252.5 -54q-137 0 -238.5 34.5t-173.5 100.5 l-98 -131h-99zM283 688q0 -119 16 -210t53 -159l635 844q-47 59 -115.5 94t-166.5 35q-127 0 -209 -51t-129.5 -136t-65.5 -193.5t-18 -223.5zM393 244q102 -127 312 -127q102 0 177.5 45t125 122.5t73 182t23.5 223.5q0 102 -15.5 208t-60.5 192zM639 1556l252 330 l123 -108l-297 -285z" />
<glyph unicode="&#x1ff;" horiz-adv-x="1046" d="M74 -14l108 137q-55 72 -77.5 168t-22.5 203q0 100 24.5 194t78 168t138 119t207.5 45q94 0 163 -25.5t120 -72.5l74 96q20 0 40.5 1t41.5 1l-111 -143q59 -76 83 -175.5t24 -203.5q0 -96 -21.5 -188.5t-74 -164t-140.5 -115.5t-219 -44q-180 0 -281 88l-67 -86 q-23 0 -44.5 -1t-43.5 -1zM254 500q0 -63 9 -128t32 -116l418 549q-29 39 -73 61.5t-110 22.5q-82 0 -135 -35t-83.5 -90t-44 -125t-13.5 -139zM330 190q31 -35 80 -56t120 -21q82 0 132.5 33.5t79 89t39 123t10.5 135.5q0 61 -9.5 127.5t-36.5 121.5zM455 1159l252 332 l118 -111l-297 -284z" />
<glyph unicode="&#x218;" horiz-adv-x="1173" d="M102 92l60 127q125 -59 221 -77.5t174 -18.5q160 0 249 56.5t89 205.5q0 63 -22.5 105t-63.5 70t-96.5 47.5t-118.5 35.5q-92 25 -176 51.5t-148.5 67.5t-102.5 104.5t-38 161.5q0 94 35 168t96.5 125t146.5 77.5t187 26.5q88 0 191.5 -17t193.5 -71l-55 -123 q-100 45 -184.5 58.5t-153.5 13.5q-123 0 -201 -62.5t-78 -191.5q0 -57 26.5 -96t72 -64.5t100.5 -43t115 -31.5q76 -18 155.5 -42t145 -68t107.5 -115.5t42 -186.5q0 -104 -38 -180t-106.5 -125t-163.5 -72.5t-208 -23.5q-111 0 -229.5 24.5t-223.5 83.5zM430 -184 q0 41 31 71.5t78 30.5q51 0 82.5 -35t29.5 -88q-4 -78 -48 -142.5t-122 -105.5l-41 52q61 55 62 120q-72 21 -72 97z" />
<glyph unicode="&#x219;" horiz-adv-x="913" d="M80 66l53 114q96 -43 176 -55t133 -12q47 0 89 8t73 26.5t48.5 49t17.5 75.5q0 39 -17.5 67t-47.5 47.5t-68.5 33.5t-81.5 29q-66 23 -126.5 45t-107.5 54t-75.5 77t-28.5 114q0 72 28.5 125.5t77.5 88t114.5 51t141.5 16.5q31 0 70 -4t79 -12.5t78.5 -21.5t71.5 -34 l-51 -117q-78 31 -137.5 42.5t-112.5 11.5q-39 0 -75.5 -7.5t-64.5 -24.5t-45.5 -46t-17.5 -70q0 -33 21.5 -56.5t54.5 -41.5t70 -30.5t67 -22.5q63 -20 125 -42t111 -55.5t78.5 -84t29.5 -130.5q0 -76 -29.5 -130t-81.5 -89t-125 -51t-159 -16q-45 0 -93 5t-95 14t-91 24.5 t-77 34.5zM326 -184q0 41 30.5 71.5t77.5 30.5q51 0 83 -35t30 -88q-4 -78 -48 -142.5t-122 -105.5l-41 52q61 55 61 120q-71 21 -71 97z" />
<glyph unicode="&#x259;" horiz-adv-x="993" d="M92 465v76h666q0 70 -12.5 134t-45 112.5t-87 77t-138.5 28.5q-88 0 -158.5 -17.5t-156.5 -52.5l-41 105q90 49 179 71.5t189 22.5q133 0 219.5 -41t135.5 -109.5t67.5 -162t18.5 -197.5q0 -68 -15.5 -158t-61.5 -171t-133.5 -138t-228.5 -57q-96 0 -163.5 26.5 t-111.5 69.5t-68.5 96t-37 106.5t-14.5 100.5t-2 78zM252 440q0 -72 11 -131t39 -102t73.5 -66.5t113.5 -23.5q72 0 121 26.5t80 71.5t46.5 103.5t19.5 121.5h-504z" />
<glyph unicode="&#x2b9;" horiz-adv-x="479" d="M88 846l291 567l131 -76l-344 -536z" />
<glyph unicode="&#x2c6;" horiz-adv-x="1030" d="M150 1145l307 293h112l312 -289l-52 -59l-317 190l-315 -193z" />
<glyph unicode="&#x2c7;" horiz-adv-x="1030" d="M150 1409l47 57l317 -198l317 196l50 -59l-312 -289h-110z" />
<glyph unicode="&#x2d8;" horiz-adv-x="1073" d="M190 1358l97 69q55 -78 118.5 -124t122.5 -46q18 0 46 3.5t64 18.5t81 47t102 87l56 -51q-90 -129 -181.5 -181.5t-173.5 -52.5q-53 0 -100 19.5t-88 52.5t-77 74t-67 84z" />
<glyph unicode="&#x2d9;" horiz-adv-x="1032" d="M408 1268q0 47 32.5 81.5t79.5 34.5t82 -34.5t35 -81.5t-35 -81t-82 -34t-79.5 34t-32.5 81z" />
<glyph unicode="&#x2da;" horiz-adv-x="1032" d="M295 1343q0 43 17.5 82t47 69t70.5 47.5t88 17.5q45 0 85 -17.5t69.5 -46.5t46 -69t16.5 -83q0 -92 -62.5 -153.5t-154.5 -61.5q-47 0 -88 16.5t-70.5 46.5t-47 68.5t-17.5 83.5zM387 1337q0 -53 36 -90t95 -37q55 0 90 37t35 90q0 55 -35 94t-90 39q-59 0 -95 -37.5 t-36 -95.5z" />
<glyph unicode="&#x2db;" horiz-adv-x="1077" d="M604 -281q0 31 9.5 71t34 84t68.5 91t113 94l33 -30q-53 -57 -87 -130t-34 -126q0 -59 33 -82t88 -23q41 0 80 8.5t68 14.5l12 -66q-49 -25 -106.5 -39t-114.5 -14q-96 0 -146.5 39t-50.5 108z" />
<glyph unicode="&#x2dc;" horiz-adv-x="1030" d="M195 1217q25 70 71.5 111.5t106.5 41.5q37 0 76.5 -12t78.5 -27.5t75 -28t65 -12.5l116 82l58 -45q-23 -70 -70 -113t-106 -43q-47 0 -88 12.5t-78 28t-70 27.5t-61 12l-117 -80z" />
<glyph unicode="&#x2dd;" horiz-adv-x="1032" d="M272 1151l240 342l123 -100l-289 -299zM532 1151l240 342l123 -100l-289 -299z" />
<glyph unicode="&#x384;" horiz-adv-x="1007" d="M401 1147l228 350l131 -100l-275 -314z" />
<glyph unicode="&#x385;" horiz-adv-x="999" d="M166 1237q0 39 27.5 65.5t62.5 26.5q43 0 70.5 -25.5t27.5 -66.5q0 -39 -26.5 -63.5t-67.5 -24.5t-67.5 24.5t-26.5 63.5zM379 1128l147 392l146 -66l-201 -360zM629 1237q0 39 28.5 65.5t63.5 26.5q39 0 66.5 -25.5t27.5 -66.5q0 -39 -29.5 -63.5t-68.5 -24.5 t-63.5 24.5t-24.5 63.5z" />
<glyph unicode="&#x386;" horiz-adv-x="1185" d="M-47 1133l227 350l131 -101l-274 -313zM20 0q125 381 242 731t221 672h222l458 -1403h-182q-29 92 -57.5 183t-57.5 184h-553q-29 -92 -57.5 -183.5t-56.5 -183.5h-179zM356 500h469q-47 156 -94 312.5t-96 309.5l-41 138h-6l-41 -140q-23 -76 -45.5 -148.5t-45 -147 t-47 -154.5t-53.5 -170z" />
<glyph unicode="&#x387;" horiz-adv-x="419" d="M104 737q0 47 32 78t77 31q47 0 79 -31t32 -78t-33 -78.5t-76 -31.5q-45 0 -78 32.5t-33 77.5z" />
<glyph unicode="&#x388;" horiz-adv-x="1155" d="M-305 1135l227 350l131 -101l-274 -313zM164 0v1401h854v-131h-680v-465h573v-127h-573v-545h713v-133h-887z" />
<glyph unicode="&#x389;" horiz-adv-x="1337" d="M-272 1133l227 350l131 -101l-274 -313zM164 0v1401h178q0 -150 -1 -295t-1 -295h655v590h179v-1401h-179v670h-655q0 -168 1 -335t1 -335h-178z" />
<glyph unicode="&#x38a;" horiz-adv-x="540" d="M-279 1133l228 350l131 -101l-275 -313zM184 0v1403h172v-1403h-172z" />
<glyph unicode="&#x38c;" horiz-adv-x="1429" d="M-207 1135l227 350l132 -101l-275 -313zM123 690q0 145 31.5 278.5t102.5 235t186.5 160.5t281.5 59q168 0 280.5 -60t179 -160.5t94.5 -232t28 -274.5q0 -152 -37 -282.5t-110 -226t-182.5 -149.5t-252.5 -54q-164 0 -277.5 50t-186.5 142t-105.5 222t-32.5 292z M303 688q0 -281 98.5 -426t323.5 -145q102 0 178 45t125 122.5t72.5 182t23.5 223.5q0 104 -15 211t-58 194t-121 142t-205 55t-209 -51t-129 -136t-65.5 -193.5t-18.5 -223.5z" />
<glyph unicode="&#x38e;" horiz-adv-x="1097" d="M-373 1135l228 350l131 -101l-275 -313zM20 1403h183l192 -369l144 -284h8l155 297l195 356h178l-442 -789v-614h-182v606z" />
<glyph unicode="&#x38f;" horiz-adv-x="1423" d="M-168 1135l227 350l131 -101l-274 -313zM78 0v127h225l2 4q-59 43 -95 106.5t-55.5 142.5t-25.5 167t-6 180q0 139 32.5 266t104.5 223.5t184.5 152.5t274.5 56q166 0 278.5 -57t181 -153.5t98.5 -222.5t30 -263q0 -92 -10.5 -180t-35 -166t-64.5 -142.5t-97 -109.5l4 -4 h239v-127h-503v135q84 20 139 74.5t87 132.5t45 174t13 205q0 106 -16 208.5t-61.5 182.5t-123 129t-202.5 49q-117 0 -197 -44t-130 -120.5t-71.5 -179t-21.5 -221.5q0 -117 12.5 -216t44 -176t85 -127t132.5 -69v-137h-497z" />
<glyph unicode="&#x390;" horiz-adv-x="489" d="M-84 1237q0 39 27.5 65.5t62.5 26.5q43 0 70.5 -25.5t27.5 -66.5q0 -39 -26.5 -63.5t-67.5 -24.5t-67.5 24.5t-26.5 63.5zM129 1128l147 392l146 -66l-201 -360zM143 141v858h166v-874h121l8 -100q-35 -16 -70.5 -25.5t-70.5 -9.5q-74 0 -114 34.5t-40 116.5zM379 1237 q0 39 28.5 65.5t63.5 26.5q39 0 66.5 -25.5t27.5 -66.5q0 -39 -29.5 -63.5t-68.5 -24.5t-63.5 24.5t-24.5 63.5z" />
<glyph unicode="&#x391;" horiz-adv-x="1185" d="M20 0q125 381 242 731t221 672h222l458 -1403h-182q-29 92 -57.5 183t-57.5 184h-553q-29 -92 -57.5 -183.5t-56.5 -183.5h-179zM356 500h469q-47 156 -94 312.5t-96 309.5l-41 138h-6l-41 -140q-23 -76 -45.5 -148.5t-45 -147t-47 -154.5t-53.5 -170z" />
<glyph unicode="&#x392;" horiz-adv-x="1247" d="M164 0v1401h504q102 0 180 -26.5t129 -75t76.5 -114t25.5 -143.5q0 -86 -42 -170t-150 -139q70 -23 113.5 -64.5t70.5 -92t37 -102.5t10 -93q0 -86 -31.5 -156.5t-86 -121t-126 -77t-151.5 -26.5h-559zM336 133h330q76 0 129 21.5t86.5 57.5t49 84t15.5 101 q0 51 -17.5 99.5t-52 85t-88 58.5t-122.5 22h-330v-529zM336 793h293q135 0 205.5 63t70.5 172q0 104 -64.5 172t-211.5 68h-293v-475z" />
<glyph unicode="&#x393;" horiz-adv-x="1058" d="M164 0v1401h848v-137h-674v-1264h-174z" />
<glyph unicode="&#x394;" horiz-adv-x="1357" d="M90 0v94q111 334 237 656.5t244 652.5h213l480 -1290v-113h-1174zM258 127h827l-305 846l-96 280l-14 2q-27 -72 -51.5 -142.5t-49.5 -141.5z" />
<glyph unicode="&#x395;" horiz-adv-x="1155" d="M164 0v1401h854v-131h-680v-465h573v-127h-573v-545h713v-133h-887z" />
<glyph unicode="&#x396;" horiz-adv-x="1089" d="M45 0v131l750 1133h-699v139h914v-131l-752 -1131l789 -2v-139h-1002z" />
<glyph unicode="&#x397;" horiz-adv-x="1337" d="M164 0v1401h178q0 -150 -1 -295t-1 -295h655v590h179v-1401h-179v670h-655q0 -168 1 -335t1 -335h-178z" />
<glyph unicode="&#x398;" horiz-adv-x="1388" d="M102 690q0 145 32 278.5t102.5 235t186.5 160.5t282 59q168 0 280.5 -60t179 -160.5t94 -232t27.5 -274.5q0 -152 -37 -282.5t-109.5 -226t-182 -149.5t-252.5 -54q-164 0 -278 50t-186.5 142t-105.5 222t-33 292zM283 688q0 -281 98 -426t324 -145q102 0 177.5 45 t125 122.5t73 182t23.5 223.5q0 104 -15.5 211t-58.5 194t-121 142t-204 55q-127 0 -209 -51t-129.5 -136t-65.5 -193.5t-18 -223.5zM406 659v142h571v-142h-571z" />
<glyph unicode="&#x399;" horiz-adv-x="540" d="M184 0v1403h172v-1403h-172z" />
<glyph unicode="&#x39a;" horiz-adv-x="1187" d="M164 0v1403h172v-637l612 637h197l-543 -559l563 -844h-194l-482 727l-153 -158v-569h-172z" />
<glyph unicode="&#x39b;" horiz-adv-x="1185" d="M23 0q51 162 114.5 352.5t127 379t120.5 363.5t100 308h222l456 -1403h-182l-336 1092l-49 170h-4q-2 -6 -15.5 -50.5t-37.5 -121.5q-23 -70 -109 -345.5t-231 -744.5h-176z" />
<glyph unicode="&#x39c;" horiz-adv-x="1681" d="M164 0v1401h196l209 -475l267 -600h12q66 150 134.5 299t133.5 301l213 475h189v-1401h-168v1096h-4l-123 -281q-37 -80 -73 -161t-75 -162q-39 -90 -78 -176.5t-79 -176.5h-162l-133 303q-45 102 -90.5 201.5t-92.5 202.5q-27 63 -53.5 124.5t-52.5 123.5h-4 q0 -274 -1 -547t-1 -547h-164z" />
<glyph unicode="&#x39d;" horiz-adv-x="1396" d="M164 0v1401h174q131 -201 257 -397.5t255 -397.5l205 -321h10v1116h168v-1401h-170l-541 846l-184 295q-2 0 -3 -1t-5 -1v-1139h-166z" />
<glyph unicode="&#x39e;" horiz-adv-x="1120" d="M49 0v152h1020v-152h-1020zM82 1247v154h952v-154h-952zM197 657v150h737v-150h-737z" />
<glyph unicode="&#x39f;" horiz-adv-x="1429" d="M123 690q0 145 31.5 278.5t102.5 235t186.5 160.5t281.5 59q168 0 280.5 -60t179 -160.5t94.5 -232t28 -274.5q0 -152 -37 -282.5t-110 -226t-182.5 -149.5t-252.5 -54q-164 0 -277.5 50t-186.5 142t-105.5 222t-32.5 292zM303 688q0 -281 98.5 -426t323.5 -145 q102 0 178 45t125 122.5t72.5 182t23.5 223.5q0 104 -15 211t-58 194t-121 142t-205 55t-209 -51t-129 -136t-65.5 -193.5t-18.5 -223.5z" />
<glyph unicode="&#x3a0;" horiz-adv-x="1337" d="M164 0v1403h1010v-1403h-179v1257h-655l2 -1257h-178z" />
<glyph unicode="&#x3a1;" horiz-adv-x="1136" d="M164 0v1403h459q96 0 176 -25.5t138 -77t90 -128.5t32 -177q0 -63 -19.5 -137t-67.5 -136.5t-129 -104.5t-202 -42h-303l2 -575h-176zM338 707h278q49 0 96.5 13t85.5 46t60.5 87t22.5 136q0 72 -20.5 125t-57.5 88t-87 51.5t-108 16.5h-270v-563z" />
<glyph unicode="&#x3a3;" horiz-adv-x="1110" d="M66 0v129l380 608l-378 541v125h962v-137h-735l-8 -15l346 -491v-43l-354 -565l12 -11h762v-141h-987z" />
<glyph unicode="&#x3a4;" horiz-adv-x="1153" d="M41 1266v137h1071v-137h-448l-2 -1266h-170v1266h-451z" />
<glyph unicode="&#x3a5;" horiz-adv-x="1097" d="M20 1403h183l192 -369l144 -284h8l155 297l195 356h178l-442 -789v-614h-182v606z" />
<glyph unicode="&#x3a6;" horiz-adv-x="1636" d="M82 711q0 104 39 200.5t121 173t205.5 127t293.5 58.5v131h170v-131q176 -6 299 -54.5t200 -125t110.5 -174t33.5 -199.5q0 -115 -43 -213t-124.5 -172t-201.5 -118t-274 -52v-162h-170v162q-172 8 -295.5 49t-204.5 111.5t-120 169t-39 219.5zM250 707 q0 -201 125 -303.5t366 -116.5v852q-135 -8 -229 -45t-152.5 -95.5t-84 -134t-25.5 -157.5zM913 287q115 6 203 40.5t147.5 91t90 131.5t30.5 161q0 74 -21.5 148.5t-75.5 134t-145 99.5t-229 46v-852z" />
<glyph unicode="&#x3a7;" horiz-adv-x="1140" d="M16 0l449 729q-104 168 -208.5 336t-211.5 336h197q84 -141 165.5 -280.5t167.5 -280.5l338 561h195q-111 -172 -218.5 -340t-215.5 -340l448 -721h-192q-92 152 -183.5 302.5t-183.5 303.5l-356 -606h-191z" />
<glyph unicode="&#x3a8;" horiz-adv-x="1568" d="M143 893v508h172v-522q0 -170 102.5 -267.5t280.5 -107.5v897h170v-897q195 12 291 104t96 279v514h168q0 -133 1 -266.5t1 -266.5q0 -109 -36.5 -197.5t-107.5 -153t-175.5 -101.5t-237.5 -41v-375h-170v373q-555 31 -555 520z" />
<glyph unicode="&#x3a9;" horiz-adv-x="1423" d="M78 0v127h225l2 4q-59 43 -95 106.5t-55.5 142.5t-25.5 167t-6 180q0 139 32.5 266t104.5 223.5t184.5 152.5t274.5 56q166 0 278.5 -57t181 -153.5t98.5 -222.5t30 -263q0 -92 -10.5 -180t-35 -166t-64.5 -142.5t-97 -109.5l4 -4h239v-127h-503v135q84 20 139 74.5 t87 132.5t45 174t13 205q0 106 -16 208.5t-61.5 182.5t-123 129t-202.5 49q-117 0 -197 -44t-130 -120.5t-71.5 -179t-21.5 -221.5q0 -117 12.5 -216t44 -176t85 -127t132.5 -69v-137h-497z" />
<glyph unicode="&#x3aa;" horiz-adv-x="540" d="M-14 1579q0 37 27.5 63.5t62.5 26.5q43 0 70.5 -24.5t27.5 -65.5t-26.5 -65.5t-67.5 -24.5t-67.5 24.5t-26.5 65.5zM184 0v1403h172v-1403h-172zM371 1579q0 37 25.5 63.5t60.5 26.5q43 0 71.5 -24.5t28.5 -65.5t-28.5 -65.5t-71.5 -24.5q-37 0 -61.5 24.5t-24.5 65.5z " />
<glyph unicode="&#x3ab;" horiz-adv-x="1097" d="M20 1403h183l192 -369l144 -284h8l155 297l195 356h178l-442 -789v-614h-182v606zM254 1579q0 37 27.5 63.5t62.5 26.5q43 0 70.5 -24.5t27.5 -65.5t-26.5 -65.5t-67.5 -24.5t-67.5 24.5t-26.5 65.5zM639 1579q0 37 25.5 63.5t60.5 26.5q43 0 71.5 -24.5t28.5 -65.5 t-28.5 -65.5t-71.5 -24.5q-37 0 -61.5 24.5t-24.5 65.5z" />
<glyph unicode="&#x3ac;" horiz-adv-x="1114" d="M78 494q0 92 21.5 185t70.5 168t127 121t190 46q92 0 164 -35t119 -78l39 98h115v-874h120l9 -100q-35 -16 -71 -25.5t-71 -9.5q-72 0 -103.5 29.5t-41.5 82.5l-8 2q-55 -45 -105.5 -69.5t-93.5 -35.5t-78 -13t-57 -2q-94 0 -159.5 37.5t-107.5 105.5t-60.5 161 t-18.5 206zM250 500q0 -117 18.5 -190.5t50 -116.5t73.5 -58.5t91 -15.5q57 0 130 29t145 92q0 135 1 265t1 263q-18 18 -47 37.5t-62 37t-67.5 29t-65.5 11.5q-76 0 -127 -33t-83 -87t-45 -123t-13 -140zM410 1147l227 350l131 -100l-274 -314z" />
<glyph unicode="&#x3ad;" horiz-adv-x="899" d="M82 281q0 96 55.5 161.5t132.5 89.5l2 7q-66 18 -119 67t-53 129q0 68 29 122t80 91t119.5 56.5t148.5 19.5q86 0 178.5 -14.5t151.5 -38.5l-37 -113q-94 29 -155.5 36t-118.5 7q-61 0 -103.5 -13.5t-69 -35t-39 -50t-12.5 -61.5q0 -49 18.5 -77.5t49.5 -43t67.5 -18.5 t73.5 -4h137v-115h-139q-35 0 -74.5 -8t-73.5 -28.5t-55.5 -56.5t-21.5 -91q0 -51 20.5 -87t55.5 -59.5t84 -33.5t104 -10q80 0 151.5 18t153.5 53l39 -102q-61 -35 -158.5 -63.5t-205.5 -28.5q-82 0 -158 15t-133 50t-91 91.5t-34 138.5zM350 1147l228 350l131 -100 l-275 -314z" />
<glyph unicode="&#x3ae;" horiz-adv-x="1052" d="M119 0v999h166v-86l6 -4q84 53 180 83t168 30q102 0 160.5 -29.5t88.5 -76t37 -103.5t7 -113v-700h-166v659q0 51 -5 93.5t-22.5 72t-52.5 45t-94 15.5q-72 0 -156 -31t-149 -68v-786h-168zM362 1147l228 350l131 -100l-275 -314z" />
<glyph unicode="&#x3af;" horiz-adv-x="489" d="M121 1147l227 350l131 -100l-274 -314zM143 141v858h166v-874h121l8 -100q-35 -16 -70.5 -25.5t-70.5 -9.5q-74 0 -114 34.5t-40 116.5z" />
<glyph unicode="&#x3b0;" horiz-adv-x="1054" d="M123 365v634h168v-634q0 -109 50 -176.5t179 -67.5q123 0 182.5 74.5t59.5 187.5v616h170v-608q0 -88 -27.5 -161.5t-80 -128t-129.5 -84t-173 -29.5q-201 0 -300 104.5t-99 272.5zM223 1237q0 39 28 65.5t62 26.5q43 0 71 -25.5t28 -66.5q0 -39 -27 -63.5t-68 -24.5 t-67.5 24.5t-26.5 63.5zM436 1128l148 392l145 -66l-201 -360zM686 1237q0 39 28.5 65.5t63.5 26.5q39 0 66.5 -25.5t27.5 -66.5q0 -39 -29.5 -63.5t-68.5 -24.5t-63.5 24.5t-24.5 63.5z" />
<glyph unicode="&#x3b1;" horiz-adv-x="1114" d="M78 494q0 92 21.5 185t70.5 168t127 121t190 46q92 0 164 -35t119 -78l39 98h115v-874h120l9 -100q-35 -16 -71 -25.5t-71 -9.5q-72 0 -103.5 29.5t-41.5 82.5l-8 2q-55 -45 -105.5 -69.5t-93.5 -35.5t-78 -13t-57 -2q-94 0 -159.5 37.5t-107.5 105.5t-60.5 161 t-18.5 206zM250 500q0 -117 18.5 -190.5t50 -116.5t73.5 -58.5t91 -15.5q57 0 130 29t145 92q0 135 1 265t1 263q-18 18 -47 37.5t-62 37t-67.5 29t-65.5 11.5q-76 0 -127 -33t-83 -87t-45 -123t-13 -140z" />
<glyph unicode="&#x3b2;" horiz-adv-x="1026" d="M98 -412v1426q0 96 19.5 180t65.5 145.5t122 97.5t187 36q188 0 286.5 -93.5t98.5 -249.5q0 -100 -52.5 -181t-119.5 -113q70 -23 116.5 -61t73.5 -88t38 -111.5t11 -129.5q0 -115 -29.5 -201.5t-84 -146t-129 -89t-162.5 -29.5q-76 0 -151 20t-118 51l-6 -6v-457h-166z M266 184q33 -23 69 -37t69.5 -22t63.5 -11t48 -3q129 0 194.5 95t65.5 253q0 145 -67.5 225t-214.5 80h-105v119h103q92 0 155.5 64.5t63.5 182.5q0 94 -60.5 155t-161.5 61q-104 0 -163.5 -62.5t-59.5 -183.5v-916z" />
<glyph unicode="&#x3b3;" horiz-adv-x="991" d="M-12 950q39 29 88 50.5t84 21.5q66 0 91 -37t42 -88q23 -63 47.5 -148t52.5 -178q29 -98 56.5 -194t48.5 -170h6q12 47 23.5 83t21.5 67.5t21.5 62.5t23.5 67l168 517h166l-344 -965v-465h-168v451l-289 847l-109 -18z" />
<glyph unicode="&#x3b4;" horiz-adv-x="1083" d="M102 446q0 66 16.5 139.5t53.5 142.5t97.5 123t148.5 83q-72 47 -121 104.5t-49 153.5q0 137 94 210t248 73q68 0 144.5 -9.5t156.5 -42.5l-39 -120q-66 23 -136.5 30.5t-119.5 7.5q-74 0 -128 -35.5t-54 -113.5q0 -51 42 -89t105.5 -76t136 -82t136 -106.5t105.5 -150.5 t42 -213q0 -84 -21.5 -171t-73.5 -158.5t-138 -116.5t-218 -45q-121 0 -202.5 37.5t-132 102t-72 148.5t-21.5 174zM272 444q0 -63 10.5 -122.5t39 -105.5t81 -74.5t136.5 -28.5t138 33.5t85 86t42 115t11 119.5q0 80 -22.5 140.5t-60.5 106.5t-86 79.5t-99 64.5 q-70 -16 -122 -56t-86 -95.5t-50.5 -123t-16.5 -139.5z" />
<glyph unicode="&#x3b5;" horiz-adv-x="899" d="M82 281q0 96 55.5 161.5t132.5 89.5l2 7q-66 18 -119 67t-53 129q0 68 29 122t80 91t119.5 56.5t148.5 19.5q86 0 178.5 -14.5t151.5 -38.5l-37 -113q-94 29 -155.5 36t-118.5 7q-61 0 -103.5 -13.5t-69 -35t-39 -50t-12.5 -61.5q0 -49 18.5 -77.5t49.5 -43t67.5 -18.5 t73.5 -4h137v-115h-139q-35 0 -74.5 -8t-73.5 -28.5t-55.5 -56.5t-21.5 -91q0 -51 20.5 -87t55.5 -59.5t84 -33.5t104 -10q80 0 151.5 18t153.5 53l39 -102q-61 -35 -158.5 -63.5t-205.5 -28.5q-82 0 -158 15t-133 50t-91 91.5t-34 138.5z" />
<glyph unicode="&#x3b6;" horiz-adv-x="798" d="M82 422q0 74 36 177t108.5 220t182.5 243t257 247q0 2 -1 3t-1 3q-135 0 -270.5 -1t-270.5 -1v127h751v-115q-141 -117 -257.5 -237.5t-198.5 -237.5t-127 -223.5t-45 -190.5q0 -61 22.5 -103t73.5 -76t135 -66.5t207 -73.5q51 -20 84 -38t51.5 -37t25.5 -42t7 -51 q0 -29 -18.5 -66t-48 -78t-67.5 -85t-77 -82l-90 73q78 98 108.5 142.5t30.5 64.5q0 29 -26.5 47.5t-77.5 36.5q-119 43 -212 76t-157.5 75t-99.5 104t-35 165z" />
<glyph unicode="&#x3b7;" horiz-adv-x="1052" d="M119 0v999h166v-86l6 -4q84 53 180 83t168 30q102 0 160.5 -29.5t88.5 -76t37 -103.5t7 -113v-700h-166v659q0 51 -5 93.5t-22.5 72t-52.5 45t-94 15.5q-72 0 -156 -31t-149 -68v-786h-168z" />
<glyph unicode="&#x3b8;" horiz-adv-x="1079" d="M92 723q0 137 17.5 272t66.5 240.5t138 171.5t233 66q143 0 229 -67t133 -172.5t62.5 -238.5t15.5 -266q0 -141 -19.5 -274t-69.5 -236.5t-138 -167t-225 -63.5q-143 0 -230.5 58t-134.5 158.5t-62.5 234.5t-15.5 284zM262 705q0 -143 8.5 -254t38 -186t85 -112.5 t149.5 -37.5q82 0 135 44t84 117.5t43 173t12 209.5v46h-555zM264 829h551q-2 92 -12 183.5t-39 164t-81 117.5t-136 45q-90 0 -144.5 -43t-84 -114.5t-41 -163.5t-13.5 -189z" />
<glyph unicode="&#x3b9;" horiz-adv-x="489" d="M143 141v858h166v-874h121l8 -100q-35 -16 -70.5 -25.5t-70.5 -9.5q-74 0 -114 34.5t-40 116.5z" />
<glyph unicode="&#x3ba;" horiz-adv-x="927" d="M119 0v997h168v-178l-8 -227l14 -6q100 104 202.5 206.5t202.5 206.5h189q-94 -98 -192.5 -196t-194.5 -197q16 -23 33.5 -42t33.5 -42l351 -522h-185q-86 127 -168 253t-166 253l-112 -113v-393h-168z" />
<glyph unicode="&#x3bb;" horiz-adv-x="1013" d="M12 0l377 952h96l-88 299q-16 55 -35.5 75t-68.5 20q-23 0 -43.5 -3.5t-54.5 -9.5l-23 113q66 23 104.5 29t65.5 6q47 0 80 -10.5t57.5 -35t42 -66.5t35.5 -105l322 -1153h92l10 -97q-33 -16 -73 -22t-66 -6q-41 0 -67.5 14t-37.5 51l-225 799h-8l-332 -850h-160z" />
<glyph unicode="&#x3bc;" horiz-adv-x="1046" d="M119 -426v1430h166v-668q0 -102 43 -160.5t159 -58.5q57 0 128 29.5t143 95.5v762h168q0 -252 -1 -503t-1 -501h-164v113l-6 4q-53 -45 -98.5 -72t-85.5 -40t-74.5 -17t-69.5 -4q-41 0 -72.5 7t-54.5 17l-12 -6v-428h-168z" />
<glyph unicode="&#x3bd;" horiz-adv-x="948" d="M18 997h170q41 -131 85 -257t85 -255q29 -86 56.5 -178t56.5 -178h10q6 14 17.5 53t27 91.5t35 114t39.5 124.5l162 485h168l-361 -997h-200z" />
<glyph unicode="&#x3be;" horiz-adv-x="886" d="M72 403q0 59 12 119t42 113t80 98t126 76q-115 43 -168 129t-53 182q0 168 116.5 263.5t313.5 95.5q29 0 69.5 -3t84.5 -10.5t89 -19.5t80 -29l-35 -119q-86 29 -157.5 39.5t-126.5 10.5q-145 0 -205.5 -70t-60.5 -174q0 -59 24.5 -104.5t66.5 -75t97 -44t117 -14.5h180 v-125h-195q-88 0 -150.5 -25.5t-102.5 -69.5t-58 -101.5t-18 -120.5q0 -55 15 -97t53 -77t102.5 -66.5t160.5 -66.5q70 -25 127.5 -47.5t97.5 -46t61.5 -52t21.5 -67.5q0 -35 -15.5 -72t-42 -76t-59.5 -75.5t-66 -71.5l-90 69q57 78 83 117t26 64q0 27 -26.5 49t-92.5 47 q-94 35 -186.5 67.5t-166 80t-121.5 118t-50 182.5z" />
<glyph unicode="&#x3bf;" horiz-adv-x="1081" d="M98 494q0 100 24.5 194t78 168t139.5 119t209 45q125 0 209 -45t134 -118t70.5 -167t20.5 -192q0 -96 -21.5 -188.5t-73.5 -165t-140.5 -116.5t-219.5 -44q-123 0 -205.5 42t-132 111.5t-71 161.5t-21.5 195zM272 494q0 -74 10.5 -143.5t40 -122t84 -84t142.5 -31.5 q82 0 132 33.5t78.5 89t39 123t10.5 135.5t-9 137t-38 127.5t-80 95.5t-133 37q-84 0 -137.5 -36t-84 -92t-43 -128t-12.5 -141z" />
<glyph unicode="&#x3c0;" horiz-adv-x="1054" d="M119 0v997h815q0 -250 -1 -498.5t-1 -498.5h-166v872h-481v-872h-166z" />
<glyph unicode="&#x3c1;" horiz-adv-x="1054" d="M96 397q0 47 1 92.5t3 88.5q6 100 37 181t87.5 139t136 90t182.5 32q111 0 191.5 -38t133 -105.5t78 -160.5t25.5 -206q0 -119 -26.5 -216t-81 -167t-136.5 -108.5t-192 -38.5q-55 0 -127 12t-134 53l-8 -4v-465h-170v821zM266 184q16 -12 44 -25.5t60.5 -23.5t68.5 -17 t71 -7q61 0 113.5 16t92.5 61t62.5 124t22.5 204q0 111 -21.5 182.5t-59.5 113.5t-88.5 58.5t-105.5 16.5q-68 0 -117 -28t-80.5 -74t-47 -105t-15.5 -121v-375z" />
<glyph unicode="&#x3c2;" horiz-adv-x="905" d="M78 512q0 113 29.5 206t88 160.5t143.5 105.5t198 38q98 0 173.5 -16.5t135.5 -38.5q-10 -31 -19.5 -60.5t-19.5 -60.5q-72 27 -127 37t-121 10q-80 0 -137 -28.5t-96 -80t-57.5 -120t-18.5 -150.5q0 -70 13 -121t49 -94t98.5 -82t160.5 -84q133 -59 183.5 -104t50.5 -99 q0 -53 -42 -118.5t-130 -155.5l-92 70q27 41 60.5 87t33.5 81q0 29 -33 52t-125 62q-125 53 -202.5 105.5t-121.5 111t-59.5 128t-15.5 159.5z" />
<glyph unicode="&#x3c3;" horiz-adv-x="1079" d="M78 485q0 100 24.5 193.5t77.5 165t138 113.5t208 42h512v-122h-198l-6 -9q35 -31 59.5 -74.5t38.5 -94t20 -105.5t6 -109q0 -104 -28.5 -195t-83.5 -157.5t-137 -104.5t-189 -38q-121 0 -205 34.5t-136 99t-76.5 157t-24.5 204.5zM248 481q0 -180 64.5 -273t211.5 -93 q68 0 118 28.5t82 78.5t48 118t16 145q0 68 -9 136.5t-37.5 125t-80 91t-137.5 34.5q-82 0 -135 -32.5t-85 -87t-44 -125t-12 -146.5z" />
<glyph unicode="&#x3c4;" horiz-adv-x="811" d="M14 879v120h738v-120h-338v-592q0 -74 28.5 -119t114.5 -45q78 0 188 33l27 -111q-55 -27 -122.5 -41t-129.5 -14q-270 0 -270 246v643h-236z" />
<glyph unicode="&#x3c5;" horiz-adv-x="1054" d="M123 365v634h168v-634q0 -109 50 -176.5t179 -67.5q123 0 182.5 74.5t59.5 187.5v616h170v-608q0 -88 -27.5 -161.5t-80 -128t-129.5 -84t-173 -29.5q-201 0 -300 104.5t-99 272.5z" />
<glyph unicode="&#x3c6;" horiz-adv-x="1355" d="M80 496q0 88 19.5 167.5t61.5 146.5t106.5 117t154.5 79l47 -105q-119 -47 -171 -156.5t-52 -248.5q0 -84 14 -153t54 -120t107.5 -80.5t176.5 -33.5v907h199q121 0 211 -38t149.5 -105.5t89 -161t29.5 -203.5q0 -109 -27.5 -202t-90 -162.5t-162 -110.5t-242.5 -47v-410 h-158v410q-158 6 -258 49t-157.5 112.5t-79 160t-21.5 188.5zM756 109q100 2 167.5 32.5t108.5 84t59.5 126t18.5 156.5q0 80 -15.5 149.5t-55.5 120.5t-108.5 80t-174.5 29v-778z" />
<glyph unicode="&#x3c7;" horiz-adv-x="884" d="M8 0l336 522q-78 119 -152.5 238t-152.5 239h186q55 -92 108.5 -185t108.5 -185q57 92 110.5 185t111.5 185h184q-78 -121 -156 -237.5t-155 -235.5q86 -133 168.5 -263t168.5 -263h-186q-61 104 -122.5 208.5t-125.5 209.5q-66 -104 -126 -209t-126 -209h-180z" />
<glyph unicode="&#x3c8;" horiz-adv-x="1388" d="M119 385l2 612h164v-614q0 -109 77.5 -184.5t247.5 -81.5v1040h168v-1040q80 2 140.5 23.5t102.5 57t62.5 84t20.5 101.5v614h164v-612q0 -84 -34 -155.5t-97.5 -125t-154.5 -84t-204 -32.5v-414h-168v414q-117 2 -208 32.5t-153.5 84t-96 125t-33.5 155.5z" />
<glyph unicode="&#x3c9;" horiz-adv-x="1495" d="M80 492q0 86 17.5 169.5t56.5 155.5t103.5 124t156.5 75l35 -111q-59 -29 -99.5 -73t-63 -99t-31.5 -117.5t-9 -126.5q0 -68 8 -134t33.5 -118.5t73 -85t122.5 -32.5q51 0 88 17.5t60.5 46t35 65.5t11.5 76v364h153l3 -364q0 -39 11 -76t32.5 -65.5t54.5 -46t78 -17.5 q127 0 183 99t56 271q0 63 -9 126t-32.5 118t-62.5 99.5t-101 72.5l37 111q92 -23 155.5 -74t103.5 -121.5t57.5 -155.5t17.5 -173q0 -100 -21.5 -191.5t-69.5 -161t-123 -111.5t-181 -42q-98 0 -168 43t-98 114h-6q-39 -74 -112 -115.5t-165 -41.5q-119 0 -194.5 42 t-119.5 111.5t-60.5 160.5t-16.5 192z" />
<glyph unicode="&#x3ca;" horiz-adv-x="489" d="M-57 1235q0 39 28.5 64.5t63.5 25.5q43 0 69.5 -24.5t26.5 -65.5q0 -39 -26.5 -64.5t-67.5 -25.5t-67.5 25.5t-26.5 64.5zM143 141v858h166v-874h121l8 -100q-35 -16 -70.5 -25.5t-70.5 -9.5q-74 0 -114 34.5t-40 116.5zM328 1235q0 39 26.5 64.5t61.5 25.5 q43 0 71.5 -24.5t28.5 -65.5q0 -39 -28.5 -64.5t-71.5 -25.5q-39 0 -63.5 25.5t-24.5 64.5z" />
<glyph unicode="&#x3cb;" horiz-adv-x="1054" d="M123 365v634h168v-634q0 -109 50 -176.5t179 -67.5q123 0 182.5 74.5t59.5 187.5v616h170v-608q0 -88 -27.5 -161.5t-80 -128t-129.5 -84t-173 -29.5q-201 0 -300 104.5t-99 272.5zM240 1235q0 39 28.5 64.5t63.5 25.5q43 0 69.5 -24.5t26.5 -65.5q0 -39 -26.5 -64.5 t-67.5 -25.5t-67.5 25.5t-26.5 64.5zM625 1235q0 39 26.5 64.5t61.5 25.5q43 0 71.5 -24.5t28.5 -65.5q0 -39 -28.5 -64.5t-71.5 -25.5q-39 0 -63.5 25.5t-24.5 64.5z" />
<glyph unicode="&#x3cc;" horiz-adv-x="1081" d="M98 494q0 100 24.5 194t78 168t139.5 119t209 45q125 0 209 -45t134 -118t70.5 -167t20.5 -192q0 -96 -21.5 -188.5t-73.5 -165t-140.5 -116.5t-219.5 -44q-123 0 -205.5 42t-132 111.5t-71 161.5t-21.5 195zM272 494q0 -74 10.5 -143.5t40 -122t84 -84t142.5 -31.5 q82 0 132 33.5t78.5 89t39 123t10.5 135.5t-9 137t-38 127.5t-80 95.5t-133 37q-84 0 -137.5 -36t-84 -92t-43 -128t-12.5 -141zM440 1147l228 350l131 -100l-275 -314z" />
<glyph unicode="&#x3cd;" horiz-adv-x="1054" d="M123 365v634h168v-634q0 -109 50 -176.5t179 -67.5q123 0 182.5 74.5t59.5 187.5v616h170v-608q0 -88 -27.5 -161.5t-80 -128t-129.5 -84t-173 -29.5q-201 0 -300 104.5t-99 272.5zM451 1147l227 350l131 -100l-274 -314z" />
<glyph unicode="&#x3ce;" horiz-adv-x="1495" d="M80 492q0 86 17.5 169.5t56.5 155.5t103.5 124t156.5 75l35 -111q-59 -29 -99.5 -73t-63 -99t-31.5 -117.5t-9 -126.5q0 -68 8 -134t33.5 -118.5t73 -85t122.5 -32.5q51 0 88 17.5t60.5 46t35 65.5t11.5 76v364h153l3 -364q0 -39 11 -76t32.5 -65.5t54.5 -46t78 -17.5 q127 0 183 99t56 271q0 63 -9 126t-32.5 118t-62.5 99.5t-101 72.5l37 111q92 -23 155.5 -74t103.5 -121.5t57.5 -155.5t17.5 -173q0 -100 -21.5 -191.5t-69.5 -161t-123 -111.5t-181 -42q-98 0 -168 43t-98 114h-6q-39 -74 -112 -115.5t-165 -41.5q-119 0 -194.5 42 t-119.5 111.5t-60.5 160.5t-16.5 192zM639 1147l227 350l131 -100l-274 -314z" />
<glyph unicode="&#x3da;" horiz-adv-x="1396" d="M104 815q0 119 45.5 220.5t137.5 175t232 116.5t331 45q76 0 134 3t107.5 9.5t95.5 16.5t97 26l39 -137q-84 -33 -195.5 -50t-246.5 -19q-313 -2 -463 -111t-150 -295q0 -86 29 -157.5t96.5 -130t178 -107.5t274.5 -88q215 -53 315.5 -126t100.5 -177q0 -41 -19.5 -79 t-52.5 -73t-73 -65.5t-81 -55.5q-6 6 -17 19.5t-23.5 27t-23.5 25.5t-18 18q53 43 94.5 79t41.5 83q0 29 -12.5 51.5t-43 41t-82 36t-129.5 35.5q-201 49 -338 112.5t-221 143.5t-122 176t-38 211z" />
<glyph unicode="&#x3db;" horiz-adv-x="1198" d="M94 573q0 94 35 173t105.5 136.5t179 90.5t254.5 35q55 0 97 2t79 6t72.5 11t78.5 22l37 -127q-66 -27 -152.5 -37.5t-191.5 -12.5q-229 -2 -342 -81.5t-113 -217.5q0 -61 23 -113t74 -97.5t133 -81t203 -66.5q164 -41 242.5 -96.5t78.5 -138.5q0 -33 -16.5 -65 t-43 -59.5t-59 -52t-65.5 -45.5l-72 86q35 25 69 59t34 62q0 18 -9.5 33.5t-31 28t-58.5 23.5t-92 26q-152 37 -256 86t-169.5 110.5t-94.5 136t-29 164.5z" />
<glyph unicode="&#x3dc;" horiz-adv-x="1091" d="M131 0q0 354 1 704.5t1 704.5h862v-125h-692v-483q135 2 267 4t268 6v-139l-535 8q0 -172 1 -341t1 -339h-174z" />
<glyph unicode="&#x3dd;" horiz-adv-x="1169" d="M131 -403q0 352 1 702t1 705h862v-123l-692 -2v-484l535 11v-140l-535 8q0 -172 1 -338.5t1 -338.5h-174z" />
<glyph unicode="&#x3de;" horiz-adv-x="1282" d="M209 1264q27 27 66.5 55.5t85 52t92.5 37.5t90 14q55 0 88 -23.5t33 -76.5q0 -14 -2.5 -27.5t-8.5 -29.5l-264 -676l526 147q16 6 32 8.5t28 2.5q66 0 65 -58q0 -6 -1 -12t-3 -14l-202 -699l264 76l43 -74q-31 -31 -73 -57.5t-87 -48t-90 -33.5t-82 -12q-115 0 -115 96 q0 31 6 55l193 641l-555 -159q-18 -6 -35 -7q-35 0 -56.5 21.5t-21.5 50.5v16.5t4 16.5l291 719l-262 -80z" />
<glyph unicode="&#x3df;" horiz-adv-x="944" d="M49 920q25 25 64 47t79.5 40.5t80.5 29t69 10.5q47 0 78 -24t31 -103q-12 -84 -26.5 -170t-31.5 -177h316q59 0 81.5 -16t22.5 -53q0 -18 -12 -39q-121 -354 -248 -713l-170 19q74 170 143.5 336.5t143.5 336.5h-336q-41 0 -65.5 17.5t-24.5 52.5q0 14 4 25 q18 94 37.5 187t36.5 189l-232 -73q-10 20 -20.5 39.5t-20.5 38.5z" />
<glyph unicode="&#x3e0;" horiz-adv-x="1370" d="M119 1386l10 82q283 -16 492.5 -112t350 -255t210 -371t69.5 -460q0 -223 -61 -469l-90 17q14 98 20 189t6 169q0 111 -14 209t-43 201l-586 -369l-63 107l620 350q-29 72 -61.5 135t-79.5 125l-590 -367l-67 109l600 334q-63 76 -137 139t-162 111.5t-193.5 81 t-230.5 44.5z" />
<glyph unicode="&#x3e1;" horiz-adv-x="1228" d="M117 950l14 86q238 -12 413 -92t289.5 -211t170 -305t55.5 -375q0 -88 -11.5 -187t-37.5 -206l-92 18q10 86 16 163t6 139q0 164 -47 321l-469 -305l-64 102l508 283q-23 55 -47 102t-61 101q-6 -2 -42 -25.5t-87 -56.5t-111.5 -70t-113 -69.5t-88 -56t-42.5 -25.5 l-65 104l491 268q-104 117 -244.5 197t-340.5 100z" />
<glyph unicode="&#x401;" horiz-adv-x="1177" d="M164 0v1401h854v-131h-680v-465h573v-127h-573v-545h713v-133h-887zM303 1579q0 37 27.5 63.5t62.5 26.5q43 0 71 -24.5t28 -65.5t-27 -65.5t-68 -24.5t-67.5 24.5t-26.5 65.5zM688 1579q0 37 25.5 63.5t60.5 26.5q43 0 71.5 -24.5t28.5 -65.5t-28.5 -65.5t-71.5 -24.5 q-37 0 -61.5 24.5t-24.5 65.5z" />
<glyph unicode="&#x402;" horiz-adv-x="1552" d="M41 1268v133h1186v-133h-563v-467q100 41 197 60.5t175 19.5q104 0 183 -35t132.5 -94.5t80 -140.5t26.5 -173q0 -115 -33.5 -214t-89 -181t-127 -146.5t-147.5 -109.5l-68 90q127 98 207 228.5t80 304.5q0 166 -79 249.5t-214 83.5q-70 0 -156 -16t-169 -51v-676h-170 v1268h-451z" />
<glyph unicode="&#x403;" horiz-adv-x="1058" d="M164 0v1401h848v-137h-674v-1264h-174zM451 1559l251 329l123 -108l-297 -285z" />
<glyph unicode="&#x404;" horiz-adv-x="1214" d="M123 692q0 76 11 159t39 165t74 155.5t113.5 130t160.5 90t216 33.5q115 0 203 -17t152 -40l-37 -129q-84 29 -160 38t-141 9q-209 0 -318.5 -131t-128.5 -360q133 2 266.5 4t268.5 6v-137q-137 2 -270.5 4t-268.5 2q0 -117 20.5 -218.5t71.5 -175t139.5 -115.5 t223.5 -42q27 0 67.5 3t85.5 9t92.5 15.5t88.5 21.5l32 -123q-37 -14 -85 -26.5t-101 -20.5t-107.5 -13t-103.5 -5q-168 0 -282.5 51t-186.5 144t-103.5 224.5t-31.5 288.5z" />
<glyph unicode="&#x405;" horiz-adv-x="1173" d="M102 92l60 127q125 -59 221 -77.5t174 -18.5q160 0 249 56.5t89 205.5q0 63 -22.5 105t-63.5 70t-96.5 47.5t-118.5 35.5q-92 25 -176 51.5t-148.5 67.5t-102.5 104.5t-38 161.5q0 94 35 168t96.5 125t146.5 77.5t187 26.5q88 0 191.5 -17t193.5 -71l-55 -123 q-100 45 -184.5 58.5t-153.5 13.5q-123 0 -201 -62.5t-78 -191.5q0 -57 26.5 -96t72 -64.5t100.5 -43t115 -31.5q76 -18 155.5 -42t145 -68t107.5 -115.5t42 -186.5q0 -104 -38 -180t-106.5 -125t-163.5 -72.5t-208 -23.5q-111 0 -229.5 24.5t-223.5 83.5z" />
<glyph unicode="&#x406;" horiz-adv-x="540" d="M184 0v1403h172v-1403h-172z" />
<glyph unicode="&#x407;" horiz-adv-x="540" d="M-12 1579q0 37 27.5 63.5t62.5 26.5q43 0 70.5 -24.5t27.5 -65.5t-26.5 -65.5t-67.5 -24.5t-67.5 24.5t-26.5 65.5zM184 0v1403h172v-1403h-172zM373 1579q0 37 25.5 63.5t60.5 26.5q43 0 71.5 -24.5t28.5 -65.5t-28.5 -65.5t-71.5 -24.5q-37 0 -61.5 24.5t-24.5 65.5z " />
<glyph unicode="&#x408;" horiz-adv-x="632" d="M-96 -244q98 55 164.5 106.5t107.5 109t58.5 126t17.5 160.5l2 1145h174l-2 -1135q0 -133 -30.5 -233.5t-90 -176t-147.5 -131t-205 -96.5z" />
<glyph unicode="&#x409;" horiz-adv-x="1968" d="M20 76q117 39 179.5 99.5t94.5 170t44 282.5t24 437l17 338h719l2 -580h330q113 0 198.5 -33.5t143 -90t86 -132t28.5 -159.5q0 -104 -32.5 -180t-90 -127.5t-135.5 -76t-168 -24.5h-534v1270h-402l-6 -144q-10 -193 -19.5 -348t-24.5 -279t-41.5 -218.5t-75 -161 t-122 -107.5t-182.5 -61zM1100 125h334q57 0 107 17.5t87 53t58.5 89t21.5 125.5q0 76 -25.5 130t-67.5 90t-95.5 52t-108.5 16h-311v-573z" />
<glyph unicode="&#x40a;" horiz-adv-x="1949" d="M164 0v1401h176v-582h567v584h174v-580h330q115 0 201 -33.5t142 -90t85 -132t29 -159.5q0 -102 -33 -179t-90 -128.5t-135 -76t-168 -24.5h-535v692h-567v-692h-176zM1081 125h334q57 0 107.5 17.5t88.5 52t59.5 88t21.5 125.5q0 76 -26 130t-68 87.5t-96 50t-109 16.5 h-312v-567z" />
<glyph unicode="&#x40b;" horiz-adv-x="1544" d="M41 1266v135h1159v-135h-557v-447q98 37 194.5 55.5t182.5 18.5t159.5 -18.5t127 -58.5t84 -100.5t30.5 -142.5v-573h-176v532q0 129 -74.5 178.5t-197.5 49.5q-86 0 -175 -21.5t-157 -52.5v-686h-170l-2 1266h-428z" />
<glyph unicode="&#x40c;" horiz-adv-x="1208" d="M164 0v1403h174v-584h244q33 0 70.5 7.5t71.5 31t63.5 66.5t48.5 116l92 359h164l-91 -381q-27 -104 -78 -173t-124 -95q104 -27 161.5 -92.5t81.5 -163.5l125 -494h-170l-120 449q-20 72 -53 116.5t-71 69t-81 34t-82 9.5h-252v-678h-174zM500 1563l252 329l122 -108 l-296 -285z" />
<glyph unicode="&#x40e;" horiz-adv-x="1130" d="M37 1403h172l227 -592l131 -356h11l124 356l213 592h177l-459 -1215q-43 -113 -103.5 -160.5t-156.5 -47.5q-29 0 -83 3t-153 31l37 138q51 -10 89 -17.5t73 -7.5q51 0 86 20.5t61 94.5l37 100h-61zM244 1694l96 67q55 -76 119.5 -123t124.5 -47q18 0 44.5 4t62.5 19.5 t81 47.5t102 87l56 -51q-90 -129 -181.5 -181.5t-173.5 -52.5q-53 0 -100 19.5t-88 51.5t-77 74t-66 85z" />
<glyph unicode="&#x40f;" horiz-adv-x="1337" d="M166 0v1399h172v-1274h657v1274h176v-1399h-432v-352h-139v352h-434z" />
<glyph unicode="&#x410;" horiz-adv-x="1185" d="M20 0q125 381 242 731t221 672h222l458 -1403h-182q-29 92 -57.5 183t-57.5 184h-553q-29 -92 -57.5 -183.5t-56.5 -183.5h-179zM356 500h469q-47 156 -94 312.5t-96 309.5l-41 138h-6l-41 -140q-23 -76 -45.5 -148.5t-45 -147t-47 -154.5t-53.5 -170z" />
<glyph unicode="&#x411;" horiz-adv-x="1159" d="M119 0v1401h821v-125h-649v-453h332q119 0 204.5 -30.5t141 -84t82 -126t26.5 -156.5q0 -104 -31.5 -183t-89 -133.5t-134.5 -82t-169 -27.5h-534zM291 125h340q57 0 106 19.5t86 57.5t58.5 92t21.5 126q0 76 -24.5 129t-65.5 86t-95 48t-114 15h-313v-573z" />
<glyph unicode="&#x412;" horiz-adv-x="1247" d="M164 0v1401h504q102 0 180 -26.5t129 -75t76.5 -114t25.5 -143.5q0 -86 -42 -170t-150 -139q70 -23 113.5 -64.5t70.5 -92t37 -102.5t10 -93q0 -86 -31.5 -156.5t-86 -121t-126 -77t-151.5 -26.5h-559zM336 133h330q76 0 129 21.5t86.5 57.5t49 84t15.5 101 q0 51 -17.5 99.5t-52 85t-88 58.5t-122.5 22h-330v-529zM336 793h293q135 0 205.5 63t70.5 172q0 104 -64.5 172t-211.5 68h-293v-475z" />
<glyph unicode="&#x413;" horiz-adv-x="1120" d="M164 0v1401h848v-137h-674v-1264h-174z" />
<glyph unicode="&#x414;" horiz-adv-x="1402" d="M20 125h125q74 74 118 173t70.5 230t41 292t26.5 358l15 223h786v-1276h139v-467h-137v342h-1046v-342h-138v467zM332 125h698v1151h-463l-10 -125q-18 -238 -35.5 -404.5t-41 -284.5t-58.5 -197t-90 -140z" />
<glyph unicode="&#x415;" horiz-adv-x="1155" d="M164 0v1401h854v-131h-680v-465h573v-127h-573v-545h713v-133h-887z" />
<glyph unicode="&#x416;" horiz-adv-x="1882" d="M63 0l125 494q25 98 82.5 163.5t161.5 92.5q-74 27 -125 95t-78 173l-90 381h160l92 -359q18 -74 48 -116.5t64 -66t70.5 -31t71.5 -7.5h207v584h174v-584h209q33 0 70.5 7.5t71.5 31t63.5 66.5t48.5 116l92 359h158l-90 -381q-27 -104 -78 -173t-125 -95 q104 -27 161.5 -92.5t82.5 -163.5l125 -494h-164l-121 449q-20 72 -53 116.5t-71 69t-81 34t-82 9.5h-217v-678h-174v678h-215q-41 0 -83 -9.5t-80 -34t-70.5 -69.5t-53.5 -116l-121 -449h-166z" />
<glyph unicode="&#x417;" horiz-adv-x="1163" d="M68 72l41 121q115 -37 202.5 -49.5t147.5 -12.5q211 0 317.5 77t106.5 222q0 63 -28 114.5t-76 85.5t-112.5 52t-140.5 18h-170v123h164q78 0 137.5 20.5t100.5 55.5t62.5 80t21.5 94q0 119 -86 168t-224 49q-57 0 -152 -15t-212 -65l-45 117q39 20 90 37.5t107.5 31 t115 20.5t113.5 7q98 0 184 -17t150.5 -57t101.5 -104.5t37 -159.5q0 -43 -14.5 -87t-42 -85t-68.5 -74.5t-96 -56.5l2 -10q117 -31 187.5 -121t70.5 -221q0 -111 -44 -192.5t-119 -137t-173 -82t-209 -26.5q-113 0 -232.5 18.5t-215.5 61.5z" />
<glyph unicode="&#x418;" horiz-adv-x="1366" d="M164 0v1399h172l-2 -1127h6l696 1131l166 -4v-1399h-170v1135h-4l-692 -1135h-172z" />
<glyph unicode="&#x419;" horiz-adv-x="1366" d="M164 0v1399h172l-2 -1127h6l696 1131l166 -4v-1399h-170v1135h-4l-692 -1135h-172zM336 1757l96 70q55 -78 118.5 -124t123.5 -46q18 0 46 3t63.5 18.5t80.5 47t103 86.5l55 -51q-90 -129 -181 -181t-173 -52q-53 0 -100.5 19.5t-88.5 52t-76.5 73.5t-66.5 84z" />
<glyph unicode="&#x41a;" horiz-adv-x="1208" d="M164 0v1403h174v-584h244q33 0 70.5 7.5t71.5 31t63.5 66.5t48.5 116l92 359h164l-91 -381q-27 -104 -78 -173t-124 -95q104 -27 161.5 -92.5t81.5 -163.5l125 -494h-170l-120 449q-20 72 -53 116.5t-71 69t-81 34t-82 9.5h-252v-678h-174z" />
<glyph unicode="&#x41b;" horiz-adv-x="1320" d="M20 76q117 39 179.5 99.5t94.5 170t44 282.5t24 437l17 338h778v-1403h-176l-2 1270h-455l-6 -144q-10 -193 -19.5 -348t-24.5 -279t-41.5 -218.5t-75 -161t-122 -107.5t-182.5 -61z" />
<glyph unicode="&#x41c;" horiz-adv-x="1681" d="M164 0v1401h196l209 -475l267 -600h12q66 150 134.5 299t133.5 301l213 475h189v-1401h-168v1096h-4l-123 -281q-37 -80 -73 -161t-75 -162q-39 -90 -78 -176.5t-79 -176.5h-162l-133 303q-45 102 -90.5 201.5t-92.5 202.5q-27 63 -53.5 124.5t-52.5 123.5h-4 q0 -274 -1 -547t-1 -547h-164z" />
<glyph unicode="&#x41d;" horiz-adv-x="1337" d="M164 0v1401h178q0 -150 -1 -295t-1 -295h655v590h179v-1401h-179v670h-655q0 -168 1 -335t1 -335h-178z" />
<glyph unicode="&#x41e;" horiz-adv-x="1429" d="M123 690q0 145 31.5 278.5t102.5 235t186.5 160.5t281.5 59q168 0 280.5 -60t179 -160.5t94.5 -232t28 -274.5q0 -152 -37 -282.5t-110 -226t-182.5 -149.5t-252.5 -54q-164 0 -277.5 50t-186.5 142t-105.5 222t-32.5 292zM303 688q0 -281 98.5 -426t323.5 -145 q102 0 178 45t125 122.5t72.5 182t23.5 223.5q0 104 -15 211t-58 194t-121 142t-205 55t-209 -51t-129 -136t-65.5 -193.5t-18.5 -223.5z" />
<glyph unicode="&#x41f;" horiz-adv-x="1337" d="M164 0v1403h1010v-1403h-179v1257h-655l2 -1257h-178z" />
<glyph unicode="&#x420;" horiz-adv-x="1136" d="M164 0v1403h459q96 0 176 -25.5t138 -77t90 -128.5t32 -177q0 -63 -19.5 -137t-67.5 -136.5t-129 -104.5t-202 -42h-303l2 -575h-176zM338 707h278q49 0 96.5 13t85.5 46t60.5 87t22.5 136q0 72 -20.5 125t-57.5 88t-87 51.5t-108 16.5h-270v-563z" />
<glyph unicode="&#x421;" horiz-adv-x="1214" d="M123 692q0 76 11 159t39 165t74 155.5t113.5 130t160.5 90t216 33.5q115 0 203 -17t152 -40l-37 -129q-84 29 -160 38t-141 9q-115 0 -200 -41t-140.5 -117.5t-83 -187.5t-27.5 -248q0 -121 19.5 -224t70.5 -180t139.5 -121t225.5 -44q27 0 67.5 3t85.5 9t92.5 15.5 t88.5 21.5l32 -123q-37 -14 -85 -26.5t-101 -20.5t-107.5 -13t-103.5 -5q-168 0 -282.5 51t-186.5 144t-103.5 224.5t-31.5 288.5z" />
<glyph unicode="&#x422;" horiz-adv-x="1153" d="M41 1266v137h1071v-137h-448l-2 -1266h-170v1266h-451z" />
<glyph unicode="&#x423;" horiz-adv-x="1130" d="M37 1403h172l227 -592l131 -356h11l124 356l213 592h177l-459 -1215q-43 -113 -103.5 -160.5t-156.5 -47.5q-29 0 -83 3t-153 31l37 138q51 -10 89 -17.5t73 -7.5q51 0 86 20.5t61 94.5l37 100h-61z" />
<glyph unicode="&#x424;" horiz-adv-x="1636" d="M82 711q0 104 39 200.5t121 173t205.5 127t293.5 58.5v131h170v-131q176 -6 299 -54.5t200 -125t110.5 -174t33.5 -199.5q0 -115 -43 -213t-124.5 -172t-201.5 -118t-274 -52v-162h-170v162q-172 8 -295.5 49t-204.5 111.5t-120 169t-39 219.5zM250 707 q0 -201 125 -303.5t366 -116.5v852q-135 -8 -229 -45t-152.5 -95.5t-84 -134t-25.5 -157.5zM913 287q115 6 203 40.5t147.5 91t90 131.5t30.5 161q0 74 -21.5 148.5t-75.5 134t-145 99.5t-229 46v-852z" />
<glyph unicode="&#x425;" horiz-adv-x="1140" d="M16 0l449 729q-104 168 -208.5 336t-211.5 336h197q84 -141 165.5 -280.5t167.5 -280.5l338 561h195q-111 -172 -218.5 -340t-215.5 -340l448 -721h-192q-92 152 -183.5 302.5t-183.5 303.5l-356 -606h-191z" />
<glyph unicode="&#x426;" horiz-adv-x="1378" d="M164 0v1399h174v-1274h657v1274h176v-1274h146v-465h-137v340h-1016z" />
<glyph unicode="&#x427;" horiz-adv-x="1236" d="M102 881v518h179v-475q0 -131 70.5 -181.5t195.5 -50.5q86 0 184 19.5t170 48.5v639h172v-1399h-172v625q-94 -33 -196.5 -50.5t-186.5 -17.5q-88 0 -163.5 18.5t-132 57.5t-88.5 100.5t-32 147.5z" />
<glyph unicode="&#x428;" horiz-adv-x="1859" d="M164 0v1401h170v-1276h510v1276h174v-1276h502v1276h174l2 -1401h-1532z" />
<glyph unicode="&#x429;" horiz-adv-x="1900" d="M164 0v1401h170v-1276h510v1276h174v-1276h502v1276h176v-1276h143v-467h-137v342h-1538z" />
<glyph unicode="&#x42a;" horiz-adv-x="1568" d="M33 1268v133h667v-578h330q113 0 199 -33.5t143.5 -90t86 -132t28.5 -159.5q0 -104 -33 -180t-90 -127.5t-135 -76t-168 -24.5h-537l2 1268h-493zM700 125h334q57 0 107.5 17.5t87.5 53t58.5 89t21.5 125.5q0 76 -26 130t-67.5 90t-95 52t-108.5 16h-312v-573z" />
<glyph unicode="&#x42b;" horiz-adv-x="1630" d="M164 0v1403h172l2 -580h330q115 0 200.5 -33.5t142 -90t85 -132t28.5 -159.5q0 -104 -32.5 -180t-90 -127.5t-135.5 -76t-168 -24.5h-534zM338 125h334q57 0 107 17.5t88 53t59.5 89t21.5 125.5q0 76 -25.5 130t-68.5 90t-96 52t-109 16h-311v-573zM1294 0v1403h172 v-1403h-172z" />
<glyph unicode="&#x42c;" horiz-adv-x="1206" d="M164 0v1403h174v-580h330q115 0 200.5 -33.5t142 -90t85 -132t28.5 -159.5q0 -104 -32.5 -180t-90 -127.5t-135.5 -76t-168 -24.5h-534zM338 125h334q57 0 107 17.5t88 53t59.5 89t21.5 125.5q0 76 -25.5 130t-68.5 90t-96 52t-109 16h-311v-573z" />
<glyph unicode="&#x42d;" horiz-adv-x="1187" d="M61 47l33 127q84 -25 173 -38t147 -13q131 0 221 38t145.5 111.5t79 179t25.5 240.5l-541 -8v137l541 -10q-2 102 -26.5 189t-77 150.5t-133.5 99.5t-195 36q-55 0 -137.5 -10t-165.5 -37l-33 123q31 12 70.5 23.5t84.5 20.5t91.5 13t87.5 4q182 0 300.5 -57 t188.5 -151.5t97.5 -215t27.5 -249.5q0 -164 -34 -303.5t-109.5 -242t-194.5 -160.5t-291 -58q-98 0 -201.5 16t-173.5 45z" />
<glyph unicode="&#x42e;" horiz-adv-x="1884" d="M164 0v1403h172v-604h287q10 129 44.5 242.5t102.5 198.5t173.5 134t256.5 49q168 0 277.5 -60t172 -161.5t87 -232.5t24.5 -275q0 -152 -32.5 -281.5t-102.5 -225t-175 -148.5t-251 -53q-154 0 -264.5 47t-180 136t-102 216t-32.5 287h-285v-672h-172zM797 686 q0 -139 20.5 -246.5t68.5 -179.5t124.5 -108.5t189.5 -36.5q104 0 177 45t119 122.5t66.5 182t20.5 225.5q0 102 -12 209t-52 194t-116 142t-203 55t-206 -51t-123 -136t-59 -193.5t-15 -223.5z" />
<glyph unicode="&#x42f;" horiz-adv-x="1212" d="M82 0l115 406q25 86 71.5 154.5t128.5 92.5q-123 35 -185 133.5t-62 223.5q0 86 26.5 158.5t78.5 125t131 81t181 28.5h482v-1403h-172v610h-187q-55 0 -105 -9t-91 -34.5t-74 -69.5t-53 -112l-111 -385h-174zM328 1001q0 -82 25.5 -132t65.5 -77.5t87 -38t88 -10.5h283 v525h-279q-57 0 -106.5 -15.5t-86 -47t-57 -83t-20.5 -121.5z" />
<glyph unicode="&#x430;" horiz-adv-x="1085" d="M86 270q0 131 93 210t286 91l256 17v63q0 125 -45 176.5t-170 51.5q-74 0 -154 -14.5t-155 -41.5l-37 113q86 39 188.5 59.5t196.5 20.5q158 0 248 -74t90 -258v-559h135l10 -98q-37 -18 -85 -29.5t-89 -11.5q-59 0 -92 24.5t-37 102.5l-2 2q-57 -49 -110.5 -76 t-97.5 -39t-80 -14t-58 -2q-86 0 -142.5 28.5t-89 71.5t-46 93t-13.5 93zM264 287q0 -88 43 -131t142 -43q66 0 134 33.5t138 97.5v233l-256 -16q-102 -4 -151.5 -51.5t-49.5 -122.5z" />
<glyph unicode="&#x431;" horiz-adv-x="1044" d="M82 465q0 119 2 199.5t5 134t7 84t8 51.5q35 164 141.5 277.5t278.5 183.5q33 14 77 30.5t88 35t86 34.5t73 31l51 -107q-72 -39 -134.5 -64.5t-90.5 -37.5q-104 -41 -181 -82t-131.5 -96.5t-86 -133t-44.5 -190.5q2 0 5 -2q51 80 137 128t194 48q109 0 184.5 -38 t122 -105.5t67 -158.5t20.5 -195q0 -90 -21.5 -180.5t-73 -163t-139.5 -118.5t-219 -46q-127 0 -209 45t-130 114.5t-67.5 154.5t-19.5 167zM254 467q0 -61 9 -124.5t38 -114t82 -83t141 -32.5q80 0 132.5 32.5t81 85t39.5 118t11 132.5q0 70 -9 139.5t-36.5 123t-75.5 87 t-128 33.5q-78 0 -132.5 -39t-88 -97t-49 -128t-15.5 -133z" />
<glyph unicode="&#x432;" horiz-adv-x="1017" d="M119 0v999h456q166 0 247 -70.5t81 -187.5q0 -53 -24.5 -111.5t-96.5 -101.5q45 -18 76 -47.5t47.5 -63.5t23.5 -69t7 -67q0 -63 -25.5 -115.5t-68.5 -89.5t-100.5 -56.5t-120.5 -19.5h-502zM283 127h280q57 0 96 14.5t64 37t36 53t11 63.5q0 66 -51 116t-156 50h-280 v-334zM283 575h268q86 0 136 42t50 108q0 68 -46 107.5t-154 39.5h-254v-297z" />
<glyph unicode="&#x433;" horiz-adv-x="827" d="M119 0v999h698v-129h-534v-870h-164z" />
<glyph unicode="&#x434;" horiz-adv-x="1134" d="M31 127h98q53 47 83 110.5t45 147.5t21.5 190.5t14.5 239.5l10 184h664l-2 -872h98v-406h-131v279h-768v-279h-133v406zM309 127h492v745h-352l-5 -92q-6 -131 -13 -233.5t-21.5 -181t-38 -137t-62.5 -101.5z" />
<glyph unicode="&#x435;" horiz-adv-x="1034" d="M98 498q0 45 6.5 101t23.5 113.5t48 114t80 99.5t118 69.5t163 26.5q100 0 168.5 -26.5t113.5 -69.5t69.5 -96.5t36 -106.5t13.5 -100.5t2 -77.5v-80h-670q0 -70 12.5 -133.5t45 -111.5t88 -76.5t139.5 -28.5q88 0 160.5 18.5t158.5 52.5l41 -106q-90 -47 -181 -69.5 t-191 -22.5q-133 0 -219 41t-136.5 109.5t-70 161.5t-19.5 198zM272 573h510q0 72 -12 132.5t-40 103.5t-73.5 66.5t-115.5 23.5q-72 0 -121 -26.5t-81 -71.5t-47.5 -104.5t-19.5 -123.5z" />
<glyph unicode="&#x436;" horiz-adv-x="1507" d="M45 0l105 358q20 66 60 112t112 69q-98 49 -140 186l-76 272h154l76 -252q14 -49 35.5 -77.5t48 -44t55.5 -20.5t55 -5h142v401h164v-401h141q27 0 55.5 5t55 20.5t48 44t35.5 77.5l76 252h154l-76 -272q-41 -137 -139 -186q72 -23 111.5 -69t60.5 -112l104 -358h-159 l-99 324v-2q-16 49 -40.5 79.5t-54.5 47t-62.5 22.5t-63.5 6h-147v-477h-164v477h-148q-31 0 -63.5 -6t-62 -22.5t-54.5 -47t-41 -79.5v2l-98 -324h-160z" />
<glyph unicode="&#x437;" horiz-adv-x="931" d="M47 55l39 107q78 -27 147.5 -41.5t141.5 -14.5q137 0 215 47.5t78 155.5q0 51 -22.5 85t-56.5 53.5t-75 26.5t-76 7h-153v113h129q37 0 76.5 7t72.5 23.5t54.5 47t21.5 80.5q0 66 -49 106.5t-156 40.5q-53 0 -121.5 -7t-183.5 -50l-35 106q70 33 167 54.5t188 21.5 q166 0 262 -66.5t96 -185.5q0 -86 -51 -143.5t-117 -77.5v-6q86 -23 140.5 -86.5t54.5 -155.5q0 -82 -35 -142.5t-93.5 -99t-137.5 -58t-167 -19.5q-100 0 -198.5 21.5t-155.5 49.5z" />
<glyph unicode="&#x438;" horiz-adv-x="1056" d="M119 0v999h164v-759h8q25 37 47 75.5t47 75.5q102 160 167.5 261.5t107.5 167t68 105.5t48 74h160v-226t1 -273.5t1 -273.5v-226h-168v772h-6q-4 -8 -44 -73.5t-95 -151.5q-51 -80 -109.5 -172t-110 -172t-87 -136.5t-44.5 -66.5h-155z" />
<glyph unicode="&#x439;" horiz-adv-x="1056" d="M119 0v999h164v-759h8q25 37 47 75.5t47 75.5q102 160 167.5 261.5t107.5 167t68 105.5t48 74h160v-226t1 -273.5t1 -273.5v-226h-168v772h-6q-4 -8 -44 -73.5t-95 -151.5q-51 -80 -109.5 -172t-110 -172t-87 -136.5t-44.5 -66.5h-155zM197 1354l96 69q55 -78 118.5 -124 t123.5 -46q18 0 45.5 3.5t63.5 18.5t81 47t102 87l56 -51q-90 -129 -181.5 -181.5t-173.5 -52.5q-53 0 -100 19.5t-88 52.5t-77 74t-66 84z" />
<glyph unicode="&#x43a;" horiz-adv-x="999" d="M119 0v999h162v-401h184q27 0 55.5 5t55 20.5t48 44t35.5 77.5l76 252h154l-76 -272q-41 -137 -139 -186q72 -23 111.5 -69t60.5 -112l104 -358h-159l-99 324v-2q-16 49 -40.5 79.5t-54.5 47t-62.5 22.5t-63.5 6h-190v-477h-162z" />
<glyph unicode="&#x43b;" horiz-adv-x="1038" d="M16 82q84 31 129 76t65.5 122.5t27 195.5t14.5 292l10 231h658v-999h-168v872h-342l-7 -114q-10 -172 -19 -310.5t-41 -240t-98.5 -166t-189.5 -86.5z" />
<glyph unicode="&#x43c;" horiz-adv-x="1318" d="M119 0v999h182l248 -473q43 -84 75.5 -151.5t45.5 -91.5h4q4 8 15 32.5t28.5 60.5t39 81t46.5 94l223 448h174v-999h-158v715h-8q-23 -47 -46 -96.5t-46 -96.5q-51 -104 -103.5 -206.5t-107.5 -217.5h-119q-6 12 -28.5 55.5t-54 104.5t-69.5 131t-71 135 q-39 72 -67.5 129.5t-36.5 73.5h-9v-727h-157z" />
<glyph unicode="&#x43d;" horiz-adv-x="1052" d="M119 0v999h168v-399h481v399h166v-999h-166v469h-483v-469h-166z" />
<glyph unicode="&#x43e;" horiz-adv-x="1081" d="M98 494q0 100 24.5 194t78 168t139.5 119t209 45q125 0 209 -45t134 -118t70.5 -167t20.5 -192q0 -96 -21.5 -188.5t-73.5 -165t-140.5 -116.5t-219.5 -44q-123 0 -205.5 42t-132 111.5t-71 161.5t-21.5 195zM272 494q0 -74 10.5 -143.5t40 -122t84 -84t142.5 -31.5 q82 0 132 33.5t78.5 89t39 123t10.5 135.5t-9 137t-38 127.5t-80 95.5t-133 37q-84 0 -137.5 -36t-84 -92t-43 -128t-12.5 -141z" />
<glyph unicode="&#x43f;" horiz-adv-x="1054" d="M119 0v997h815q0 -250 -1 -498.5t-1 -498.5h-166v872h-481v-872h-166z" />
<glyph unicode="&#x440;" horiz-adv-x="1067" d="M119 -426v1425h162l2 -88l10 -8q61 49 140 79t159 30q106 0 179 -40t116 -108.5t61.5 -160t18.5 -191.5q0 -111 -21.5 -207t-69 -167.5t-124 -113.5t-187.5 -42q-29 0 -64.5 3t-73.5 10t-75 20.5t-67 35.5v-477h-166zM287 178q16 -12 44.5 -24.5t62.5 -23.5t71 -17.5 t72 -6.5q53 0 100 19.5t83 68t56.5 127t20.5 195.5q0 104 -18.5 173t-51.5 110t-79 58t-101 17q-31 0 -69 -9t-74.5 -24.5t-67.5 -32.5t-49 -36v-594z" />
<glyph unicode="&#x441;" horiz-adv-x="933" d="M98 487q0 80 18.5 173.5t69 174t139.5 134t230 53.5q68 0 139.5 -9t149.5 -42l-39 -121q-72 25 -129.5 31t-106.5 6q-145 0 -222 -104.5t-77 -278.5q0 -84 14.5 -153.5t47.5 -122t88 -81t139 -28.5q78 0 145.5 16.5t143.5 46.5l45 -110q-66 -35 -157 -59.5t-191 -24.5 q-125 0 -211 37.5t-138.5 105.5t-75 159t-22.5 197z" />
<glyph unicode="&#x442;" horiz-adv-x="907" d="M20 870v129h867v-129h-350v-870h-164v870h-353z" />
<glyph unicode="&#x443;" horiz-adv-x="942" d="M20 -406l27 117q55 -12 91 -17t71 -5q59 0 98 28.5t66 110.5l57 178h-80l-313 993h162l204 -686q20 -66 34 -120t22 -82h10l63 206q20 68 47 152t55 173t56.5 180t57.5 177h170q-47 -143 -96.5 -292.5t-99.5 -300t-100.5 -299t-97.5 -289.5q-37 -119 -104.5 -188.5 t-183.5 -69.5q-23 2 -73 5t-143 29z" />
<glyph unicode="&#x444;" horiz-adv-x="1368" d="M82 494q0 111 30.5 204t94 162.5t163 110.5t234.5 45l-2 436h160v-436q135 -2 234.5 -39t164 -103.5t95 -157.5t30.5 -202q0 -109 -27.5 -201t-90 -162.5t-163 -113.5t-243.5 -51v-414h-160l2 414q-150 6 -250 47t-160.5 109.5t-86 158.5t-25.5 193zM244 498 q0 -84 18.5 -155t61.5 -123t111.5 -80.5t168.5 -30.5v780q-106 -4 -176 -36t-111 -84t-57 -121.5t-16 -149.5zM762 109q100 4 169.5 34.5t112.5 83t61.5 123t18.5 154.5q0 80 -16 149.5t-57 121.5t-112 82t-177 32v-780z" />
<glyph unicode="&#x445;" horiz-adv-x="884" d="M8 0l336 522q-78 119 -152.5 238t-152.5 239h186q55 -92 108.5 -185t108.5 -185q57 92 110.5 185t111.5 185h184q-78 -121 -156 -237.5t-155 -235.5q86 -133 168.5 -263t168.5 -263h-186q-61 104 -122.5 208.5t-125.5 209.5q-66 -104 -126 -209t-126 -209h-180z" />
<glyph unicode="&#x446;" horiz-adv-x="1116" d="M119 0v999h166v-872h479v872h166v-872h121v-403h-133v276h-799z" />
<glyph unicode="&#x447;" horiz-adv-x="999" d="M82 690v309h168v-270q0 -55 6 -96t24.5 -68.5t52.5 -42t89 -14.5q72 0 148.5 15.5t140.5 49.5v428h168v-1001h-168v449q-74 -41 -166 -58.5t-166 -17.5q-100 0 -158.5 27.5t-89.5 72.5t-40 102.5t-9 114.5z" />
<glyph unicode="&#x448;" horiz-adv-x="1466" d="M121 0v999h164v-872h360v872h166v-872h371v872h166v-999h-1227z" />
<glyph unicode="&#x449;" horiz-adv-x="1509" d="M121 0v999h164v-872h360v872h166v-872h371v872h166v-872h120v-403h-133v276h-1214z" />
<glyph unicode="&#x44a;" horiz-adv-x="1286" d="M31 872v127h538v-358h310q90 0 155.5 -27.5t107.5 -72.5t62.5 -102.5t20.5 -116.5q0 -74 -25.5 -133.5t-70 -101.5t-103.5 -64.5t-129 -22.5h-491v872h-375zM569 125h299q88 0 141.5 52t53.5 142q0 98 -60.5 150.5t-152.5 52.5h-281v-397z" />
<glyph unicode="&#x44b;" horiz-adv-x="1329" d="M119 0v999h164v-358h309q90 0 155.5 -27.5t107.5 -72.5t62.5 -102.5t20.5 -116.5q0 -74 -25.5 -133.5t-69.5 -101.5t-103.5 -64.5t-129.5 -22.5h-491zM283 127h299q88 0 141 51t53 141q0 98 -60.5 150.5t-152.5 52.5h-280v-395zM1044 0v999h166v-999h-166z" />
<glyph unicode="&#x44c;" horiz-adv-x="999" d="M119 0v999h164v-358h309q90 0 155.5 -27.5t107.5 -72.5t62.5 -102.5t20.5 -116.5q0 -74 -25.5 -133.5t-69.5 -101.5t-103.5 -64.5t-129.5 -22.5h-491zM283 127h299q88 0 141 51t53 141q0 98 -60.5 150.5t-152.5 52.5h-280v-395z" />
<glyph unicode="&#x44d;" horiz-adv-x="940" d="M41 72l41 104q78 -29 144.5 -46t144.5 -17t135 30.5t94 80.5t54.5 118t17.5 141l-418 -6v117l416 -10q-8 152 -79 232.5t-206 80.5q-45 0 -104.5 -6t-153.5 -35l-37 105q63 29 140 45t159 16q135 0 223 -43t139.5 -112.5t71 -155.5t19.5 -172q0 -106 -23.5 -206 t-78 -176.5t-141.5 -122.5t-214 -46q-98 0 -188.5 23.5t-155.5 60.5z" />
<glyph unicode="&#x44e;" horiz-adv-x="1431" d="M119 0v999h164v-415h198q8 86 37 165.5t81 140t130 96.5t184 36q119 0 200 -45t130 -119t69.5 -168t20.5 -192q0 -96 -21.5 -188.5t-72.5 -165t-136 -116.5t-210 -44q-115 0 -193.5 38.5t-127 105.5t-71 155t-24.5 186h-194v-469h-164zM647 494q0 -74 9.5 -143.5t37 -122 t79.5 -84t140 -31.5q76 0 125 33.5t77 89t38 124t10 136.5q0 66 -9 136t-36.5 127.5t-77 94.5t-127.5 37t-129 -35t-81.5 -92t-43 -128t-12.5 -142z" />
<glyph unicode="&#x44f;" horiz-adv-x="1021" d="M72 0l98 297q16 51 44 97t85 69v4q-90 31 -128 95.5t-38 142.5q0 63 22.5 116t65.5 93t106.5 62.5t147.5 22.5h428v-999h-164v416h-192q-84 0 -135.5 -27t-79.5 -115l-90 -274h-170zM295 711q0 -55 19.5 -89t49 -52.5t65.5 -24.5t69 -6h241v333h-237q-90 0 -148.5 -35.5 t-58.5 -125.5z" />
<glyph unicode="&#x451;" horiz-adv-x="1034" d="M98 498q0 45 6.5 101t23.5 113.5t48 114t80 99.5t118 69.5t163 26.5q100 0 168.5 -26.5t113.5 -69.5t69.5 -96.5t36 -106.5t13.5 -100.5t2 -77.5v-80h-670q0 -70 12.5 -133.5t45 -111.5t88 -76.5t139.5 -28.5q88 0 160.5 18.5t158.5 52.5l41 -106q-90 -47 -181 -69.5 t-191 -22.5q-133 0 -219 41t-136.5 109.5t-70 161.5t-19.5 198zM231 1249q0 39 29 64.5t64 25.5q43 0 69.5 -24.5t26.5 -65.5q0 -39 -26.5 -64.5t-67.5 -25.5t-68 25.5t-27 64.5zM272 573h510q0 72 -12 132.5t-40 103.5t-73.5 66.5t-115.5 23.5q-72 0 -121 -26.5t-81 -71.5 t-47.5 -104.5t-19.5 -123.5zM616 1249q0 39 27 64.5t62 25.5q43 0 71.5 -24.5t28.5 -65.5q0 -39 -28.5 -64.5t-71.5 -25.5q-39 0 -64 25.5t-25 64.5z" />
<glyph unicode="&#x452;" horiz-adv-x="1048" d="M10 1094v90h109v272h168v-272h442v-90h-442v-236q174 80 313 80q176 0 268.5 -118t92.5 -390q0 -104 -19.5 -193.5t-68 -155t-130 -102t-204.5 -36.5h-22.5t-22.5 2l4 118q76 0 132 17.5t93 58.5t54.5 113t17.5 182q0 111 -17.5 183.5t-48.5 114.5t-74 58.5t-96 16.5 q-61 0 -136 -22.5t-136 -51.5v-733h-168v1094h-109z" />
<glyph unicode="&#x453;" horiz-adv-x="827" d="M119 0v999h698v-129h-534v-870h-164zM309 1186l252 332l119 -111l-297 -285z" />
<glyph unicode="&#x454;" horiz-adv-x="952" d="M98 487q0 80 18.5 173.5t69 174t139.5 134t230 53.5q68 0 139.5 -9t149.5 -42l-39 -121q-72 25 -129.5 31t-106.5 6q-133 0 -208.5 -88t-88.5 -240q100 4 199.5 5t198.5 3v-112l-400 6q2 -76 19.5 -138.5t51.5 -107.5t87 -70.5t131 -25.5t145.5 16.5t143.5 46.5l45 -110 q-66 -35 -157 -59.5t-191 -24.5q-125 0 -211 37.5t-138.5 105.5t-75 159t-22.5 197z" />
<glyph unicode="&#x455;" horiz-adv-x="913" d="M80 66l53 114q96 -43 176 -55t133 -12q47 0 89 8t73 26.5t48.5 49t17.5 75.5q0 39 -17.5 67t-47.5 47.5t-68.5 33.5t-81.5 29q-66 23 -126.5 45t-107.5 54t-75.5 77t-28.5 114q0 72 28.5 125.5t77.5 88t114.5 51t141.5 16.5q31 0 70 -4t79 -12.5t78.5 -21.5t71.5 -34 l-51 -117q-78 31 -137.5 42.5t-112.5 11.5q-39 0 -75.5 -7.5t-64.5 -24.5t-45.5 -46t-17.5 -70q0 -33 21.5 -56.5t54.5 -41.5t70 -30.5t67 -22.5q63 -20 125 -42t111 -55.5t78.5 -84t29.5 -130.5q0 -76 -29.5 -130t-81.5 -89t-125 -51t-159 -16q-45 0 -93 5t-95 14t-91 24.5 t-77 34.5z" />
<glyph unicode="&#x456;" horiz-adv-x="520" d="M150 1262q0 47 32.5 78.5t75.5 31.5q47 0 80 -31.5t33 -78.5q0 -43 -33 -76t-80 -33q-43 0 -75.5 33t-32.5 76zM174 0v999h166v-999h-166z" />
<glyph unicode="&#x457;" horiz-adv-x="520" d="M-23 1235q0 39 29 64.5t64 25.5q43 0 69.5 -24.5t26.5 -65.5q0 -39 -26.5 -64.5t-67.5 -25.5t-68 25.5t-27 64.5zM174 0v999h166v-999h-166zM362 1235q0 39 27 64.5t62 25.5q43 0 71.5 -24.5t28.5 -65.5q0 -39 -28.5 -64.5t-71.5 -25.5q-39 0 -64 25.5t-25 64.5z" />
<glyph unicode="&#x458;" horiz-adv-x="542" d="M-49 -332q74 43 121 79t73.5 76t37 89t10.5 115v972h165v-373.5v-260v-169v-100.5t-1 -55t-1 -33q-4 -92 -22.5 -160.5t-60.5 -121t-108.5 -93.5t-164.5 -77q-14 29 -25.5 56.5t-23.5 55.5zM170 1262q0 47 31.5 78.5t77.5 31.5q45 0 77.5 -31.5t32.5 -78.5 q0 -45 -32.5 -77t-77.5 -32t-77 32t-32 77z" />
<glyph unicode="&#x459;" horiz-adv-x="1572" d="M0 72q82 27 126 74t65.5 126.5t28.5 200.5t16 295l10 231h608v-354h311q90 0 155.5 -28.5t107.5 -74.5t62.5 -103.5t20.5 -116.5q0 -74 -25.5 -133.5t-69.5 -101.5t-103.5 -64.5t-128.5 -22.5h-492v872h-305l-6 -114q-10 -172 -19.5 -310.5t-42 -241t-97 -166 t-183.5 -85.5zM854 127h301q88 0 141.5 51t53.5 141q0 98 -60.5 150.5t-152.5 52.5h-283v-395z" />
<glyph unicode="&#x45a;" horiz-adv-x="1579" d="M119 999h166v-376h415l-2 376h164v-378h289q182 0 274.5 -86t92.5 -224q0 -72 -25 -130t-69 -98t-104 -61.5t-130 -21.5h-490v500h-415v-500h-164zM862 127h299q88 0 141.5 46t53.5 136q0 98 -60.5 143.5t-152.5 45.5h-281v-371z" />
<glyph unicode="&#x45b;" horiz-adv-x="1091" d="M10 1081v97h148v278h166v-278h372v-97h-372v-237q94 51 191 84t169 33q102 0 159.5 -30t86 -76t35 -103.5t6.5 -112.5v-639h-166v598q0 51 -5 93t-22.5 72t-52.5 45t-94 15q-72 0 -156 -30.5t-149 -67.5v-725h-168v1081h-148z" />
<glyph unicode="&#x45c;" horiz-adv-x="999" d="M119 0v999h162v-401h184q27 0 55.5 5t55 20.5t48 44t35.5 77.5l76 252h154l-76 -272q-41 -137 -139 -186q72 -23 111.5 -69t60.5 -112l104 -358h-159l-99 324v-2q-16 49 -40.5 79.5t-54.5 47t-62.5 22.5t-63.5 6h-190v-477h-162zM381 1159l252 332l119 -111l-297 -284z " />
<glyph unicode="&#x45e;" horiz-adv-x="942" d="M20 -406l27 117q55 -12 91 -17t71 -5q59 0 98 28.5t66 110.5l57 178h-80l-313 993h162l204 -686q20 -66 34 -123t22 -86h10l63 213q20 68 47 152t55 173t56.5 180t57.5 177h170q-47 -143 -96.5 -292.5t-99.5 -300t-100.5 -299t-97.5 -289.5q-37 -119 -104.5 -188.5 t-183.5 -69.5q-23 2 -73 5t-143 29zM127 1358l96 69q55 -78 119 -124t123 -46q18 0 46 3.5t63.5 18.5t80.5 47t103 87l55 -51q-90 -129 -181 -181.5t-173 -52.5q-53 0 -100.5 19.5t-88.5 52.5t-76.5 74t-66.5 84z" />
<glyph unicode="&#x45f;" horiz-adv-x="1050" d="M119 0v999h168v-872h479v872h166v-999h-338v-295h-137v295h-338z" />
<glyph unicode="&#x490;" horiz-adv-x="1062" d="M164 0v1401h727v264h135v-389h-688v-1276h-174z" />
<glyph unicode="&#x491;" horiz-adv-x="835" d="M119 0v999h557v218h123v-345h-516v-872h-164z" />
<glyph unicode="&#x4d9;" horiz-adv-x="993" d="M92 465v76h666q0 70 -12.5 134t-45 112.5t-87 77t-138.5 28.5q-88 0 -158.5 -17.5t-156.5 -52.5l-41 105q90 49 179 71.5t189 22.5q133 0 219.5 -41t135.5 -109.5t67.5 -162t18.5 -197.5q0 -68 -15.5 -158t-61.5 -171t-133.5 -138t-228.5 -57q-96 0 -163.5 26.5 t-111.5 69.5t-68.5 96t-37 106.5t-14.5 100.5t-2 78zM252 440q0 -72 11 -131t39 -102t73.5 -66.5t113.5 -23.5q72 0 121 26.5t80 71.5t46.5 103.5t19.5 121.5h-504z" />
<glyph unicode="&#x1e80;" horiz-adv-x="1714" d="M20 1401h181q47 -209 94 -417t96 -417q18 -88 38 -178t40 -178h10l74 334q25 115 49.5 221t48 210.5l47 209t47.5 215.5h185l225 -846q4 -12 16.5 -57t26.5 -100.5t28.5 -107.5t20.5 -77h13q20 92 40.5 186.5t38.5 186.5q45 205 90.5 407.5t92.5 407.5h172 q-88 -379 -175 -730.5t-165 -670.5h-205q-55 215 -110.5 416.5t-112.5 423.5q-20 78 -39 153.5t-41 153.5l-15 2q-16 -78 -33.5 -156t-33.5 -155q-4 -23 -52 -232t-137 -606h-210zM588 1778l123 112l252 -329l-80 -68z" />
<glyph unicode="&#x1e81;" horiz-adv-x="1474" d="M18 999h168l142 -516l78 -317h10l84 330l143 503h162l166 -526l86 -307h12l74 305l143 528h168l-297 -999h-182l-146 463l-100 354h-10l-92 -354l-133 -463h-183zM465 1380l123 117l252 -332l-78 -69z" />
<glyph unicode="&#x1e82;" horiz-adv-x="1714" d="M20 1401h181q47 -209 94 -417t96 -417q18 -88 38 -178t40 -178h10l74 334q25 115 49.5 221t48 210.5l47 209t47.5 215.5h185l225 -846q4 -12 16.5 -57t26.5 -100.5t28.5 -107.5t20.5 -77h13q20 92 40.5 186.5t38.5 186.5q45 205 90.5 407.5t92.5 407.5h172 q-88 -379 -175 -730.5t-165 -670.5h-205q-55 215 -110.5 416.5t-112.5 423.5q-20 78 -39 153.5t-41 153.5l-15 2q-16 -78 -33.5 -156t-33.5 -155q-4 -23 -52 -232t-137 -606h-210zM795 1559l252 329l122 -108l-297 -285z" />
<glyph unicode="&#x1e83;" horiz-adv-x="1474" d="M18 999h168l142 -516l78 -317h10l84 330l143 503h162l166 -526l86 -307h12l74 305l143 528h168l-297 -999h-182l-146 463l-100 354h-10l-92 -354l-133 -463h-183zM662 1159l251 332l119 -111l-297 -284z" />
<glyph unicode="&#x1e84;" horiz-adv-x="1714" d="M20 1401h181q47 -209 94 -417t96 -417q18 -88 38 -178t40 -178h10l74 334q25 115 49.5 221t48 210.5l47 209t47.5 215.5h185l225 -846q4 -12 16.5 -57t26.5 -100.5t28.5 -107.5t20.5 -77h13q20 92 40.5 186.5t38.5 186.5q45 205 90.5 407.5t92.5 407.5h172 q-88 -379 -175 -730.5t-165 -670.5h-205q-55 215 -110.5 416.5t-112.5 423.5q-20 78 -39 153.5t-41 153.5l-15 2q-16 -78 -33.5 -156t-33.5 -155q-4 -23 -52 -232t-137 -606h-210zM553 1579q0 37 27.5 63.5t62.5 26.5q43 0 70.5 -24.5t27.5 -65.5t-26.5 -65.5t-67.5 -24.5 t-67.5 24.5t-26.5 65.5zM938 1579q0 37 25.5 63.5t60.5 26.5q43 0 71.5 -24.5t28.5 -65.5t-28.5 -65.5t-71.5 -24.5q-37 0 -61.5 24.5t-24.5 65.5z" />
<glyph unicode="&#x1e85;" horiz-adv-x="1474" d="M18 999h168l142 -516l78 -317h10l84 330l143 503h162l166 -526l86 -307h12l74 305l143 528h168l-297 -999h-182l-146 463l-100 354h-10l-92 -354l-133 -463h-183zM438 1200q0 39 29 64.5t63 25.5q43 0 70 -24.5t27 -65.5q0 -39 -27 -64.5t-68 -25.5t-67.5 25.5 t-26.5 64.5zM823 1200q0 39 27 64.5t61 25.5q43 0 72 -24.5t29 -65.5q0 -39 -29 -64.5t-72 -25.5q-39 0 -63.5 25.5t-24.5 64.5z" />
<glyph unicode="&#x1ef2;" horiz-adv-x="1097" d="M20 1403h183l192 -369l144 -284h8l155 297l195 356h178l-442 -789v-614h-182v606zM287 1763l123 113l252 -330l-80 -67z" />
<glyph unicode="&#x1ef3;" horiz-adv-x="942" d="M20 -406l27 117q55 -12 91 -17t71 -5q59 0 98 28.5t66 110.5l57 178h-80l-313 993h162l204 -686q20 -66 34 -123t22 -86h10l63 213q20 68 47 152t55 173t56.5 180t57.5 177h170q-47 -143 -96.5 -292.5t-99.5 -300t-100.5 -299t-97.5 -289.5q-37 -119 -104.5 -188.5 t-183.5 -69.5q-23 2 -73 5t-143 29zM209 1380l123 117l252 -332l-78 -69z" />
<glyph unicode="&#x1f00;" horiz-adv-x="1114" d="M78 494q0 92 21.5 185t70.5 168t127 121t190 46q92 0 164 -35t119 -78l39 98h115v-874h120l9 -100q-35 -16 -71 -25.5t-71 -9.5q-72 0 -103.5 29.5t-41.5 82.5l-8 2q-55 -45 -105.5 -69.5t-93.5 -35.5t-78 -13t-57 -2q-94 0 -159.5 37.5t-107.5 105.5t-60.5 161 t-18.5 206zM250 500q0 -117 18.5 -190.5t50 -116.5t73.5 -58.5t91 -15.5q57 0 130 29t145 92q0 135 1 265t1 263q-18 18 -47 37.5t-62 37t-67.5 29t-65.5 11.5q-76 0 -127 -33t-83 -87t-45 -123t-13 -140zM418 1440l39 123l24 14q84 -23 126 -71t42 -120q0 -49 -40 -118.5 t-111 -120.5l-39 45q27 29 47 73t20 68q0 33 -20.5 63.5t-87.5 43.5z" />
<glyph unicode="&#x1f01;" horiz-adv-x="1114" d="M78 494q0 92 21.5 185t70.5 168t127 121t190 46q92 0 164 -35t119 -78l39 98h115v-874h120l9 -100q-35 -16 -71 -25.5t-71 -9.5q-72 0 -103.5 29.5t-41.5 82.5l-8 2q-55 -45 -105.5 -69.5t-93.5 -35.5t-78 -13t-57 -2q-94 0 -159.5 37.5t-107.5 105.5t-60.5 161 t-18.5 206zM250 500q0 -117 18.5 -190.5t50 -116.5t73.5 -58.5t91 -15.5q57 0 130 29t145 92q0 135 1 265t1 263q-18 18 -47 37.5t-62 37t-67.5 29t-65.5 11.5q-76 0 -127 -33t-83 -87t-45 -123t-13 -140zM391 1386q0 72 42 120t126 71l25 -14l41 -123q-70 -12 -90.5 -43 t-20.5 -64q0 -25 20.5 -68.5t47.5 -72.5l-37 -45q-74 51 -114 120.5t-40 118.5z" />
<glyph unicode="&#x1f02;" horiz-adv-x="1114" d="M78 494q0 92 21.5 185t70.5 168t127 121t190 46q92 0 164 -35t119 -78l39 98h115v-874h120l9 -100q-35 -16 -71 -25.5t-71 -9.5q-72 0 -103.5 29.5t-41.5 82.5l-8 2q-55 -45 -105.5 -69.5t-93.5 -35.5t-78 -13t-57 -2q-94 0 -159.5 37.5t-107.5 105.5t-60.5 161 t-18.5 206zM246 1446l41 125l24 14q168 -43 168 -192q0 -47 -39 -117t-112 -121l-39 45q27 29 46 72t19 69q0 31 -19.5 62t-88.5 43zM250 500q0 -117 18.5 -190.5t50 -116.5t73.5 -58.5t91 -15.5q57 0 130 29t145 92q0 135 1 265t1 263q-18 18 -47 37.5t-62 37t-67.5 29 t-65.5 11.5q-76 0 -127 -33t-83 -87t-45 -123t-13 -140zM483 1524l135 67l156 -391l-74 -39z" />
<glyph unicode="&#x1f03;" horiz-adv-x="1114" d="M78 494q0 92 21.5 185t70.5 168t127 121t190 46q92 0 164 -35t119 -78l39 98h115v-874h120l9 -100q-35 -16 -71 -25.5t-71 -9.5q-72 0 -103.5 29.5t-41.5 82.5l-8 2q-55 -45 -105.5 -69.5t-93.5 -35.5t-78 -13t-57 -2q-94 0 -159.5 37.5t-107.5 105.5t-60.5 161 t-18.5 206zM250 500q0 -117 18.5 -190.5t50 -116.5t73.5 -58.5t91 -15.5q57 0 130 29t145 92q0 135 1 265t1 263q-18 18 -47 37.5t-62 37t-67.5 29t-65.5 11.5q-76 0 -127 -33t-83 -87t-45 -123t-13 -140zM303 1393q0 145 170 192l23 -14q10 -31 20 -62.5t21 -62.5 q-70 -12 -89.5 -43t-19.5 -62q0 -27 19.5 -70.5t46.5 -72.5l-37 -43q-37 25 -66 56.5t-48 64.5t-29.5 63.5t-10.5 53.5zM549 1550l143 54q29 -104 55.5 -204t55.5 -202l-80 -31q-41 96 -85 190.5t-89 192.5z" />
<glyph unicode="&#x1f04;" horiz-adv-x="1114" d="M78 494q0 92 21.5 185t70.5 168t127 121t190 46q92 0 164 -35t119 -78l39 98h115v-874h120l9 -100q-35 -16 -71 -25.5t-71 -9.5q-72 0 -103.5 29.5t-41.5 82.5l-8 2q-55 -45 -105.5 -69.5t-93.5 -35.5t-78 -13t-57 -2q-94 0 -159.5 37.5t-107.5 105.5t-60.5 161 t-18.5 206zM250 500q0 -117 18.5 -190.5t50 -116.5t73.5 -58.5t91 -15.5q57 0 130 29t145 92q0 135 1 265t1 263q-18 18 -47 37.5t-62 37t-67.5 29t-65.5 11.5q-76 0 -127 -33t-83 -87t-45 -123t-13 -140zM317 1446l41 125l25 14q168 -43 168 -192q0 -47 -39 -117t-113 -121 l-39 45q27 29 46.5 72t19.5 69q0 31 -19.5 62t-89.5 43zM555 1192l156 391l135 -67l-217 -363z" />
<glyph unicode="&#x1f05;" horiz-adv-x="1114" d="M78 494q0 92 21.5 185t70.5 168t127 121t190 46q92 0 164 -35t119 -78l39 98h115v-874h120l9 -100q-35 -16 -71 -25.5t-71 -9.5q-72 0 -103.5 29.5t-41.5 82.5l-8 2q-55 -45 -105.5 -69.5t-93.5 -35.5t-78 -13t-57 -2q-94 0 -159.5 37.5t-107.5 105.5t-60.5 161 t-18.5 206zM250 500q0 -117 18.5 -190.5t50 -116.5t73.5 -58.5t91 -15.5q57 0 130 29t145 92q0 135 1 265t1 263q-18 18 -47 37.5t-62 37t-67.5 29t-65.5 11.5q-76 0 -127 -33t-83 -87t-45 -123t-13 -140zM324 1393q0 145 170 192l22 -14q10 -31 20.5 -62.5t20.5 -62.5 q-70 -12 -89 -43t-19 -62q0 -27 19 -70.5t46 -72.5l-37 -43q-37 25 -65.5 56.5t-48 64.5t-29.5 63.5t-10 53.5zM569 1190l156 391q35 -16 67.5 -33.5t67.5 -36.5q-53 -92 -107.5 -180t-107.5 -180q-20 10 -37.5 19.5t-38.5 19.5z" />
<glyph unicode="&#x1f06;" horiz-adv-x="1114" d="M78 494q0 92 21.5 185t70.5 168t127 121t190 46q92 0 164 -35t119 -78l39 98h115v-874h120l9 -100q-35 -16 -71 -25.5t-71 -9.5q-72 0 -103.5 29.5t-41.5 82.5l-8 2q-55 -45 -105.5 -69.5t-93.5 -35.5t-78 -13t-57 -2q-94 0 -159.5 37.5t-107.5 105.5t-60.5 161 t-18.5 206zM190 1536q35 66 80 102.5t107 36.5q39 0 81 -12t84 -26.5t79.5 -27t66.5 -12.5l121 80l55 -39q-25 -68 -71 -110.5t-107 -42.5q-49 0 -93 12t-85 26.5t-76 27t-65 12.5l-121 -78zM250 500q0 -117 18.5 -190.5t50 -116.5t73.5 -58.5t91 -15.5q57 0 130 29t145 92 q0 135 1 265t1 263q-18 18 -47 37.5t-62 37t-67.5 29t-65.5 11.5q-76 0 -127 -33t-83 -87t-45 -123t-13 -140zM420 1354l35 100l26 12q168 -37 168 -149q0 -41 -35.5 -85t-113.5 -83l-37 37q27 25 44 46t17 44q0 29 -21.5 49.5t-82.5 28.5z" />
<glyph unicode="&#x1f07;" horiz-adv-x="1114" d="M78 494q0 92 21.5 185t70.5 168t127 121t190 46q92 0 164 -35t119 -78l39 98h115v-874h120l9 -100q-35 -16 -71 -25.5t-71 -9.5q-72 0 -103.5 29.5t-41.5 82.5l-8 2q-55 -45 -105.5 -69.5t-93.5 -35.5t-78 -13t-57 -2q-94 0 -159.5 37.5t-107.5 105.5t-60.5 161 t-18.5 206zM217 1536q35 66 80 102.5t106 36.5q39 0 81 -12t84 -26.5t80 -27t67 -12.5l121 80l55 -39q-25 -68 -71 -110.5t-107 -42.5q-49 0 -93.5 12t-85 26.5t-75.5 27t-66 12.5l-121 -78zM250 500q0 -117 18.5 -190.5t50 -116.5t73.5 -58.5t91 -15.5q57 0 130 29t145 92 q0 135 1 265t1 263q-18 18 -47 37.5t-62 37t-67.5 29t-65.5 11.5q-76 0 -127 -33t-83 -87t-45 -123t-13 -140zM416 1317q0 57 40 93t130 52l24 -12l37 -98q-63 -8 -83.5 -27.5t-20.5 -46.5q0 -23 17.5 -45.5t43.5 -46.5l-37 -37q-74 41 -112.5 85t-38.5 83z" />
<glyph unicode="&#x1f08;" horiz-adv-x="1185" d="M-23 1298l39 123l25 15q84 -23 126 -71t42 -120q0 -49 -40 -118.5t-112 -120.5l-39 45q27 29 47.5 72.5t20.5 68.5q0 33 -20.5 63.5t-88.5 42.5zM20 0q125 381 242 731t221 672h222l458 -1403h-182q-29 92 -57.5 183t-57.5 184h-553q-29 -92 -57.5 -183.5t-56.5 -183.5 h-179zM356 500h469q-47 156 -94 312.5t-96 309.5l-41 138h-6l-41 -140q-23 -76 -45.5 -148.5t-45 -147t-47 -154.5t-53.5 -170z" />
<glyph unicode="&#x1f09;" horiz-adv-x="1185" d="M-18 1227q0 72 42 120t126 70l24 -14l41 -123q-70 -12 -90.5 -43t-20.5 -63q0 -25 20.5 -69t47.5 -73l-37 -45q-74 51 -113.5 121t-39.5 119zM20 0q125 381 242 731t221 672h222l458 -1403h-182q-29 92 -57.5 183t-57.5 184h-553q-29 -92 -57.5 -183.5t-56.5 -183.5h-179 zM356 500h469q-47 156 -94 312.5t-96 309.5l-41 138h-6l-41 -140q-23 -76 -45.5 -148.5t-45 -147t-47 -154.5t-53.5 -170z" />
<glyph unicode="&#x1f0a;" horiz-adv-x="1185" d="M-250 1278l41 125l25 14q168 -43 168 -192q0 -47 -39 -117t-113 -121l-39 45q27 29 46.5 72t19.5 70q0 31 -19.5 61.5t-89.5 42.5zM-12 1356l135 67l156 -391l-74 -39zM20 0q125 381 242 731t221 672h222l458 -1403h-182q-29 92 -57.5 183t-57.5 184h-553 q-29 -92 -57.5 -183.5t-56.5 -183.5h-179zM356 500h469q-47 156 -94 312.5t-96 309.5l-41 138h-6l-41 -140q-23 -76 -45.5 -148.5t-45 -147t-47 -154.5t-53.5 -170z" />
<glyph unicode="&#x1f0b;" horiz-adv-x="1185" d="M-229 1221q0 145 170 192l22 -14q10 -31 20.5 -62.5t20.5 -62.5q-70 -12 -89 -43t-19 -62q0 -27 19 -70.5t46 -72.5l-37 -43q-37 25 -65.5 56.5t-48 64.5t-29.5 63.5t-10 53.5zM16 1378l144 54q29 -104 55.5 -204t54.5 -202l-80 -31q-41 96 -85 190.5t-89 192.5zM20 0 q125 381 242 731t221 672h222l458 -1403h-182q-29 92 -57.5 183t-57.5 184h-553q-29 -92 -57.5 -183.5t-56.5 -183.5h-179zM356 500h469q-47 156 -94 312.5t-96 309.5l-41 138h-6l-41 -140q-23 -76 -45.5 -148.5t-45 -147t-47 -154.5t-53.5 -170z" />
<glyph unicode="&#x1f0c;" horiz-adv-x="1185" d="M-221 1274l41 125l24 14q168 -43 168 -192q0 -47 -39 -117t-112 -121l-39 45q27 29 46 72t19 69q0 31 -19.5 62t-88.5 43zM16 1020l156 391l135 -68l-217 -362zM20 0q125 381 242 731t221 672h222l458 -1403h-182q-29 92 -57.5 183t-57.5 184h-553q-29 -92 -57.5 -183.5 t-56.5 -183.5h-179zM356 500h469q-47 156 -94 312.5t-96 309.5l-41 138h-6l-41 -140q-23 -76 -45.5 -148.5t-45 -147t-47 -154.5t-53.5 -170z" />
<glyph unicode="&#x1f0d;" horiz-adv-x="1185" d="M-225 1223q0 145 170 192l22 -14q10 -31 20.5 -62.5t20.5 -62.5q-70 -12 -89 -43t-19 -62q0 -27 19.5 -70.5t45.5 -72.5l-37 -43q-37 25 -65.5 56.5t-48 64.5t-29.5 63.5t-10 53.5zM20 0q125 381 242 731t221 672h222l458 -1403h-182q-29 92 -57.5 183t-57.5 184h-553 q-29 -92 -57.5 -183.5t-56.5 -183.5h-179zM20 1020l156 391q35 -16 67.5 -33.5t67.5 -36.5q-53 -92 -107 -180t-108 -180q-20 10 -37.5 19.5t-38.5 19.5zM356 500h469q-47 156 -94 312.5t-96 309.5l-41 138h-6l-41 -140q-23 -76 -45.5 -148.5t-45 -147t-47 -154.5 t-53.5 -170z" />
<glyph unicode="&#x1f0e;" horiz-adv-x="1185" d="M-328 1268q35 66 80 102.5t107 36.5q39 0 81 -12.5t84 -26.5l79.5 -26.5t66.5 -12.5l121 80l55 -39q-25 -68 -71 -110.5t-107 -42.5q-49 0 -93 12t-85 26.5t-76 26.5t-66 12l-120 -77zM-98 1085l35 101l26 12q168 -37 168 -149q0 -41 -36 -85t-113 -83l-37 37 q27 25 44 46t17 44q0 29 -21.5 49t-82.5 28zM20 0q125 381 242 731t221 672h222l458 -1403h-182q-29 92 -57.5 183t-57.5 184h-553q-29 -92 -57.5 -183.5t-56.5 -183.5h-179zM356 500h469q-47 156 -94 312.5t-96 309.5l-41 138h-6l-41 -140q-23 -76 -45.5 -148.5t-45 -147 t-47 -154.5t-53.5 -170z" />
<glyph unicode="&#x1f0f;" horiz-adv-x="1185" d="M-322 1270q35 66 80 102.5t107 36.5q39 0 81 -12.5t84 -26.5l79.5 -26.5t66.5 -12.5l121 80l55 -39q-25 -68 -71 -110.5t-107 -42.5q-49 0 -93 12t-85 26.5t-76 26.5t-65 12l-121 -77zM-123 1051q0 57 40 93t130 52l25 -12l37 -99q-63 -8 -84 -27.5t-21 -45.5 q0 -23 17.5 -45.5t44.5 -46.5l-37 -37q-74 41 -113 85t-39 83zM20 0q125 381 242 731t221 672h222l458 -1403h-182q-29 92 -57.5 183t-57.5 184h-553q-29 -92 -57.5 -183.5t-56.5 -183.5h-179zM356 500h469q-47 156 -94 312.5t-96 309.5l-41 138h-6l-41 -140 q-23 -76 -45.5 -148.5t-45 -147t-47 -154.5t-53.5 -170z" />
<glyph unicode="&#x1f10;" horiz-adv-x="899" d="M82 281q0 96 55.5 161.5t132.5 89.5l2 7q-66 18 -119 67t-53 129q0 68 29 122t80 91t119.5 56.5t148.5 19.5q86 0 178.5 -14.5t151.5 -38.5l-37 -113q-94 29 -155.5 36t-118.5 7q-61 0 -103.5 -13.5t-69 -35t-39 -50t-12.5 -61.5q0 -49 18.5 -77.5t49.5 -43t67.5 -18.5 t73.5 -4h137v-115h-139q-35 0 -74.5 -8t-73.5 -28.5t-55.5 -56.5t-21.5 -91q0 -51 20.5 -87t55.5 -59.5t84 -33.5t104 -10q80 0 151.5 18t153.5 53l39 -102q-61 -35 -158.5 -63.5t-205.5 -28.5q-82 0 -158 15t-133 50t-91 91.5t-34 138.5zM383 1440l39 123l24 14 q84 -23 126 -71t42 -120q0 -49 -39.5 -118.5t-111.5 -120.5l-39 45q27 29 47.5 73t20.5 68q0 33 -20.5 63.5t-88.5 43.5z" />
<glyph unicode="&#x1f11;" horiz-adv-x="899" d="M82 281q0 96 55.5 161.5t132.5 89.5l2 7q-66 18 -119 67t-53 129q0 68 29 122t80 91t119.5 56.5t148.5 19.5q86 0 178.5 -14.5t151.5 -38.5l-37 -113q-94 29 -155.5 36t-118.5 7q-61 0 -103.5 -13.5t-69 -35t-39 -50t-12.5 -61.5q0 -49 18.5 -77.5t49.5 -43t67.5 -18.5 t73.5 -4h137v-115h-139q-35 0 -74.5 -8t-73.5 -28.5t-55.5 -56.5t-21.5 -91q0 -51 20.5 -87t55.5 -59.5t84 -33.5t104 -10q80 0 151.5 18t153.5 53l39 -102q-61 -35 -158.5 -63.5t-205.5 -28.5q-82 0 -158 15t-133 50t-91 91.5t-34 138.5zM350 1386q0 72 42 120t126 71 l25 -14l41 -123q-70 -12 -90.5 -43t-20.5 -64q0 -25 20.5 -68.5t47.5 -72.5l-37 -45q-74 51 -114 120.5t-40 118.5z" />
<glyph unicode="&#x1f12;" horiz-adv-x="899" d="M82 281q0 96 55.5 161.5t132.5 89.5l2 7q-66 18 -119 67t-53 129q0 68 29 122t80 91t119.5 56.5t148.5 19.5q86 0 178.5 -14.5t151.5 -38.5l-37 -113q-94 29 -155.5 36t-118.5 7q-61 0 -103.5 -13.5t-69 -35t-39 -50t-12.5 -61.5q0 -49 18.5 -77.5t49.5 -43t67.5 -18.5 t73.5 -4h137v-115h-139q-35 0 -74.5 -8t-73.5 -28.5t-55.5 -56.5t-21.5 -91q0 -51 20.5 -87t55.5 -59.5t84 -33.5t104 -10q80 0 151.5 18t153.5 53l39 -102q-61 -35 -158.5 -63.5t-205.5 -28.5q-82 0 -158 15t-133 50t-91 91.5t-34 138.5zM238 1446l41 125l24 14 q168 -43 168 -192q0 -47 -39 -117t-113 -121l-38 45q27 29 46 72t19 69q0 31 -19.5 62t-88.5 43zM475 1524l135 67l156 -391l-74 -39z" />
<glyph unicode="&#x1f13;" horiz-adv-x="899" d="M82 281q0 96 55.5 161.5t132.5 89.5l2 7q-66 18 -119 67t-53 129q0 68 29 122t80 91t119.5 56.5t148.5 19.5q86 0 178.5 -14.5t151.5 -38.5l-37 -113q-94 29 -155.5 36t-118.5 7q-61 0 -103.5 -13.5t-69 -35t-39 -50t-12.5 -61.5q0 -49 18.5 -77.5t49.5 -43t67.5 -18.5 t73.5 -4h137v-115h-139q-35 0 -74.5 -8t-73.5 -28.5t-55.5 -56.5t-21.5 -91q0 -51 20.5 -87t55.5 -59.5t84 -33.5t104 -10q80 0 151.5 18t153.5 53l39 -102q-61 -35 -158.5 -63.5t-205.5 -28.5q-82 0 -158 15t-133 50t-91 91.5t-34 138.5zM248 1393q0 145 170 192l22 -14 q10 -31 20.5 -62.5t20.5 -62.5q-70 -12 -89 -43t-19 -62q0 -27 19.5 -70.5t45.5 -72.5l-37 -43q-37 25 -65.5 56.5t-48 64.5t-29.5 63.5t-10 53.5zM494 1550l143 54q29 -104 55.5 -204t55.5 -202l-80 -31q-41 96 -85 190.5t-89 192.5z" />
<glyph unicode="&#x1f14;" horiz-adv-x="899" d="M82 281q0 96 55.5 161.5t132.5 89.5l2 7q-66 18 -119 67t-53 129q0 68 29 122t80 91t119.5 56.5t148.5 19.5q86 0 178.5 -14.5t151.5 -38.5l-37 -113q-94 29 -155.5 36t-118.5 7q-61 0 -103.5 -13.5t-69 -35t-39 -50t-12.5 -61.5q0 -49 18.5 -77.5t49.5 -43t67.5 -18.5 t73.5 -4h137v-115h-139q-35 0 -74.5 -8t-73.5 -28.5t-55.5 -56.5t-21.5 -91q0 -51 20.5 -87t55.5 -59.5t84 -33.5t104 -10q80 0 151.5 18t153.5 53l39 -102q-61 -35 -158.5 -63.5t-205.5 -28.5q-82 0 -158 15t-133 50t-91 91.5t-34 138.5zM248 1446l41 125l24 14 q168 -43 168 -192q0 -47 -39 -117t-112 -121l-39 45q27 29 46 72t19 69q0 31 -19.5 62t-88.5 43zM485 1192l156 391l135 -67l-217 -363z" />
<glyph unicode="&#x1f15;" horiz-adv-x="899" d="M82 281q0 96 55.5 161.5t132.5 89.5l2 7q-66 18 -119 67t-53 129q0 68 29 122t80 91t119.5 56.5t148.5 19.5q86 0 178.5 -14.5t151.5 -38.5l-37 -113q-94 29 -155.5 36t-118.5 7q-61 0 -103.5 -13.5t-69 -35t-39 -50t-12.5 -61.5q0 -49 18.5 -77.5t49.5 -43t67.5 -18.5 t73.5 -4h137v-115h-139q-35 0 -74.5 -8t-73.5 -28.5t-55.5 -56.5t-21.5 -91q0 -51 20.5 -87t55.5 -59.5t84 -33.5t104 -10q80 0 151.5 18t153.5 53l39 -102q-61 -35 -158.5 -63.5t-205.5 -28.5q-82 0 -158 15t-133 50t-91 91.5t-34 138.5zM262 1393q0 145 170 192l23 -14 q10 -31 20 -62.5t21 -62.5q-70 -12 -89.5 -43t-19.5 -62q0 -27 19.5 -70.5t46.5 -72.5l-37 -43q-37 25 -65.5 56.5t-48 64.5t-30 63.5t-10.5 53.5zM508 1190l156 391q35 -16 67.5 -33.5t67.5 -36.5q-53 -92 -107.5 -180t-107.5 -180q-20 10 -38 19.5t-38 19.5z" />
<glyph unicode="&#x1f18;" horiz-adv-x="1155" d="M-240 1294l39 123l25 15q84 -23 126 -71t42 -120q0 -49 -40 -118.5t-112 -121.5l-39 46q27 29 47.5 72.5t20.5 68.5q0 33 -20.5 63.5t-88.5 42.5zM164 0v1401h854v-131h-680v-465h573v-127h-573v-545h713v-133h-887z" />
<glyph unicode="&#x1f19;" horiz-adv-x="1155" d="M-236 1227q0 72 42 120t126 70l25 -14l41 -123q-70 -12 -90.5 -43t-20.5 -63q0 -25 20.5 -69t47.5 -73l-37 -45q-74 51 -114 121t-40 119zM164 0v1401h854v-131h-680v-465h573v-127h-573v-545h713v-133h-887z" />
<glyph unicode="&#x1f1a;" horiz-adv-x="1155" d="M-481 1290l41 125l24 15q168 -43 168 -193q0 -47 -39 -116.5t-112 -121.5l-39 45q27 29 46 72t19 70q0 31 -19.5 61.5t-88.5 42.5zM-244 1368l135 68l156 -392l-74 -38zM164 0v1401h854v-131h-680v-465h573v-127h-573v-545h713v-133h-887z" />
<glyph unicode="&#x1f1b;" horiz-adv-x="1155" d="M-461 1233q0 145 170 192l23 -14q10 -31 20 -62.5t21 -62.5q-70 -12 -89.5 -43t-19.5 -61q0 -27 19.5 -71t46.5 -73l-37 -43q-37 25 -65.5 56.5t-48 64.5t-30 63.5t-10.5 53.5zM-215 1391l143 53q29 -104 55.5 -203.5t55.5 -202.5l-80 -30q-41 96 -85 190t-89 193zM164 0 v1401h854v-131h-680v-465h573v-127h-573v-545h713v-133h-887z" />
<glyph unicode="&#x1f1c;" horiz-adv-x="1155" d="M-524 1286l41 125l24 14q168 -43 168 -192q0 -47 -39 -116.5t-112 -121.5l-39 45q27 29 46 72t19 70q0 31 -19.5 61.5t-88.5 42.5zM-287 1032l156 391l135 -67l-217 -363zM164 0v1401h854v-131h-680v-465h573v-127h-573v-545h713v-133h-887z" />
<glyph unicode="&#x1f1d;" horiz-adv-x="1155" d="M-537 1231q0 145 170 192l23 -14q10 -31 20.5 -62.5t20.5 -62.5q-70 -12 -89.5 -43t-19.5 -61q0 -27 19.5 -71t46.5 -73l-37 -43q-37 25 -65.5 56.5t-48 64.5t-30 63.5t-10.5 53.5zM-291 1028l156 391q35 -16 67.5 -33.5t67.5 -35.5q-53 -92 -107.5 -180.5t-107.5 -180.5 q-20 10 -37.5 19.5t-38.5 19.5zM164 0v1401h854v-131h-680v-465h573v-127h-573v-545h713v-133h-887z" />
<glyph unicode="&#x1f20;" horiz-adv-x="1052" d="M119 0v999h166v-86l6 -4q84 53 180 83t168 30q102 0 160.5 -29.5t88.5 -76t37 -103.5t7 -113v-700h-166v659q0 51 -5 93.5t-22.5 72t-52.5 45t-94 15.5q-72 0 -156 -31t-149 -68v-786h-168zM365 1440l38 123l25 14q84 -23 126 -71t42 -120q0 -49 -40 -118.5t-112 -120.5 l-38 45q27 29 47 73t20 68q0 33 -20.5 63.5t-87.5 43.5z" />
<glyph unicode="&#x1f21;" horiz-adv-x="1052" d="M119 0v999h166v-86l6 -4q84 53 180 83t168 30q102 0 160.5 -29.5t88.5 -76t37 -103.5t7 -113v-700h-166v659q0 51 -5 93.5t-22.5 72t-52.5 45t-94 15.5q-72 0 -156 -31t-149 -68v-786h-168zM362 1386q0 72 42 120t126 71l25 -14l41 -123q-70 -12 -90.5 -43t-20.5 -64 q0 -25 20.5 -68.5t47.5 -72.5l-37 -45q-74 51 -114 120.5t-40 118.5z" />
<glyph unicode="&#x1f22;" horiz-adv-x="1052" d="M119 0v999h166v-86l6 -4q84 53 180 83t168 30q102 0 160.5 -29.5t88.5 -76t37 -103.5t7 -113v-700h-166v659q0 51 -5 93.5t-22.5 72t-52.5 45t-94 15.5q-72 0 -156 -31t-149 -68v-786h-168zM213 1446l41 125l25 14q168 -43 167 -192q0 -47 -38.5 -117t-112.5 -121l-39 45 q27 29 46.5 72t19.5 69q0 31 -19.5 62t-89.5 43zM451 1524l135 67l155 -391l-73 -39z" />
<glyph unicode="&#x1f23;" horiz-adv-x="1052" d="M119 0v999h166v-86l6 -4q84 53 180 83t168 30q102 0 160.5 -29.5t88.5 -76t37 -103.5t7 -113v-700h-166v659q0 51 -5 93.5t-22.5 72t-52.5 45t-94 15.5q-72 0 -156 -31t-149 -68v-786h-168zM242 1393q0 145 170 192l22 -14q10 -31 20.5 -62.5t20.5 -62.5q-70 -12 -89 -43 t-19 -62q0 -27 19.5 -70.5t45.5 -72.5l-37 -43q-37 25 -65.5 56.5t-48 64.5t-29.5 63.5t-10 53.5zM487 1550l144 54q29 -104 55.5 -204t54.5 -202l-79 -31q-41 96 -85.5 190.5t-89.5 192.5z" />
<glyph unicode="&#x1f24;" horiz-adv-x="1052" d="M119 0v999h166v-86l6 -4q84 53 180 83t168 30q102 0 160.5 -29.5t88.5 -76t37 -103.5t7 -113v-700h-166v659q0 51 -5 93.5t-22.5 72t-52.5 45t-94 15.5q-72 0 -156 -31t-149 -68v-786h-168zM258 1446l41 125l25 14q168 -43 168 -192q0 -47 -39 -117t-113 -121l-39 45 q27 29 46.5 72t19.5 69q0 31 -19.5 62t-89.5 43zM496 1192l155 391l135 -67l-217 -363z" />
<glyph unicode="&#x1f25;" horiz-adv-x="1052" d="M119 0v999h166v-86l6 -4q84 53 180 83t168 30q102 0 160.5 -29.5t88.5 -76t37 -103.5t7 -113v-700h-166v659q0 51 -5 93.5t-22.5 72t-52.5 45t-94 15.5q-72 0 -156 -31t-149 -68v-786h-168zM258 1393q0 145 170 192l23 -14q10 -31 20 -62.5t21 -62.5q-70 -12 -89.5 -43 t-19.5 -62q0 -27 19.5 -70.5t46.5 -72.5l-37 -43q-37 25 -66 56.5t-48 64.5t-29.5 63.5t-10.5 53.5zM504 1190l155 391q35 -16 68 -33.5t68 -36.5q-53 -92 -107.5 -180t-107.5 -180q-20 10 -38 19.5t-38 19.5z" />
<glyph unicode="&#x1f26;" horiz-adv-x="1052" d="M119 0v999h166v-86l6 -4q84 53 180 83t168 30q102 0 160.5 -29.5t88.5 -76t37 -103.5t7 -113v-700h-166v659q0 51 -5 93.5t-22.5 72t-52.5 45t-94 15.5q-72 0 -156 -31t-149 -68v-786h-168zM143 1536q35 66 80 102.5t107 36.5q39 0 81 -12t84 -26.5t79.5 -27t66.5 -12.5 l121 80l55 -39q-25 -68 -71 -110.5t-107 -42.5q-49 0 -93 12t-85 26.5t-76 27t-66 12.5l-120 -78zM373 1354l35 100l26 12q168 -37 168 -149q0 -41 -36 -85t-113 -83l-37 37q27 25 44 46t17 44q0 29 -21.5 49.5t-82.5 28.5z" />
<glyph unicode="&#x1f27;" horiz-adv-x="1052" d="M119 0v999h166v-86l6 -4q84 53 180 83t168 30q102 0 160.5 -29.5t88.5 -76t37 -103.5t7 -113v-700h-166v659q0 51 -5 93.5t-22.5 72t-52.5 45t-94 15.5q-72 0 -156 -31t-149 -68v-786h-168zM160 1534q35 66 80 102.5t106 36.5q39 0 81 -12t84 -26.5t80 -27t66 -12.5 l121 80l56 -39q-25 -68 -71.5 -110.5t-107.5 -42.5q-49 0 -93 12t-85 26.5t-75.5 27t-65.5 12.5l-121 -78zM358 1315q0 57 40 93t130 52l25 -12l37 -98q-63 -8 -84 -27.5t-21 -46.5q0 -23 17.5 -45.5t44.5 -46.5l-37 -37q-74 41 -113 85t-39 83z" />
<glyph unicode="&#x1f28;" horiz-adv-x="1337" d="M-231 1296l38 123l25 15q84 -23 126 -71t42 -120q0 -49 -40 -118.5t-112 -120.5l-38 45q27 29 47 72.5t20 68.5q0 33 -20.5 63.5t-87.5 42.5zM164 0v1401h178q0 -150 -1 -295t-1 -295h655v590h179v-1401h-179v670h-655q0 -168 1 -335t1 -335h-178z" />
<glyph unicode="&#x1f29;" horiz-adv-x="1337" d="M-236 1227q0 72 42 120t126 70l25 -14l41 -123q-70 -12 -90.5 -43t-20.5 -63q0 -25 20.5 -69t47.5 -73l-37 -45q-74 51 -114 121t-40 119zM164 0v1401h178q0 -150 -1 -295t-1 -295h655v590h179v-1401h-179v670h-655q0 -168 1 -335t1 -335h-178z" />
<glyph unicode="&#x1f2a;" horiz-adv-x="1337" d="M-481 1276l41 125l24 14q168 -43 168 -192q0 -47 -39 -117t-112 -121l-39 45q27 29 46 72t19 69q0 31 -19.5 62t-88.5 43zM-244 1354l135 67l156 -391l-74 -39zM164 0v1401h178q0 -150 -1 -295t-1 -295h655v590h179v-1401h-179v670h-655q0 -168 1 -335t1 -335h-178z" />
<glyph unicode="&#x1f2b;" horiz-adv-x="1337" d="M-461 1225q0 145 170 192l23 -14q10 -31 20 -62.5t21 -62.5q-70 -12 -89.5 -43t-19.5 -61q0 -27 19.5 -71t46.5 -73l-37 -43q-37 25 -65.5 56.5t-48 64.5t-30 63.5t-10.5 53.5zM-215 1382l143 54q29 -104 55.5 -203.5t55.5 -202.5l-80 -31q-41 96 -85 190.5t-89 192.5z M164 0v1401h178q0 -150 -1 -295t-1 -295h655v590h179v-1401h-179v670h-655q0 -168 1 -335t1 -335h-178z" />
<glyph unicode="&#x1f2c;" horiz-adv-x="1337" d="M-483 1276l41 125l24 14q168 -43 168 -192q0 -47 -39 -117t-112 -121l-39 45q27 29 46 72t19 69q0 31 -19.5 62t-88.5 43zM-246 1022l156 391l135 -67l-217 -363zM164 0v1401h178q0 -150 -1 -295t-1 -295h655v590h179v-1401h-179v670h-655q0 -168 1 -335t1 -335h-178z " />
<glyph unicode="&#x1f2d;" horiz-adv-x="1337" d="M-498 1223q0 145 170 192l23 -14q10 -31 20.5 -62.5t20.5 -62.5q-70 -12 -89.5 -43t-19.5 -62q0 -27 19.5 -70.5t46.5 -72.5l-37 -43q-37 25 -65.5 56.5t-48 64.5t-30 63.5t-10.5 53.5zM-252 1020l156 391q35 -16 67.5 -33.5t67.5 -36.5q-53 -92 -107.5 -180t-107.5 -180 q-20 10 -37.5 19.5t-38.5 19.5zM164 0v1401h178q0 -150 -1 -295t-1 -295h655v590h179v-1401h-179v670h-655q0 -168 1 -335t1 -335h-178z" />
<glyph unicode="&#x1f2e;" horiz-adv-x="1337" d="M-612 1268q35 66 80 102.5t106 36.5q39 0 81 -12.5t84 -26.5t80 -26.5t66 -12.5l121 80l55 -39q-25 -68 -71 -110.5t-107 -42.5q-49 0 -93 12t-85 26.5t-76 26.5t-65 12l-121 -77zM-383 1085l35 101l26 12q168 -37 168 -149q0 -41 -35.5 -85t-113.5 -83l-37 37 q27 25 44 46t17 44q0 29 -21.5 49t-82.5 28zM164 0v1401h178q0 -150 -1 -295t-1 -295h655v590h179v-1401h-179v670h-655q0 -168 1 -335t1 -335h-178z" />
<glyph unicode="&#x1f2f;" horiz-adv-x="1337" d="M-600 1270q35 66 80 102.5t106 36.5q39 0 81 -12.5t84 -26.5t80 -26.5t67 -12.5l120 80l56 -39q-25 -68 -71 -110.5t-107 -42.5q-49 0 -93.5 12t-85.5 26.5t-75.5 26.5t-65.5 12l-121 -77zM-401 1051q0 57 39.5 93t130.5 52l24 -12l37 -99q-63 -8 -83.5 -27.5 t-20.5 -45.5q0 -23 17 -45.5t44 -46.5l-37 -37q-74 41 -112.5 85t-38.5 83zM164 0v1401h178q0 -150 -1 -295t-1 -295h655v590h179v-1401h-179v670h-655q0 -168 1 -335t1 -335h-178z" />
<glyph unicode="&#x1f30;" horiz-adv-x="489" d="M143 141v858h166v-874h121l8 -100q-35 -16 -70.5 -25.5t-70.5 -9.5q-74 0 -114 34.5t-40 116.5zM143 1440l39 123l25 14q84 -23 126 -71t42 -120q0 -49 -40 -118.5t-112 -120.5l-39 45q27 29 47.5 73t20.5 68q0 33 -20.5 63.5t-88.5 43.5z" />
<glyph unicode="&#x1f31;" horiz-adv-x="489" d="M119 1386q0 72 42 120t126 71l24 -14l41 -123q-70 -12 -90 -43t-20 -64q0 -25 20.5 -68.5t46.5 -72.5l-37 -45q-74 51 -113.5 120.5t-39.5 118.5zM143 141v858h166v-874h121l8 -100q-35 -16 -70.5 -25.5t-70.5 -9.5q-74 0 -114 34.5t-40 116.5z" />
<glyph unicode="&#x1f32;" horiz-adv-x="489" d="M-68 1446l41 125l25 14q168 -43 168 -192q0 -47 -39 -117t-113 -121l-39 45q27 29 46.5 72t19.5 69q0 31 -19.5 62t-89.5 43zM143 141v858h166v-874h121l8 -100q-35 -16 -70.5 -25.5t-70.5 -9.5q-74 0 -114 34.5t-40 116.5zM170 1524l135 67l156 -391l-74 -39z" />
</font>
</defs>
</svg>
